<?xml version="1.0" encoding="UTF-8" standalone="no"?>
<!-- Created with Inkscape (http://www.inkscape.org/) -->

<svg
   version="1.1"
   id="svg2"
   xml:space="preserve"
   width="672"
   height="480"
   viewBox="0 0 672 480"
   sodipodi:docname="EMI-Ineq.svg"
   inkscape:version="1.1.2 (0a00cf5339, 2022-02-04)"
   xmlns:inkscape="http://www.inkscape.org/namespaces/inkscape"
   xmlns:sodipodi="http://sodipodi.sourceforge.net/DTD/sodipodi-0.dtd"
   xmlns="http://www.w3.org/2000/svg"
   xmlns:svg="http://www.w3.org/2000/svg"><defs
     id="defs6"><clipPath
       clipPathUnits="userSpaceOnUse"
       id="clipPath44"><path
         d="M 40.98,31.91 H 498.52 V 354.52 H 40.98 Z"
         id="path42" /></clipPath></defs><sodipodi:namedview
     id="namedview4"
     pagecolor="#ffffff"
     bordercolor="#666666"
     borderopacity="1.0"
     inkscape:pageshadow="2"
     inkscape:pageopacity="0.0"
     inkscape:pagecheckerboard="0"
     showgrid="false"
     showguides="false"
     inkscape:zoom="1.5520833"
     inkscape:cx="419.11409"
     inkscape:cy="260.61745"
     inkscape:window-width="1920"
     inkscape:window-height="983"
     inkscape:window-x="1920"
     inkscape:window-y="0"
     inkscape:window-maximized="1"
     inkscape:current-layer="g8" /><g
     id="g8"
     inkscape:groupmode="layer"
     inkscape:label="EMI-Ineq"
     transform="matrix(1.3333333,0,0,-1.3333333,0,480)"><g
       id="g10"><path
         d="M 0,0 H 504 V 360 H 0 Z"
         style="fill:#ffffff;fill-opacity:1;fill-rule:nonzero;stroke:none"
         id="path12" /></g><g
       id="g14" /><g
       id="g16" /><g
       id="g18" /><g
       id="g20" /><g
       id="g22" /><g
       id="g24" /><g
       id="g26" /><g
       id="g28" /><g
       id="g30" /><g
       id="g32"><path
         d="M 0,0 H 504 V 360 H 0 Z"
         style="fill:#ffffff;fill-opacity:1;fill-rule:nonzero;stroke:#ffffff;stroke-width:1.07;stroke-linecap:round;stroke-linejoin:round;stroke-miterlimit:10;stroke-dasharray:none;stroke-opacity:1"
         id="path34" /></g><g
       id="g36" /><path
       d="M 40.98,31.91 H 498.52 V 354.52 H 40.98 Z"
       style="fill:#ffffff;fill-opacity:1;fill-rule:nonzero;stroke:none"
       id="path46" /><path
       d="M 40.98,81.24 H 498.52"
       style="fill:none;stroke:#ebebeb;stroke-width:0.53;stroke-linecap:butt;stroke-linejoin:round;stroke-miterlimit:10;stroke-dasharray:none;stroke-opacity:1"
       id="path48" /><path
       d="M 40.98,163.24 H 498.52"
       style="fill:none;stroke:#ebebeb;stroke-width:0.53;stroke-linecap:butt;stroke-linejoin:round;stroke-miterlimit:10;stroke-dasharray:none;stroke-opacity:1"
       id="path50" /><path
       d="M 40.98,245.24 H 498.52"
       style="fill:none;stroke:#ebebeb;stroke-width:0.53;stroke-linecap:butt;stroke-linejoin:round;stroke-miterlimit:10;stroke-dasharray:none;stroke-opacity:1"
       id="path52" /><path
       d="M 40.98,327.24 H 498.52"
       style="fill:none;stroke:#ebebeb;stroke-width:0.53;stroke-linecap:butt;stroke-linejoin:round;stroke-miterlimit:10;stroke-dasharray:none;stroke-opacity:1"
       id="path54" /><path
       d="M 131.91,31.91 V 354.52"
       style="fill:none;stroke:#ebebeb;stroke-width:0.53;stroke-linecap:butt;stroke-linejoin:round;stroke-miterlimit:10;stroke-dasharray:none;stroke-opacity:1"
       id="path56" /><path
       d="M 236.98,31.91 V 354.52"
       style="fill:none;stroke:#ebebeb;stroke-width:0.53;stroke-linecap:butt;stroke-linejoin:round;stroke-miterlimit:10;stroke-dasharray:none;stroke-opacity:1"
       id="path58" /><path
       d="M 342.05,31.91 V 354.52"
       style="fill:none;stroke:#ebebeb;stroke-width:0.53;stroke-linecap:butt;stroke-linejoin:round;stroke-miterlimit:10;stroke-dasharray:none;stroke-opacity:1"
       id="path60" /><path
       d="M 447.12,31.91 V 354.52"
       style="fill:none;stroke:#ebebeb;stroke-width:0.53;stroke-linecap:butt;stroke-linejoin:round;stroke-miterlimit:10;stroke-dasharray:none;stroke-opacity:1"
       id="path62" /><path
       d="M 40.98,40.24 H 498.52"
       style="fill:none;stroke:#ebebeb;stroke-width:1.07;stroke-linecap:butt;stroke-linejoin:round;stroke-miterlimit:10;stroke-dasharray:none;stroke-opacity:1"
       id="path64" /><path
       d="M 40.98,122.24 H 498.52"
       style="fill:none;stroke:#ebebeb;stroke-width:1.07;stroke-linecap:butt;stroke-linejoin:round;stroke-miterlimit:10;stroke-dasharray:none;stroke-opacity:1"
       id="path66" /><path
       d="M 40.98,204.24 H 498.52"
       style="fill:none;stroke:#ebebeb;stroke-width:1.07;stroke-linecap:butt;stroke-linejoin:round;stroke-miterlimit:10;stroke-dasharray:none;stroke-opacity:1"
       id="path68" /><path
       d="M 40.98,286.24 H 498.52"
       style="fill:none;stroke:#ebebeb;stroke-width:1.07;stroke-linecap:butt;stroke-linejoin:round;stroke-miterlimit:10;stroke-dasharray:none;stroke-opacity:1"
       id="path70" /><path
       d="M 79.37,31.91 V 354.52"
       style="fill:none;stroke:#ebebeb;stroke-width:1.07;stroke-linecap:butt;stroke-linejoin:round;stroke-miterlimit:10;stroke-dasharray:none;stroke-opacity:1"
       id="path72" /><path
       d="M 184.44,31.91 V 354.52"
       style="fill:none;stroke:#ebebeb;stroke-width:1.07;stroke-linecap:butt;stroke-linejoin:round;stroke-miterlimit:10;stroke-dasharray:none;stroke-opacity:1"
       id="path74" /><path
       d="M 289.52,31.91 V 354.52"
       style="fill:none;stroke:#ebebeb;stroke-width:1.07;stroke-linecap:butt;stroke-linejoin:round;stroke-miterlimit:10;stroke-dasharray:none;stroke-opacity:1"
       id="path76" /><path
       d="m 61.78,339.86 5.26,-3.11 5.27,-3.02 5.27,-2.92 5.26,-2.81 5.27,-2.69 5.26,-2.59 5.27,-2.46 5.26,-2.36 5.27,-2.28 5.26,-2.21 5.27,-2.16 5.26,-2.14 5.27,-2.12 5.26,-2.13 5.27,-2.15 5.26,-2.19 5.27,-2.24 5.26,-2.31 5.27,-2.37 5.26,-2.44 5.27,-2.52 5.26,-2.61 5.27,-2.69 5.26,-2.78 5.27,-2.98 5.26,-3.19 5.27,-3.38 5.26,-3.52 5.27,-3.59 5.26,-3.64 5.27,-3.62 5.26,-3.59 5.27,-3.51 5.26,-3.43 5.27,-3.35 5.26,-3.3 5.27,-3.28 5.26,-3.3 5.27,-3.35 5.26,-3.44 5.27,-3.57 5.26,-3.73 5.27,-3.99 5.26,-4.16 5.27,-3.97 5.26,-3.75 5.27,-3.83 5.27,-4.04 5.26,-4.11 5.27,-4.03 5.26,-3.92 5.27,-3.84 5.26,-3.89 5.27,-4.3 5.26,-4.58 5.27,-4.54 5.26,-4.33 5.27,-4.03 5.26,-3.76 5.27,-3.66 5.26,-3.66 5.27,-3.65 5.26,-3.6 5.27,-3.53 5.26,-3.42 5.27,-3.28 5.26,-3.1 5.27,-2.89 5.26,-2.66 5.27,-2.41 5.26,-2.09 5.27,-1.76 5.26,-1.4 5.27,-1.03 5.26,-0.64 5.27,-0.27 5.26,0.11 5.27,0.47 5.26,0.84 V 46.57 l -5.26,4.65 -5.27,4.51 -5.26,4.35 -5.27,4.19 -5.26,4.02 -5.27,3.85 -5.26,3.69 -5.27,3.53 -5.26,3.4 -5.27,3.29 -5.26,3.23 -5.27,3.2 -5.26,3.29 -5.27,3.43 -5.26,3.57 -5.27,3.69 -5.26,3.78 -5.27,3.84 -5.26,3.89 -5.27,3.91 -5.26,4.22 -5.27,4.69 -5.26,4.81 -5.27,4.68 -5.26,4.41 -5.27,4.09 -5.26,3.92 -5.27,3.88 -5.26,3.73 -5.27,3.52 -5.26,3.37 -5.27,3.33 -5.27,3.44 -5.26,3.32 -5.27,2.99 -5.26,2.83 -5.27,3.15 -5.26,3.49 -5.27,3.65 -5.26,3.78 -5.27,3.85 -5.26,3.89 -5.27,3.86 -5.26,3.79 -5.27,3.68 -5.26,3.54 -5.27,3.38 -5.26,3.22 -5.27,3.07 -5.26,2.94 -5.27,2.87 -5.26,2.81 -5.27,2.81 -5.26,2.83 -5.27,2.88 -5.26,2.94 -5.27,2.92 -5.26,2.91 -5.27,2.87 -5.26,2.83 -5.27,2.77 -5.26,2.7 -5.27,2.6 -5.26,2.5 -5.27,2.37 -5.26,2.21 -5.27,2.03 -5.26,1.82 -5.27,1.58 -5.26,1.32 -5.27,1.04 -5.26,0.73 -5.27,0.42 -5.26,0.12 -5.27,-0.18 -5.26,-0.48 -5.27,-0.76 -5.27,-1.03 -5.26,-1.29 z"
       style="fill:#999999;fill-opacity:0.32368174;fill-rule:nonzero;stroke:none"
       id="path312" /><path
       d="M 394.59,31.91 V 354.52"
       style="fill:none;stroke:#ebebeb;stroke-width:1.07;stroke-linecap:butt;stroke-linejoin:round;stroke-miterlimit:10;stroke-dasharray:none;stroke-opacity:1"
       id="path78" /><path
       d="m 290.95,203.7 c 0,1.07 0.88,1.95 1.96,1.95 1.07,0 1.95,-0.88 1.95,-1.95 0,-1.08 -0.88,-1.96 -1.95,-1.96 -1.08,0 -1.96,0.88 -1.96,1.96"
       style="fill:#ff0000;fill-opacity:1;fill-rule:nonzero;stroke:#ff0000;stroke-width:0.71;stroke-linecap:round;stroke-linejoin:round;stroke-miterlimit:10;stroke-dasharray:none;stroke-opacity:1"
       id="path80" /><path
       d="m 307.78,223.38 c 0,1.07 0.88,1.95 1.95,1.95 1.08,0 1.96,-0.88 1.96,-1.95 0,-1.08 -0.88,-1.96 -1.96,-1.96 -1.07,0 -1.95,0.88 -1.95,1.96"
       style="fill:#ff0000;fill-opacity:1;fill-rule:nonzero;stroke:#ff0000;stroke-width:0.71;stroke-linecap:round;stroke-linejoin:round;stroke-miterlimit:10;stroke-dasharray:none;stroke-opacity:1"
       id="path82" /><path
       d="m 302.17,231.85 c 0,1.07 0.88,1.95 1.96,1.95 1.07,0 1.95,-0.88 1.95,-1.95 0,-1.08 -0.88,-1.96 -1.95,-1.96 -1.08,0 -1.96,0.88 -1.96,1.96"
       style="fill:#ff0000;fill-opacity:1;fill-rule:nonzero;stroke:#ff0000;stroke-width:0.71;stroke-linecap:round;stroke-linejoin:round;stroke-miterlimit:10;stroke-dasharray:none;stroke-opacity:1"
       id="path84" /><path
       d="m 303.81,178 c 0,1.08 0.88,1.96 1.96,1.96 1.07,0 1.95,-0.88 1.95,-1.96 0,-1.07 -0.88,-1.95 -1.95,-1.95 -1.08,0 -1.96,0.88 -1.96,1.95"
       style="fill:#ff0000;fill-opacity:1;fill-rule:nonzero;stroke:#ff0000;stroke-width:0.71;stroke-linecap:round;stroke-linejoin:round;stroke-miterlimit:10;stroke-dasharray:none;stroke-opacity:1"
       id="path86" /><path
       d="m 337.83,194.13 c 0,1.07 0.88,1.95 1.96,1.95 1.07,0 1.95,-0.88 1.95,-1.95 0,-1.08 -0.88,-1.96 -1.95,-1.96 -1.08,0 -1.96,0.88 -1.96,1.96"
       style="fill:#ff0000;fill-opacity:1;fill-rule:nonzero;stroke:#ff0000;stroke-width:0.71;stroke-linecap:round;stroke-linejoin:round;stroke-miterlimit:10;stroke-dasharray:none;stroke-opacity:1"
       id="path88" /><path
       d="m 348.15,164.06 c 0,1.08 0.88,1.96 1.96,1.96 1.07,0 1.95,-0.88 1.95,-1.96 0,-1.07 -0.88,-1.95 -1.95,-1.95 -1.08,0 -1.96,0.88 -1.96,1.95"
       style="fill:#ff0000;fill-opacity:1;fill-rule:nonzero;stroke:#ff0000;stroke-width:0.71;stroke-linecap:round;stroke-linejoin:round;stroke-miterlimit:10;stroke-dasharray:none;stroke-opacity:1"
       id="path90" /><path
       d="m 370.18,155.32 c 0,1.07 0.88,1.95 1.95,1.95 1.08,0 1.96,-0.88 1.96,-1.95 0,-1.08 -0.88,-1.96 -1.96,-1.96 -1.07,0 -1.95,0.88 -1.95,1.96"
       style="fill:#ff0000;fill-opacity:1;fill-rule:nonzero;stroke:#ff0000;stroke-width:0.71;stroke-linecap:round;stroke-linejoin:round;stroke-miterlimit:10;stroke-dasharray:none;stroke-opacity:1"
       id="path92" /><path
       d="m 332.2,136.73 c 0,1.08 0.88,1.95 1.96,1.95 1.07,0 1.95,-0.87 1.95,-1.95 0,-1.08 -0.88,-1.95 -1.95,-1.95 -1.08,0 -1.96,0.87 -1.96,1.95"
       style="fill:#ff0000;fill-opacity:1;fill-rule:nonzero;stroke:#ff0000;stroke-width:0.71;stroke-linecap:round;stroke-linejoin:round;stroke-miterlimit:10;stroke-dasharray:none;stroke-opacity:1"
       id="path94" /><path
       d="m 373.93,149.3 c 0,1.08 0.88,1.96 1.95,1.96 1.08,0 1.96,-0.88 1.96,-1.96 0,-1.07 -0.88,-1.95 -1.96,-1.95 -1.07,0 -1.95,0.88 -1.95,1.95"
       style="fill:#ff0000;fill-opacity:1;fill-rule:nonzero;stroke:#ff0000;stroke-width:0.71;stroke-linecap:round;stroke-linejoin:round;stroke-miterlimit:10;stroke-dasharray:none;stroke-opacity:1"
       id="path96" /><path
       d="m 347.09,150.4 c 0,1.07 0.88,1.95 1.95,1.95 1.08,0 1.96,-0.88 1.96,-1.95 0,-1.08 -0.88,-1.96 -1.96,-1.96 -1.07,0 -1.95,0.88 -1.95,1.96"
       style="fill:#ff0000;fill-opacity:1;fill-rule:nonzero;stroke:#ff0000;stroke-width:0.71;stroke-linecap:round;stroke-linejoin:round;stroke-miterlimit:10;stroke-dasharray:none;stroke-opacity:1"
       id="path98" /><path
       d="m 402.95,132.63 c 0,1.08 0.88,1.95 1.96,1.95 1.07,0 1.95,-0.87 1.95,-1.95 0,-1.08 -0.88,-1.95 -1.95,-1.95 -1.08,0 -1.96,0.87 -1.96,1.95"
       style="fill:#ff0000;fill-opacity:1;fill-rule:nonzero;stroke:#ff0000;stroke-width:0.71;stroke-linecap:round;stroke-linejoin:round;stroke-miterlimit:10;stroke-dasharray:none;stroke-opacity:1"
       id="path100" /><path
       d="m 392.9,111.31 c 0,1.08 0.88,1.95 1.96,1.95 1.07,0 1.95,-0.87 1.95,-1.95 0,-1.08 -0.88,-1.95 -1.95,-1.95 -1.08,0 -1.96,0.87 -1.96,1.95"
       style="fill:#ff0000;fill-opacity:1;fill-rule:nonzero;stroke:#ff0000;stroke-width:0.71;stroke-linecap:round;stroke-linejoin:round;stroke-miterlimit:10;stroke-dasharray:none;stroke-opacity:1"
       id="path102" /><path
       d="m 404.23,96.55 c 0,1.08 0.88,1.95 1.95,1.95 1.08,0 1.96,-0.87 1.96,-1.95 0,-1.08 -0.88,-1.95 -1.96,-1.95 -1.07,0 -1.95,0.87 -1.95,1.95"
       style="fill:#ff0000;fill-opacity:1;fill-rule:nonzero;stroke:#ff0000;stroke-width:0.71;stroke-linecap:round;stroke-linejoin:round;stroke-miterlimit:10;stroke-dasharray:none;stroke-opacity:1"
       id="path104" /><path
       d="m 61.78,310.7 5.26,-0.91 5.27,-1 5.27,-1.07 5.26,-1.17 5.27,-1.26 5.26,-1.35 5.27,-1.44 5.26,-1.55 5.27,-1.65 5.26,-1.77 5.27,-1.87 5.26,-1.98 5.27,-2.08 5.26,-2.17 5.27,-2.26 5.26,-2.34 5.27,-2.42 5.26,-2.5 5.27,-2.57 5.26,-2.64 5.27,-2.7 5.26,-2.75 5.27,-2.81 5.26,-2.86 5.27,-2.93 5.26,-3.01 5.27,-3.1 5.26,-3.16 5.27,-3.23 5.26,-3.29 5.27,-3.35 5.26,-3.4 5.27,-3.44 5.26,-3.49 5.27,-3.51 5.26,-3.55 5.27,-3.57 5.26,-3.59 5.27,-3.61 5.26,-3.61 5.27,-3.61 5.26,-3.61 5.27,-3.57 5.26,-3.49 5.27,-3.48 5.26,-3.54 5.27,-3.63 5.27,-3.69 5.26,-3.73 5.27,-3.78 5.26,-3.82 5.27,-3.87 5.26,-3.9 5.27,-4.2 5.26,-4.49 5.27,-4.61 5.26,-4.57 5.27,-4.36 5.26,-3.99 5.27,-3.78 5.26,-3.78 5.27,-3.75 5.26,-3.69 5.27,-3.6 5.26,-3.5 5.27,-3.36 5.26,-3.19 5.27,-3.05 5.26,-2.94 5.27,-2.85 5.26,-2.75 5.27,-2.64 5.26,-2.54 5.27,-2.44 5.26,-2.34 5.27,-2.23 5.26,-2.12 5.27,-2.01 5.26,-1.91"
       style="fill:none;stroke:#cccccc;stroke-width:2.13;stroke-linecap:butt;stroke-linejoin:round;stroke-miterlimit:10;stroke-dasharray:none;stroke-opacity:1"
       id="path314" /><path
       d="m 433.23,91.9 c 0,1.08 0.88,1.96 1.96,1.96 1.07,0 1.95,-0.88 1.95,-1.96 0,-1.07 -0.88,-1.95 -1.95,-1.95 -1.08,0 -1.96,0.88 -1.96,1.95"
       style="fill:#ff0000;fill-opacity:1;fill-rule:nonzero;stroke:#ff0000;stroke-width:0.71;stroke-linecap:round;stroke-linejoin:round;stroke-miterlimit:10;stroke-dasharray:none;stroke-opacity:1"
       id="path106" /><path
       d="m 474.13,79.6 c 0,1.08 0.88,1.96 1.96,1.96 1.07,0 1.95,-0.88 1.95,-1.96 0,-1.07 -0.88,-1.95 -1.95,-1.95 -1.08,0 -1.96,0.88 -1.96,1.95"
       style="fill:#ff0000;fill-opacity:1;fill-rule:nonzero;stroke:#ff0000;stroke-width:0.71;stroke-linecap:round;stroke-linejoin:round;stroke-miterlimit:10;stroke-dasharray:none;stroke-opacity:1"
       id="path108" /><path
       d="m 475.77,83.7 c 0,1.08 0.88,1.96 1.95,1.96 1.08,0 1.96,-0.88 1.96,-1.96 0,-1.07 -0.88,-1.95 -1.96,-1.95 -1.07,0 -1.95,0.88 -1.95,1.95"
       style="fill:#ff0000;fill-opacity:1;fill-rule:nonzero;stroke:#ff0000;stroke-width:0.71;stroke-linecap:round;stroke-linejoin:round;stroke-miterlimit:10;stroke-dasharray:none;stroke-opacity:1"
       id="path110" /><path
       d="m 441.29,90.81 c 0,1.08 0.88,1.95 1.95,1.95 1.08,0 1.96,-0.87 1.96,-1.95 0,-1.07 -0.88,-1.95 -1.96,-1.95 -1.07,0 -1.95,0.88 -1.95,1.95"
       style="fill:#ff0000;fill-opacity:1;fill-rule:nonzero;stroke:#ff0000;stroke-width:0.71;stroke-linecap:round;stroke-linejoin:round;stroke-miterlimit:10;stroke-dasharray:none;stroke-opacity:1"
       id="path112" /><path
       d="m 413.22,85.62 c 0,1.07 0.88,1.95 1.95,1.95 1.08,0 1.96,-0.88 1.96,-1.95 0,-1.08 -0.88,-1.96 -1.96,-1.96 -1.07,0 -1.95,0.88 -1.95,1.96"
       style="fill:#ff0000;fill-opacity:1;fill-rule:nonzero;stroke:#ff0000;stroke-width:0.71;stroke-linecap:round;stroke-linejoin:round;stroke-miterlimit:10;stroke-dasharray:none;stroke-opacity:1"
       id="path114" /><path
       d="m 358.87,108.03 c 0,1.08 0.88,1.95 1.96,1.95 1.07,0 1.95,-0.87 1.95,-1.95 0,-1.08 -0.88,-1.95 -1.95,-1.95 -1.08,0 -1.96,0.87 -1.96,1.95"
       style="fill:#ff0000;fill-opacity:1;fill-rule:nonzero;stroke:#ff0000;stroke-width:0.71;stroke-linecap:round;stroke-linejoin:round;stroke-miterlimit:10;stroke-dasharray:none;stroke-opacity:1"
       id="path116" /><path
       d="m 345.32,130.44 c 0,1.08 0.88,1.96 1.96,1.96 1.07,0 1.95,-0.88 1.95,-1.96 0,-1.07 -0.88,-1.95 -1.95,-1.95 -1.08,0 -1.96,0.88 -1.96,1.95"
       style="fill:#ff0000;fill-opacity:1;fill-rule:nonzero;stroke:#ff0000;stroke-width:0.71;stroke-linecap:round;stroke-linejoin:round;stroke-miterlimit:10;stroke-dasharray:none;stroke-opacity:1"
       id="path118" /><path
       d="m 300.3,155.86 c 0,1.08 0.88,1.96 1.95,1.96 1.08,0 1.96,-0.88 1.96,-1.96 0,-1.07 -0.88,-1.95 -1.96,-1.95 -1.07,0 -1.95,0.88 -1.95,1.95"
       style="fill:#ff0000;fill-opacity:1;fill-rule:nonzero;stroke:#ff0000;stroke-width:0.71;stroke-linecap:round;stroke-linejoin:round;stroke-miterlimit:10;stroke-dasharray:none;stroke-opacity:1"
       id="path120" /><path
       d="m 318.7,196.04 c 0,1.08 0.88,1.96 1.96,1.96 1.07,0 1.95,-0.88 1.95,-1.96 0,-1.07 -0.88,-1.95 -1.95,-1.95 -1.08,0 -1.96,0.88 -1.96,1.95"
       style="fill:#ff0000;fill-opacity:1;fill-rule:nonzero;stroke:#ff0000;stroke-width:0.71;stroke-linecap:round;stroke-linejoin:round;stroke-miterlimit:10;stroke-dasharray:none;stroke-opacity:1"
       id="path122" /><path
       d="m 312.21,167.34 c 0,1.08 0.88,1.96 1.95,1.96 1.08,0 1.96,-0.88 1.96,-1.96 0,-1.07 -0.88,-1.95 -1.96,-1.95 -1.07,0 -1.95,0.88 -1.95,1.95"
       style="fill:#ff0000;fill-opacity:1;fill-rule:nonzero;stroke:#ff0000;stroke-width:0.71;stroke-linecap:round;stroke-linejoin:round;stroke-miterlimit:10;stroke-dasharray:none;stroke-opacity:1"
       id="path124" /><path
       d="m 281.86,180.74 c 0,1.07 0.88,1.95 1.96,1.95 1.07,0 1.95,-0.88 1.95,-1.95 0,-1.08 -0.88,-1.96 -1.95,-1.96 -1.08,0 -1.96,0.88 -1.96,1.96"
       style="fill:#ff0000;fill-opacity:1;fill-rule:nonzero;stroke:#ff0000;stroke-width:0.71;stroke-linecap:round;stroke-linejoin:round;stroke-miterlimit:10;stroke-dasharray:none;stroke-opacity:1"
       id="path126" /><path
       d="m 241.38,191.12 c 0,1.08 0.88,1.96 1.96,1.96 1.07,0 1.95,-0.88 1.95,-1.96 0,-1.07 -0.88,-1.95 -1.95,-1.95 -1.08,0 -1.96,0.88 -1.96,1.95"
       style="fill:#ff0000;fill-opacity:1;fill-rule:nonzero;stroke:#ff0000;stroke-width:0.71;stroke-linecap:round;stroke-linejoin:round;stroke-miterlimit:10;stroke-dasharray:none;stroke-opacity:1"
       id="path128" /><path
       d="m 175.09,231.03 c 0,1.07 0.88,1.95 1.95,1.95 1.08,0 1.96,-0.88 1.96,-1.95 0,-1.08 -0.88,-1.96 -1.96,-1.96 -1.07,0 -1.95,0.88 -1.95,1.96"
       style="fill:#ff0000;fill-opacity:1;fill-rule:nonzero;stroke:#ff0000;stroke-width:0.71;stroke-linecap:round;stroke-linejoin:round;stroke-miterlimit:10;stroke-dasharray:none;stroke-opacity:1"
       id="path130" /><path
       d="m 225.32,252.35 c 0,1.07 0.88,1.95 1.95,1.95 1.08,0 1.96,-0.88 1.96,-1.95 0,-1.08 -0.88,-1.96 -1.96,-1.96 -1.07,0 -1.95,0.88 -1.95,1.96"
       style="fill:#ff0000;fill-opacity:1;fill-rule:nonzero;stroke:#ff0000;stroke-width:0.71;stroke-linecap:round;stroke-linejoin:round;stroke-miterlimit:10;stroke-dasharray:none;stroke-opacity:1"
       id="path132" /><path
       d="m 234.32,247.98 c 0,1.07 0.88,1.95 1.95,1.95 1.08,0 1.96,-0.88 1.96,-1.95 0,-1.08 -0.88,-1.96 -1.96,-1.96 -1.07,0 -1.95,0.88 -1.95,1.96"
       style="fill:#ff0000;fill-opacity:1;fill-rule:nonzero;stroke:#ff0000;stroke-width:0.71;stroke-linecap:round;stroke-linejoin:round;stroke-miterlimit:10;stroke-dasharray:none;stroke-opacity:1"
       id="path134" /><path
       d="m 210.54,240.6 c 0,1.07 0.88,1.95 1.96,1.95 1.07,0 1.95,-0.88 1.95,-1.95 0,-1.08 -0.88,-1.96 -1.95,-1.96 -1.08,0 -1.96,0.88 -1.96,1.96"
       style="fill:#ff0000;fill-opacity:1;fill-rule:nonzero;stroke:#ff0000;stroke-width:0.71;stroke-linecap:round;stroke-linejoin:round;stroke-miterlimit:10;stroke-dasharray:none;stroke-opacity:1"
       id="path136" /><path
       d="m 185,287.88 c 0,1.08 0.88,1.96 1.96,1.96 1.07,0 1.95,-0.88 1.95,-1.96 0,-1.07 -0.88,-1.95 -1.95,-1.95 -1.08,0 -1.96,0.88 -1.96,1.95"
       style="fill:#ff0000;fill-opacity:1;fill-rule:nonzero;stroke:#ff0000;stroke-width:0.71;stroke-linecap:round;stroke-linejoin:round;stroke-miterlimit:10;stroke-dasharray:none;stroke-opacity:1"
       id="path138" /><path
       d="m 181.94,296.36 c 0,1.07 0.88,1.95 1.96,1.95 1.07,0 1.95,-0.88 1.95,-1.95 0,-1.08 -0.88,-1.96 -1.95,-1.96 -1.08,0 -1.96,0.88 -1.96,1.96"
       style="fill:#ff0000;fill-opacity:1;fill-rule:nonzero;stroke:#ff0000;stroke-width:0.71;stroke-linecap:round;stroke-linejoin:round;stroke-miterlimit:10;stroke-dasharray:none;stroke-opacity:1"
       id="path140" /><path
       d="m 161.76,250.98 c 0,1.08 0.88,1.96 1.96,1.96 1.07,0 1.95,-0.88 1.95,-1.96 0,-1.07 -0.88,-1.95 -1.95,-1.95 -1.08,0 -1.96,0.88 -1.96,1.95"
       style="fill:#ff0000;fill-opacity:1;fill-rule:nonzero;stroke:#ff0000;stroke-width:0.71;stroke-linecap:round;stroke-linejoin:round;stroke-miterlimit:10;stroke-dasharray:none;stroke-opacity:1"
       id="path142" /><path
       d="m 102.02,288.43 c 0,1.07 0.88,1.95 1.96,1.95 1.07,0 1.95,-0.88 1.95,-1.95 0,-1.08 -0.88,-1.96 -1.95,-1.96 -1.08,0 -1.96,0.88 -1.96,1.96"
       style="fill:#ff0000;fill-opacity:1;fill-rule:nonzero;stroke:#ff0000;stroke-width:0.71;stroke-linecap:round;stroke-linejoin:round;stroke-miterlimit:10;stroke-dasharray:none;stroke-opacity:1"
       id="path144" /><path
       d="m 59.83,299.09 c 0,1.07 0.87,1.95 1.95,1.95 1.07,0 1.95,-0.88 1.95,-1.95 0,-1.08 -0.88,-1.96 -1.95,-1.96 -1.08,0 -1.95,0.88 -1.95,1.96"
       style="fill:#ff0000;fill-opacity:1;fill-rule:nonzero;stroke:#ff0000;stroke-width:0.71;stroke-linecap:round;stroke-linejoin:round;stroke-miterlimit:10;stroke-dasharray:none;stroke-opacity:1"
       id="path146" /><path
       d="m 70.97,310.57 c 0,1.07 0.88,1.95 1.96,1.95 1.07,0 1.95,-0.88 1.95,-1.95 0,-1.08 -0.88,-1.96 -1.95,-1.96 -1.08,0 -1.96,0.88 -1.96,1.96"
       style="fill:#ff0000;fill-opacity:1;fill-rule:nonzero;stroke:#ff0000;stroke-width:0.71;stroke-linecap:round;stroke-linejoin:round;stroke-miterlimit:10;stroke-dasharray:none;stroke-opacity:1"
       id="path148" /><path
       d="m 151.28,314.94 c 0,1.08 0.88,1.96 1.96,1.96 1.07,0 1.95,-0.88 1.95,-1.96 0,-1.07 -0.88,-1.95 -1.95,-1.95 -1.08,0 -1.96,0.88 -1.96,1.95"
       style="fill:#ff0000;fill-opacity:1;fill-rule:nonzero;stroke:#ff0000;stroke-width:0.71;stroke-linecap:round;stroke-linejoin:round;stroke-miterlimit:10;stroke-dasharray:none;stroke-opacity:1"
       id="path150" /><path
       d="m 96.05,315.22 c 0,1.07 0.88,1.95 1.96,1.95 1.07,0 1.95,-0.88 1.95,-1.95 0,-1.08 -0.88,-1.96 -1.95,-1.96 -1.08,0 -1.96,0.88 -1.96,1.96"
       style="fill:#ff0000;fill-opacity:1;fill-rule:nonzero;stroke:#ff0000;stroke-width:0.71;stroke-linecap:round;stroke-linejoin:round;stroke-miterlimit:10;stroke-dasharray:none;stroke-opacity:1"
       id="path152" /><path
       d="m 85.38,314.4 c 0,1.07 0.88,1.95 1.95,1.95 1.08,0 1.96,-0.88 1.96,-1.95 0,-1.08 -0.88,-1.96 -1.96,-1.96 -1.07,0 -1.95,0.88 -1.95,1.96"
       style="fill:#ff0000;fill-opacity:1;fill-rule:nonzero;stroke:#ff0000;stroke-width:0.71;stroke-linecap:round;stroke-linejoin:round;stroke-miterlimit:10;stroke-dasharray:none;stroke-opacity:1"
       id="path154" /><path
       d="m 292.91,203.7 16.82,19.68 -5.6,8.47 1.64,-53.85 34.02,16.13 10.32,-30.07 22.02,-8.74 -37.97,-18.59 41.72,12.57 -26.84,1.1 55.87,-17.77 -10.05,-21.32 11.32,-14.76 29.01,-4.65 40.9,-12.3 1.63,4.1 -34.48,7.11 -28.07,-5.19 -54.34,22.41 -13.55,22.41 -45.03,25.42 18.41,40.18 -6.5,-28.7 -30.34,13.4 -40.48,10.38 -66.3,39.91 50.23,21.32 9,-4.37 -23.77,-7.38 -25.54,47.28 -3.06,8.48 -20.18,-45.38 -59.74,37.45 -42.2,10.66 11.15,11.48 80.31,4.37 -55.23,0.28 -10.68,-0.82"
       style="fill:none;stroke:#ff0000;stroke-width:1.07;stroke-linecap:butt;stroke-linejoin:round;stroke-miterlimit:10;stroke-dasharray:none;stroke-opacity:1"
       id="path156" /><text
       transform="scale(1,-1)"
       style="font-variant:normal;font-weight:normal;font-size:9px;font-family:Helvetica;-inkscape-font-specification:Helvetica;writing-mode:lr-tb;fill:#000000;fill-opacity:1;fill-rule:nonzero;stroke:none"
       id="text162"
       x="276.82608"
       y="-207.24091"><tspan
         x="276.82608 281.83008 286.83408 291.83807"
         y="-207.24091"
         sodipodi:role="line"
         id="tspan160">1947</tspan></text><text
       transform="scale(1,-1)"
       style="font-variant:normal;font-weight:normal;font-size:9px;font-family:Helvetica;-inkscape-font-specification:Helvetica;writing-mode:lr-tb;fill:#000000;fill-opacity:1;fill-rule:nonzero;stroke:none"
       id="text166"
       x="311.63953"
       y="-220.51881"><tspan
         x="311.63953 316.64352 321.64752 326.65152"
         y="-220.51881"
         sodipodi:role="line"
         id="tspan164">1949</tspan></text><text
       transform="scale(1,-1)"
       style="font-variant:normal;font-weight:normal;font-size:9px;font-family:Helvetica;-inkscape-font-specification:Helvetica;writing-mode:lr-tb;fill:#000000;fill-opacity:1;fill-rule:nonzero;stroke:none"
       id="text170"
       x="294.12"
       y="-236.55"><tspan
         x="294.12 299.12399 304.12799 309.13199"
         y="-236.55"
         sodipodi:role="line"
         id="tspan168">1951</tspan></text><text
       transform="scale(1,-1)"
       style="font-variant:normal;font-weight:normal;font-size:9px;font-family:Helvetica;-inkscape-font-specification:Helvetica;writing-mode:lr-tb;fill:#000000;fill-opacity:1;fill-rule:nonzero;stroke:none"
       id="text174"
       x="290.37607"
       y="-181.31549"><tspan
         x="290.37607 295.38007 300.38406 305.38806"
         y="-181.31549"
         sodipodi:role="line"
         id="tspan172">1953</tspan></text><text
       transform="scale(1,-1)"
       style="font-variant:normal;font-weight:normal;font-size:9px;font-family:Helvetica;-inkscape-font-specification:Helvetica;writing-mode:lr-tb;fill:#000000;fill-opacity:1;fill-rule:nonzero;stroke:none"
       id="text178"
       x="340.36221"
       y="-196.12334"><tspan
         x="340.36221 345.36621 350.37021 355.37421"
         y="-196.12334"
         sodipodi:role="line"
         id="tspan176">1955</tspan></text><text
       transform="scale(1,-1)"
       style="font-variant:normal;font-weight:normal;font-size:9px;font-family:Helvetica;-inkscape-font-specification:Helvetica;writing-mode:lr-tb;fill:#000000;fill-opacity:1;fill-rule:nonzero;stroke:none"
       id="text182"
       x="349.51822"
       y="-167.50288"><tspan
         x="349.51822 354.52222 359.52621 364.53021"
         y="-167.50288"
         sodipodi:role="line"
         id="tspan180">1957</tspan></text><text
       transform="scale(1,-1)"
       style="font-variant:normal;font-weight:normal;font-size:9px;font-family:Helvetica;-inkscape-font-specification:Helvetica;writing-mode:lr-tb;fill:#000000;fill-opacity:1;fill-rule:nonzero;stroke:none"
       id="text186"
       x="368.37256"
       y="-159.23175"><tspan
         x="368.37256 373.37656 378.38055 383.38455"
         y="-159.23175"
         sodipodi:role="line"
         id="tspan184">1959</tspan></text><text
       transform="scale(1,-1)"
       style="font-variant:normal;font-weight:normal;font-size:9px;font-family:Helvetica;-inkscape-font-specification:Helvetica;writing-mode:lr-tb;fill:#000000;fill-opacity:1;fill-rule:nonzero;stroke:none"
       id="text190"
       x="311.96927"
       y="-130.49924"><tspan
         x="311.96927 316.97327 321.97726 326.98126"
         y="-130.49924"
         sodipodi:role="line"
         id="tspan188">1961</tspan></text><text
       transform="scale(1,-1)"
       style="font-variant:normal;font-weight:normal;font-size:9px;font-family:Helvetica;-inkscape-font-specification:Helvetica;writing-mode:lr-tb;fill:#000000;fill-opacity:1;fill-rule:nonzero;stroke:none"
       id="text194"
       x="377.6734"
       y="-150.03423"><tspan
         x="377.6734 382.6774 387.6814 392.68539"
         y="-150.03423"
         sodipodi:role="line"
         id="tspan192">1963</tspan></text><text
       transform="scale(1,-1)"
       style="font-variant:normal;font-weight:normal;font-size:9px;font-family:Helvetica;-inkscape-font-specification:Helvetica;writing-mode:lr-tb;fill:#000000;fill-opacity:1;fill-rule:nonzero;stroke:none"
       id="text198"
       x="335.23593"
       y="-153.31015"><tspan
         x="335.23593 340.23993 345.24393 350.24792"
         y="-153.31015"
         sodipodi:role="line"
         id="tspan196">1965</tspan></text><text
       transform="scale(1,-1)"
       style="font-variant:normal;font-weight:normal;font-size:9px;font-family:Helvetica;-inkscape-font-specification:Helvetica;writing-mode:lr-tb;fill:#000000;fill-opacity:1;fill-rule:nonzero;stroke:none"
       id="text202"
       x="394.89999"
       y="-137.2"><tspan
         x="394.89999 399.90399 404.90799 409.91199"
         y="-137.2"
         sodipodi:role="line"
         id="tspan200">1967</tspan></text><text
       transform="scale(1,-1)"
       style="font-variant:normal;font-weight:normal;font-size:9px;font-family:Helvetica;-inkscape-font-specification:Helvetica;writing-mode:lr-tb;fill:#000000;fill-opacity:1;fill-rule:nonzero;stroke:none"
       id="text206"
       x="398.04541"
       y="-112.48785"><tspan
         x="398.04541 403.04941 408.05341 413.0574"
         y="-112.48785"
         sodipodi:role="line"
         id="tspan204">1969</tspan></text><text
       transform="scale(1,-1)"
       style="font-variant:normal;font-weight:normal;font-size:9px;font-family:Helvetica;-inkscape-font-specification:Helvetica;writing-mode:lr-tb;fill:#000000;fill-opacity:1;fill-rule:nonzero;stroke:none"
       id="text210"
       x="405.43494"
       y="-99.107666"><tspan
         x="405.43494 410.43893 415.44293 420.44693"
         y="-99.107666"
         sodipodi:role="line"
         id="tspan208">1971</tspan></text><text
       transform="scale(1,-1)"
       style="font-variant:normal;font-weight:normal;font-size:9px;font-family:Helvetica;-inkscape-font-specification:Helvetica;writing-mode:lr-tb;fill:#000000;fill-opacity:1;fill-rule:nonzero;stroke:none"
       id="text214"
       x="433.51526"
       y="-95.313705"><tspan
         x="433.51526 438.51926 443.52325 448.52725"
         y="-95.313705"
         sodipodi:role="line"
         id="tspan212">1973</tspan></text><text
       transform="scale(1,-1)"
       style="font-variant:normal;font-weight:normal;font-size:9px;font-family:Helvetica;-inkscape-font-specification:Helvetica;writing-mode:lr-tb;fill:#000000;fill-opacity:1;fill-rule:nonzero;stroke:none"
       id="text218"
       x="466.07999"
       y="-68.389999"><tspan
         x="466.07999 471.08401 476.08801 481.09201"
         y="-68.389999"
         sodipodi:role="line"
         id="tspan216">1975</tspan></text><text
       transform="scale(1,-1)"
       style="font-variant:normal;font-weight:normal;font-size:9px;font-family:Helvetica;-inkscape-font-specification:Helvetica;writing-mode:lr-tb;fill:#000000;fill-opacity:1;fill-rule:nonzero;stroke:none"
       id="text222"
       x="467.72"
       y="-88.550003"><tspan
         x="467.72 472.724 477.728 482.73199"
         y="-88.550003"
         sodipodi:role="line"
         id="tspan220">1977</tspan></text><text
       transform="scale(1,-1)"
       style="font-variant:normal;font-weight:normal;font-size:9px;font-family:Helvetica;-inkscape-font-specification:Helvetica;writing-mode:lr-tb;fill:#000000;fill-opacity:1;fill-rule:nonzero;stroke:none"
       id="text226"
       x="433.23001"
       y="-79.779999"><tspan
         x="433.23001 438.23401 443.23801 448.242"
         y="-79.779999"
         sodipodi:role="line"
         id="tspan224">1979</tspan></text><text
       transform="scale(1,-1)"
       style="font-variant:normal;font-weight:normal;font-size:9px;font-family:Helvetica;-inkscape-font-specification:Helvetica;writing-mode:lr-tb;fill:#000000;fill-opacity:1;fill-rule:nonzero;stroke:none"
       id="text230"
       x="405.17001"
       y="-74.400002"><tspan
         x="405.17001 410.17401 415.17801 420.18201"
         y="-74.400002"
         sodipodi:role="line"
         id="tspan228">1981</tspan></text><text
       transform="scale(1,-1)"
       style="font-variant:normal;font-weight:normal;font-size:9px;font-family:Helvetica;-inkscape-font-specification:Helvetica;writing-mode:lr-tb;fill:#000000;fill-opacity:1;fill-rule:nonzero;stroke:none"
       id="text234"
       x="338.91351"
       y="-101.09336"><tspan
         x="338.91351 343.91751 348.92151 353.92551"
         y="-101.09336"
         sodipodi:role="line"
         id="tspan232">1983</tspan></text><text
       transform="scale(1,-1)"
       style="font-variant:normal;font-weight:normal;font-size:9px;font-family:Helvetica;-inkscape-font-specification:Helvetica;writing-mode:lr-tb;fill:#000000;fill-opacity:1;fill-rule:nonzero;stroke:none"
       id="text238"
       x="327.18549"
       y="-120.80601"><tspan
         x="327.18549 332.18948 337.19351 342.19751"
         y="-120.80601"
         sodipodi:role="line"
         id="tspan236">1985</tspan></text><text
       transform="scale(1,-1)"
       style="font-variant:normal;font-weight:normal;font-size:9px;font-family:Helvetica;-inkscape-font-specification:Helvetica;writing-mode:lr-tb;fill:#000000;fill-opacity:1;fill-rule:nonzero;stroke:none"
       id="text242"
       x="280.58649"
       y="-146.37236"><tspan
         x="280.58649 285.59048 290.59448 295.59848"
         y="-146.37236"
         sodipodi:role="line"
         id="tspan240">1987</tspan></text><text
       transform="scale(1,-1)"
       style="font-variant:normal;font-weight:normal;font-size:9px;font-family:Helvetica;-inkscape-font-specification:Helvetica;writing-mode:lr-tb;fill:#000000;fill-opacity:1;fill-rule:nonzero;stroke:none"
       id="text246"
       x="310.64999"
       y="-200.87"><tspan
         x="310.64999 315.65399 320.65799 325.66199"
         y="-200.87"
         sodipodi:role="line"
         id="tspan244">1989</tspan></text><text
       transform="scale(1,-1)"
       style="font-variant:normal;font-weight:normal;font-size:9px;font-family:Helvetica;-inkscape-font-specification:Helvetica;writing-mode:lr-tb;fill:#000000;fill-opacity:1;fill-rule:nonzero;stroke:none"
       id="text250"
       x="310.07437"
       y="-157.85149"><tspan
         x="310.07437 315.07837 320.08237 325.08636"
         y="-157.85149"
         sodipodi:role="line"
         id="tspan248">1991</tspan></text><text
       transform="scale(1,-1)"
       style="font-variant:normal;font-weight:normal;font-size:9px;font-family:Helvetica;-inkscape-font-specification:Helvetica;writing-mode:lr-tb;fill:#000000;fill-opacity:1;fill-rule:nonzero;stroke:none"
       id="text254"
       x="273.81"
       y="-169.63"><tspan
         x="273.81 278.814 283.81799 288.82199"
         y="-169.63"
         sodipodi:role="line"
         id="tspan252">1993</tspan></text><text
       transform="scale(1,-1)"
       style="font-variant:normal;font-weight:normal;font-size:9px;font-family:Helvetica;-inkscape-font-specification:Helvetica;writing-mode:lr-tb;fill:#000000;fill-opacity:1;fill-rule:nonzero;stroke:none"
       id="text258"
       x="240.77864"
       y="-194.47913"><tspan
         x="240.77864 245.78264 250.78664 255.79063"
         y="-194.47913"
         sodipodi:role="line"
         id="tspan256">1995</tspan></text><text
       transform="scale(1,-1)"
       style="font-variant:normal;font-weight:normal;font-size:9px;font-family:Helvetica;-inkscape-font-specification:Helvetica;writing-mode:lr-tb;fill:#000000;fill-opacity:1;fill-rule:nonzero;stroke:none"
       id="text262"
       x="158.24471"
       y="-221.0797"><tspan
         x="158.24471 163.2487 168.2527 173.25671"
         y="-221.0797"
         sodipodi:role="line"
         id="tspan260">1997</tspan></text><text
       transform="scale(1,-1)"
       style="font-variant:normal;font-weight:normal;font-size:9px;font-family:Helvetica;-inkscape-font-specification:Helvetica;writing-mode:lr-tb;fill:#000000;fill-opacity:1;fill-rule:nonzero;stroke:none"
       id="text266"
       x="225.1936"
       y="-255.84113"><tspan
         x="225.1936 230.19762 235.20161 240.20561"
         y="-255.84113"
         sodipodi:role="line"
         id="tspan264">1999</tspan></text><text
       transform="scale(1,-1)"
       style="font-variant:normal;font-weight:normal;font-size:9px;font-family:Helvetica;-inkscape-font-specification:Helvetica;writing-mode:lr-tb;fill:#000000;fill-opacity:1;fill-rule:nonzero;stroke:none"
       id="text270"
       x="239.1806"
       y="-244.55722"><tspan
         x="239.1806 244.1846 249.1886 254.1926"
         y="-244.55722"
         sodipodi:role="line"
         id="tspan268">2001</tspan></text><text
       transform="scale(1,-1)"
       style="font-variant:normal;font-weight:normal;font-size:9px;font-family:Helvetica;-inkscape-font-specification:Helvetica;writing-mode:lr-tb;fill:#000000;fill-opacity:1;fill-rule:nonzero;stroke:none"
       id="text274"
       x="202.5423"
       y="-231.43257"><tspan
         x="202.5423 207.5463 212.55029 217.55429"
         y="-231.43257"
         sodipodi:role="line"
         id="tspan272">2003</tspan></text><text
       transform="scale(1,-1)"
       style="font-variant:normal;font-weight:normal;font-size:9px;font-family:Helvetica;-inkscape-font-specification:Helvetica;writing-mode:lr-tb;fill:#000000;fill-opacity:1;fill-rule:nonzero;stroke:none"
       id="text278"
       x="191.34866"
       y="-288.44009"><tspan
         x="191.34866 196.35266 201.35667 206.36067"
         y="-288.44009"
         sodipodi:role="line"
         id="tspan276">2005</tspan></text><text
       transform="scale(1,-1)"
       style="font-variant:normal;font-weight:normal;font-size:9px;font-family:Helvetica;-inkscape-font-specification:Helvetica;writing-mode:lr-tb;fill:#000000;fill-opacity:1;fill-rule:nonzero;stroke:none"
       id="text282"
       x="173.89"
       y="-301.20001"><tspan
         x="173.89 178.894 183.89799 188.90199"
         y="-301.20001"
         sodipodi:role="line"
         id="tspan280">2007</tspan></text><text
       transform="scale(1,-1)"
       style="font-variant:normal;font-weight:normal;font-size:9px;font-family:Helvetica;-inkscape-font-specification:Helvetica;writing-mode:lr-tb;fill:#000000;fill-opacity:1;fill-rule:nonzero;stroke:none"
       id="text286"
       x="153.71001"
       y="-239.95"><tspan
         x="153.71001 158.714 163.718 168.722"
         y="-239.95"
         sodipodi:role="line"
         id="tspan284">2009</tspan></text><text
       transform="scale(1,-1)"
       style="font-variant:normal;font-weight:normal;font-size:9px;font-family:Helvetica;-inkscape-font-specification:Helvetica;writing-mode:lr-tb;fill:#000000;fill-opacity:1;fill-rule:nonzero;stroke:none"
       id="text290"
       x="93.970001"
       y="-292.92001"><tspan
         x="93.970001 98.973999 103.978 108.982"
         y="-292.92001"
         sodipodi:role="line"
         id="tspan288">2011</tspan></text><text
       transform="scale(1,-1)"
       style="font-variant:normal;font-weight:normal;font-size:9px;font-family:Helvetica;-inkscape-font-specification:Helvetica;writing-mode:lr-tb;fill:#000000;fill-opacity:1;fill-rule:nonzero;stroke:none"
       id="text294"
       x="46.63179"
       y="-289.19193"><tspan
         x="46.63179 51.635792 56.63979 61.643787"
         y="-289.19193"
         sodipodi:role="line"
         id="tspan292">2013</tspan></text><text
       transform="scale(1,-1)"
       style="font-variant:normal;font-weight:normal;font-size:9px;font-family:Helvetica;-inkscape-font-specification:Helvetica;writing-mode:lr-tb;fill:#000000;fill-opacity:1;fill-rule:nonzero;stroke:none"
       id="text298"
       x="51.548752"
       y="-311.96179"><tspan
         x="51.548752 56.552757 61.556755 66.560753"
         y="-311.96179"
         sodipodi:role="line"
         id="tspan296">2015</tspan></text><text
       transform="scale(1,-1)"
       style="font-variant:normal;font-weight:normal;font-size:9px;font-family:Helvetica;-inkscape-font-specification:Helvetica;writing-mode:lr-tb;fill:#000000;fill-opacity:1;fill-rule:nonzero;stroke:none"
       id="text302"
       x="143.23"
       y="-319.51999"><tspan
         x="143.23 148.23399 153.23801 158.242"
         y="-319.51999"
         sodipodi:role="line"
         id="tspan300">2017</tspan></text><text
       transform="scale(1,-1)"
       style="font-variant:normal;font-weight:normal;font-size:9px;font-family:Helvetica;-inkscape-font-specification:Helvetica;writing-mode:lr-tb;fill:#000000;fill-opacity:1;fill-rule:nonzero;stroke:none"
       id="text306"
       x="97.061699"
       y="-318.13721"><tspan
         x="97.061699 102.0657 107.0697 112.0737"
         y="-318.13721"
         sodipodi:role="line"
         id="tspan304">2019</tspan></text><text
       transform="scale(1,-1)"
       style="font-variant:normal;font-weight:normal;font-size:9px;font-family:Helvetica;-inkscape-font-specification:Helvetica;writing-mode:lr-tb;fill:#000000;fill-opacity:1;fill-rule:nonzero;stroke:none"
       id="text310"
       x="73.609482"
       y="-317.19565"><tspan
         x="73.609482 78.61348 83.617485 88.621483"
         y="-317.19565"
         sodipodi:role="line"
         id="tspan308">2021</tspan></text><path
       d="M 40.98,31.91 H 498.52 V 354.52 H 40.98 Z"
       style="fill:none;stroke:#333333;stroke-width:1.07;stroke-linecap:round;stroke-linejoin:round;stroke-miterlimit:10;stroke-dasharray:none;stroke-opacity:1"
       id="path316" /><g
       id="g318" /><g
       id="g320" /><g
       id="g322" /><g
       id="g324" /><g
       id="g326" /><g
       id="g328" /><g
       id="g330" /><g
       id="g332" /><g
       id="g334" /><g
       id="g336" /><g
       id="g338" /><g
       id="g340" /><g
       id="g342" /><g
       id="g344" /><g
       id="g346" /><g
       id="g348"
       style="fill:#000000"><text
         transform="matrix(1,0,0,-1,18.54,37.01)"
         style="font-variant:normal;font-weight:normal;font-size:9px;font-family:Helvetica;-inkscape-font-specification:Helvetica;writing-mode:lr-tb;fill:#000000;fill-opacity:1;fill-rule:nonzero;stroke:none"
         id="text352"><tspan
           x="0 5.0040002 7.506 12.51"
           y="0"
           sodipodi:role="line"
           id="tspan350">0.09</tspan></text><text
         transform="matrix(1,0,0,-1,18.54,119.01)"
         style="font-variant:normal;font-weight:normal;font-size:9px;font-family:Helvetica;-inkscape-font-specification:Helvetica;writing-mode:lr-tb;fill:#000000;fill-opacity:1;fill-rule:nonzero;stroke:none"
         id="text356"><tspan
           x="0 5.0040002 7.506 12.51"
           y="0"
           sodipodi:role="line"
           id="tspan354">0.12</tspan></text><text
         transform="matrix(1,0,0,-1,18.54,201.01)"
         style="font-variant:normal;font-weight:normal;font-size:9px;font-family:Helvetica;-inkscape-font-specification:Helvetica;writing-mode:lr-tb;fill:#000000;fill-opacity:1;fill-rule:nonzero;stroke:none"
         id="text360"><tspan
           x="0 5.0040002 7.506 12.51"
           y="0"
           sodipodi:role="line"
           id="tspan358">0.15</tspan></text><text
         transform="matrix(1,0,0,-1,18.54,283.01)"
         style="font-variant:normal;font-weight:normal;font-size:9px;font-family:Helvetica;-inkscape-font-specification:Helvetica;writing-mode:lr-tb;fill:#000000;fill-opacity:1;fill-rule:nonzero;stroke:none"
         id="text364"><tspan
           x="0 5.0040002 7.506 12.51"
           y="0"
           sodipodi:role="line"
           id="tspan362">0.18</tspan></text></g><g
       id="g366" /><g
       id="g368" /><g
       id="g370"><path
         d="m 38.24,40.24 h 2.74"
         style="fill:none;stroke:#333333;stroke-width:1.07;stroke-linecap:butt;stroke-linejoin:round;stroke-miterlimit:10;stroke-dasharray:none;stroke-opacity:1"
         id="path372" /><path
         d="m 38.24,122.24 h 2.74"
         style="fill:none;stroke:#333333;stroke-width:1.07;stroke-linecap:butt;stroke-linejoin:round;stroke-miterlimit:10;stroke-dasharray:none;stroke-opacity:1"
         id="path374" /><path
         d="m 38.24,204.24 h 2.74"
         style="fill:none;stroke:#333333;stroke-width:1.07;stroke-linecap:butt;stroke-linejoin:round;stroke-miterlimit:10;stroke-dasharray:none;stroke-opacity:1"
         id="path376" /><path
         d="m 38.24,286.24 h 2.74"
         style="fill:none;stroke:#333333;stroke-width:1.07;stroke-linecap:butt;stroke-linejoin:round;stroke-miterlimit:10;stroke-dasharray:none;stroke-opacity:1"
         id="path378" /></g><g
       id="g380" /><g
       id="g382" /><g
       id="g384" /><g
       id="g386" /><g
       id="g388" /><g
       id="g390" /><g
       id="g392" /><g
       id="g394" /><g
       id="g396" /><g
       id="g398" /><g
       id="g400"><path
         d="m 79.37,29.17 v 2.74"
         style="fill:none;stroke:#333333;stroke-width:1.07;stroke-linecap:butt;stroke-linejoin:round;stroke-miterlimit:10;stroke-dasharray:none;stroke-opacity:1"
         id="path402" /><path
         d="m 184.44,29.17 v 2.74"
         style="fill:none;stroke:#333333;stroke-width:1.07;stroke-linecap:butt;stroke-linejoin:round;stroke-miterlimit:10;stroke-dasharray:none;stroke-opacity:1"
         id="path404" /><path
         d="m 289.52,29.17 v 2.74"
         style="fill:none;stroke:#333333;stroke-width:1.07;stroke-linecap:butt;stroke-linejoin:round;stroke-miterlimit:10;stroke-dasharray:none;stroke-opacity:1"
         id="path406" /><path
         d="m 394.59,29.17 v 2.74"
         style="fill:none;stroke:#333333;stroke-width:1.07;stroke-linecap:butt;stroke-linejoin:round;stroke-miterlimit:10;stroke-dasharray:none;stroke-opacity:1"
         id="path408" /></g><g
       id="g410" /><g
       id="g412"><text
         transform="matrix(1,0,0,-1,70.49,20.52)"
         style="font-variant:normal;font-weight:normal;font-size:9px;font-family:Helvetica;-inkscape-font-specification:Helvetica;writing-mode:lr-tb;fill:#000000;fill-opacity:1;fill-rule:nonzero;stroke:none"
         id="text416"><tspan
           x="0 5.256 10.26 12.762"
           y="0"
           sodipodi:role="line"
           id="tspan414">−0.4</tspan></text><text
         transform="matrix(1,0,0,-1,175.56,20.52)"
         style="font-variant:normal;font-weight:normal;font-size:9px;font-family:Helvetica;-inkscape-font-specification:Helvetica;writing-mode:lr-tb;fill:#000000;fill-opacity:1;fill-rule:nonzero;stroke:none"
         id="text420"><tspan
           x="0 5.256 10.26 12.762"
           y="0"
           sodipodi:role="line"
           id="tspan418">−0.2</tspan></text><text
         transform="matrix(1,0,0,-1,283.26,20.52)"
         style="font-variant:normal;font-weight:normal;font-size:9px;font-family:Helvetica;-inkscape-font-specification:Helvetica;writing-mode:lr-tb;fill:#000000;fill-opacity:1;fill-rule:nonzero;stroke:none"
         id="text424"><tspan
           x="0 5.0040002 7.506"
           y="0"
           sodipodi:role="line"
           id="tspan422">0.0</tspan></text><text
         transform="matrix(1,0,0,-1,388.33,20.52)"
         style="font-variant:normal;font-weight:normal;font-size:9px;font-family:Helvetica;-inkscape-font-specification:Helvetica;writing-mode:lr-tb;fill:#000000;fill-opacity:1;fill-rule:nonzero;stroke:none"
         id="text428"><tspan
           x="0 5.0040002 7.506"
           y="0"
           sodipodi:role="line"
           id="tspan426">0.2</tspan></text></g><g
       id="g430" /><g
       id="g432" /><g
       id="g434" /><g
       id="g436" /><g
       id="g438" /><g
       id="g440" /><g
       id="g442" /><g
       id="g444"
       style="fill:#000000"
       transform="matrix(1.1791957,0,0,1.1791957,-47.894093,-4.1203562)"><text
         transform="matrix(1,0,0,-1,192.42,7.9)"
         style="font-variant:normal;font-weight:normal;font-size:11px;font-family:Helvetica;-inkscape-font-specification:Helvetica;writing-mode:lr-tb;fill:#000000;fill-opacity:1;fill-rule:nonzero;stroke:none"
         id="text448"><tspan
           x="0 7.3369999 16.5 19.558001 22.615999 28.115999 33.616001 39.731998 43.395 49.511002 52.569 56.231998 58.674 64.790001 70.905998 77.022003 83.138 89.253998 92.311996 98.428001 104.544 110.66 113.718 119.218 125.334 130.834 136.334 138.776 144.892 151.008"
           y="0"
           sodipodi:role="line"
           id="tspan446">EMI score (lagged one session)</tspan></text></g><g
       id="g450" /><g
       id="g452" /><g
       id="g454"
       transform="matrix(1.2962321,0,0,1.2962321,-3.9683434,-52.340654)"><text
         transform="matrix(0,1,1,0,0,0)"
         style="font-variant:normal;font-weight:normal;font-size:11px;font-family:Helvetica;-inkscape-font-specification:Helvetica;writing-mode:lr-tb;fill:#000000;fill-opacity:1;fill-rule:nonzero;stroke:none"
         id="text458"
         x="166.04089"
         y="11.439147"><tspan
           x="166.04089 169.09889 175.21489 181.33089 187.44688 193.56288 199.67889 202.1209 204.56288 207.6209"
           y="11.439147"
           sodipodi:role="line"
           id="tspan456">Inequality</tspan></text></g><g
       id="g460" /><g
       id="g462" /><g
       id="g464" /><g
       id="g466" /><g
       id="g468" /><g
       id="g470" /><g
       id="g472" /><g
       id="g474" /><g
       id="g476" /><g
       id="g478" /><g
       id="g480" /><g
       id="g482" /><g
       id="g484" /></g></svg>
