<?xml version="1.0" encoding="utf-8" standalone="no"?>
<!DOCTYPE svg PUBLIC "-//W3C//DTD SVG 1.1//EN"
  "http://www.w3.org/Graphics/SVG/1.1/DTD/svg11.dtd">
<!-- Created with matplotlib (https://matplotlib.org/) -->
<svg height="288pt" version="1.1" viewBox="0 0 864 288" width="864pt" xmlns="http://www.w3.org/2000/svg" xmlns:xlink="http://www.w3.org/1999/xlink">
 <metadata>
  <rdf:RDF xmlns:cc="http://creativecommons.org/ns#" xmlns:dc="http://purl.org/dc/elements/1.1/" xmlns:rdf="http://www.w3.org/1999/02/22-rdf-syntax-ns#">
   <cc:Work>
    <dc:type rdf:resource="http://purl.org/dc/dcmitype/StillImage"/>
    <dc:date>2024-12-05T17:57:49.054047</dc:date>
    <dc:format>image/svg+xml</dc:format>
    <dc:creator>
     <cc:Agent>
      <dc:title>Matplotlib v3.3.4, https://matplotlib.org/</dc:title>
     </cc:Agent>
    </dc:creator>
   </cc:Work>
  </rdf:RDF>
 </metadata>
 <defs>
  <style type="text/css">*{stroke-linecap:butt;stroke-linejoin:round;}</style>
 </defs>
 <g id="figure_1">
  <g id="patch_1">
   <path d="M 0 288 
L 864 288 
L 864 0 
L 0 0 
z
" style="fill:#ffffff;"/>
  </g>
  <g id="axes_1">
   <g id="patch_2">
    <path d="M 91.55 223 
L 844.56 223 
L 844.56 19.994227 
L 91.55 19.994227 
z
" style="fill:#ffffff;"/>
   </g>
   <g id="matplotlib.axis_1">
    <g id="xtick_1">
     <g id="line2d_1">
      <path clip-path="url(#pde56c903da)" d="M 130.598534 223 
L 130.598534 19.994227 
" style="fill:none;stroke:#b0b0b0;stroke-linecap:square;stroke-width:0.8;"/>
     </g>
     <g id="line2d_2">
      <defs>
       <path d="M 0 0 
L 0 3.5 
" id="md84ab0ab86" style="stroke:#000000;stroke-width:0.8;"/>
      </defs>
      <g>
       <use style="stroke:#000000;stroke-width:0.8;" x="130.598534" xlink:href="#md84ab0ab86" y="223"/>
      </g>
     </g>
     <g id="text_1">
      <!-- 1880 -->
      <g transform="translate(107.693534 243.677188)scale(0.18 -0.18)">
       <defs>
        <path d="M 12.40625 8.296875 
L 28.515625 8.296875 
L 28.515625 63.921875 
L 10.984375 60.40625 
L 10.984375 69.390625 
L 28.421875 72.90625 
L 38.28125 72.90625 
L 38.28125 8.296875 
L 54.390625 8.296875 
L 54.390625 0 
L 12.40625 0 
z
" id="DejaVuSans-49"/>
        <path d="M 31.78125 34.625 
Q 24.75 34.625 20.71875 30.859375 
Q 16.703125 27.09375 16.703125 20.515625 
Q 16.703125 13.921875 20.71875 10.15625 
Q 24.75 6.390625 31.78125 6.390625 
Q 38.8125 6.390625 42.859375 10.171875 
Q 46.921875 13.96875 46.921875 20.515625 
Q 46.921875 27.09375 42.890625 30.859375 
Q 38.875 34.625 31.78125 34.625 
z
M 21.921875 38.8125 
Q 15.578125 40.375 12.03125 44.71875 
Q 8.5 49.078125 8.5 55.328125 
Q 8.5 64.0625 14.71875 69.140625 
Q 20.953125 74.21875 31.78125 74.21875 
Q 42.671875 74.21875 48.875 69.140625 
Q 55.078125 64.0625 55.078125 55.328125 
Q 55.078125 49.078125 51.53125 44.71875 
Q 48 40.375 41.703125 38.8125 
Q 48.828125 37.15625 52.796875 32.3125 
Q 56.78125 27.484375 56.78125 20.515625 
Q 56.78125 9.90625 50.3125 4.234375 
Q 43.84375 -1.421875 31.78125 -1.421875 
Q 19.734375 -1.421875 13.25 4.234375 
Q 6.78125 9.90625 6.78125 20.515625 
Q 6.78125 27.484375 10.78125 32.3125 
Q 14.796875 37.15625 21.921875 38.8125 
z
M 18.3125 54.390625 
Q 18.3125 48.734375 21.84375 45.5625 
Q 25.390625 42.390625 31.78125 42.390625 
Q 38.140625 42.390625 41.71875 45.5625 
Q 45.3125 48.734375 45.3125 54.390625 
Q 45.3125 60.0625 41.71875 63.234375 
Q 38.140625 66.40625 31.78125 66.40625 
Q 25.390625 66.40625 21.84375 63.234375 
Q 18.3125 60.0625 18.3125 54.390625 
z
" id="DejaVuSans-56"/>
        <path d="M 31.78125 66.40625 
Q 24.171875 66.40625 20.328125 58.90625 
Q 16.5 51.421875 16.5 36.375 
Q 16.5 21.390625 20.328125 13.890625 
Q 24.171875 6.390625 31.78125 6.390625 
Q 39.453125 6.390625 43.28125 13.890625 
Q 47.125 21.390625 47.125 36.375 
Q 47.125 51.421875 43.28125 58.90625 
Q 39.453125 66.40625 31.78125 66.40625 
z
M 31.78125 74.21875 
Q 44.046875 74.21875 50.515625 64.515625 
Q 56.984375 54.828125 56.984375 36.375 
Q 56.984375 17.96875 50.515625 8.265625 
Q 44.046875 -1.421875 31.78125 -1.421875 
Q 19.53125 -1.421875 13.0625 8.265625 
Q 6.59375 17.96875 6.59375 36.375 
Q 6.59375 54.828125 13.0625 64.515625 
Q 19.53125 74.21875 31.78125 74.21875 
z
" id="DejaVuSans-48"/>
       </defs>
       <use xlink:href="#DejaVuSans-49"/>
       <use x="63.623047" xlink:href="#DejaVuSans-56"/>
       <use x="127.246094" xlink:href="#DejaVuSans-56"/>
       <use x="190.869141" xlink:href="#DejaVuSans-48"/>
      </g>
     </g>
    </g>
    <g id="xtick_2">
     <g id="line2d_3">
      <path clip-path="url(#pde56c903da)" d="M 227.014667 223 
L 227.014667 19.994227 
" style="fill:none;stroke:#b0b0b0;stroke-linecap:square;stroke-width:0.8;"/>
     </g>
     <g id="line2d_4">
      <g>
       <use style="stroke:#000000;stroke-width:0.8;" x="227.014667" xlink:href="#md84ab0ab86" y="223"/>
      </g>
     </g>
     <g id="text_2">
      <!-- 1900 -->
      <g transform="translate(204.109667 243.677188)scale(0.18 -0.18)">
       <defs>
        <path d="M 10.984375 1.515625 
L 10.984375 10.5 
Q 14.703125 8.734375 18.5 7.8125 
Q 22.3125 6.890625 25.984375 6.890625 
Q 35.75 6.890625 40.890625 13.453125 
Q 46.046875 20.015625 46.78125 33.40625 
Q 43.953125 29.203125 39.59375 26.953125 
Q 35.25 24.703125 29.984375 24.703125 
Q 19.046875 24.703125 12.671875 31.3125 
Q 6.296875 37.9375 6.296875 49.421875 
Q 6.296875 60.640625 12.9375 67.421875 
Q 19.578125 74.21875 30.609375 74.21875 
Q 43.265625 74.21875 49.921875 64.515625 
Q 56.59375 54.828125 56.59375 36.375 
Q 56.59375 19.140625 48.40625 8.859375 
Q 40.234375 -1.421875 26.421875 -1.421875 
Q 22.703125 -1.421875 18.890625 -0.6875 
Q 15.09375 0.046875 10.984375 1.515625 
z
M 30.609375 32.421875 
Q 37.25 32.421875 41.125 36.953125 
Q 45.015625 41.5 45.015625 49.421875 
Q 45.015625 57.28125 41.125 61.84375 
Q 37.25 66.40625 30.609375 66.40625 
Q 23.96875 66.40625 20.09375 61.84375 
Q 16.21875 57.28125 16.21875 49.421875 
Q 16.21875 41.5 20.09375 36.953125 
Q 23.96875 32.421875 30.609375 32.421875 
z
" id="DejaVuSans-57"/>
       </defs>
       <use xlink:href="#DejaVuSans-49"/>
       <use x="63.623047" xlink:href="#DejaVuSans-57"/>
       <use x="127.246094" xlink:href="#DejaVuSans-48"/>
       <use x="190.869141" xlink:href="#DejaVuSans-48"/>
      </g>
     </g>
    </g>
    <g id="xtick_3">
     <g id="line2d_5">
      <path clip-path="url(#pde56c903da)" d="M 323.4308 223 
L 323.4308 19.994227 
" style="fill:none;stroke:#b0b0b0;stroke-linecap:square;stroke-width:0.8;"/>
     </g>
     <g id="line2d_6">
      <g>
       <use style="stroke:#000000;stroke-width:0.8;" x="323.4308" xlink:href="#md84ab0ab86" y="223"/>
      </g>
     </g>
     <g id="text_3">
      <!-- 1920 -->
      <g transform="translate(300.5258 243.677188)scale(0.18 -0.18)">
       <defs>
        <path d="M 19.1875 8.296875 
L 53.609375 8.296875 
L 53.609375 0 
L 7.328125 0 
L 7.328125 8.296875 
Q 12.9375 14.109375 22.625 23.890625 
Q 32.328125 33.6875 34.8125 36.53125 
Q 39.546875 41.84375 41.421875 45.53125 
Q 43.3125 49.21875 43.3125 52.78125 
Q 43.3125 58.59375 39.234375 62.25 
Q 35.15625 65.921875 28.609375 65.921875 
Q 23.96875 65.921875 18.8125 64.3125 
Q 13.671875 62.703125 7.8125 59.421875 
L 7.8125 69.390625 
Q 13.765625 71.78125 18.9375 73 
Q 24.125 74.21875 28.421875 74.21875 
Q 39.75 74.21875 46.484375 68.546875 
Q 53.21875 62.890625 53.21875 53.421875 
Q 53.21875 48.921875 51.53125 44.890625 
Q 49.859375 40.875 45.40625 35.40625 
Q 44.1875 33.984375 37.640625 27.21875 
Q 31.109375 20.453125 19.1875 8.296875 
z
" id="DejaVuSans-50"/>
       </defs>
       <use xlink:href="#DejaVuSans-49"/>
       <use x="63.623047" xlink:href="#DejaVuSans-57"/>
       <use x="127.246094" xlink:href="#DejaVuSans-50"/>
       <use x="190.869141" xlink:href="#DejaVuSans-48"/>
      </g>
     </g>
    </g>
    <g id="xtick_4">
     <g id="line2d_7">
      <path clip-path="url(#pde56c903da)" d="M 419.846933 223 
L 419.846933 19.994227 
" style="fill:none;stroke:#b0b0b0;stroke-linecap:square;stroke-width:0.8;"/>
     </g>
     <g id="line2d_8">
      <g>
       <use style="stroke:#000000;stroke-width:0.8;" x="419.846933" xlink:href="#md84ab0ab86" y="223"/>
      </g>
     </g>
     <g id="text_4">
      <!-- 1940 -->
      <g transform="translate(396.941933 243.677188)scale(0.18 -0.18)">
       <defs>
        <path d="M 37.796875 64.3125 
L 12.890625 25.390625 
L 37.796875 25.390625 
z
M 35.203125 72.90625 
L 47.609375 72.90625 
L 47.609375 25.390625 
L 58.015625 25.390625 
L 58.015625 17.1875 
L 47.609375 17.1875 
L 47.609375 0 
L 37.796875 0 
L 37.796875 17.1875 
L 4.890625 17.1875 
L 4.890625 26.703125 
z
" id="DejaVuSans-52"/>
       </defs>
       <use xlink:href="#DejaVuSans-49"/>
       <use x="63.623047" xlink:href="#DejaVuSans-57"/>
       <use x="127.246094" xlink:href="#DejaVuSans-52"/>
       <use x="190.869141" xlink:href="#DejaVuSans-48"/>
      </g>
     </g>
    </g>
    <g id="xtick_5">
     <g id="line2d_9">
      <path clip-path="url(#pde56c903da)" d="M 516.263067 223 
L 516.263067 19.994227 
" style="fill:none;stroke:#b0b0b0;stroke-linecap:square;stroke-width:0.8;"/>
     </g>
     <g id="line2d_10">
      <g>
       <use style="stroke:#000000;stroke-width:0.8;" x="516.263067" xlink:href="#md84ab0ab86" y="223"/>
      </g>
     </g>
     <g id="text_5">
      <!-- 1960 -->
      <g transform="translate(493.358067 243.677188)scale(0.18 -0.18)">
       <defs>
        <path d="M 33.015625 40.375 
Q 26.375 40.375 22.484375 35.828125 
Q 18.609375 31.296875 18.609375 23.390625 
Q 18.609375 15.53125 22.484375 10.953125 
Q 26.375 6.390625 33.015625 6.390625 
Q 39.65625 6.390625 43.53125 10.953125 
Q 47.40625 15.53125 47.40625 23.390625 
Q 47.40625 31.296875 43.53125 35.828125 
Q 39.65625 40.375 33.015625 40.375 
z
M 52.59375 71.296875 
L 52.59375 62.3125 
Q 48.875 64.0625 45.09375 64.984375 
Q 41.3125 65.921875 37.59375 65.921875 
Q 27.828125 65.921875 22.671875 59.328125 
Q 17.53125 52.734375 16.796875 39.40625 
Q 19.671875 43.65625 24.015625 45.921875 
Q 28.375 48.1875 33.59375 48.1875 
Q 44.578125 48.1875 50.953125 41.515625 
Q 57.328125 34.859375 57.328125 23.390625 
Q 57.328125 12.15625 50.6875 5.359375 
Q 44.046875 -1.421875 33.015625 -1.421875 
Q 20.359375 -1.421875 13.671875 8.265625 
Q 6.984375 17.96875 6.984375 36.375 
Q 6.984375 53.65625 15.1875 63.9375 
Q 23.390625 74.21875 37.203125 74.21875 
Q 40.921875 74.21875 44.703125 73.484375 
Q 48.484375 72.75 52.59375 71.296875 
z
" id="DejaVuSans-54"/>
       </defs>
       <use xlink:href="#DejaVuSans-49"/>
       <use x="63.623047" xlink:href="#DejaVuSans-57"/>
       <use x="127.246094" xlink:href="#DejaVuSans-54"/>
       <use x="190.869141" xlink:href="#DejaVuSans-48"/>
      </g>
     </g>
    </g>
    <g id="xtick_6">
     <g id="line2d_11">
      <path clip-path="url(#pde56c903da)" d="M 612.6792 223 
L 612.6792 19.994227 
" style="fill:none;stroke:#b0b0b0;stroke-linecap:square;stroke-width:0.8;"/>
     </g>
     <g id="line2d_12">
      <g>
       <use style="stroke:#000000;stroke-width:0.8;" x="612.6792" xlink:href="#md84ab0ab86" y="223"/>
      </g>
     </g>
     <g id="text_6">
      <!-- 1980 -->
      <g transform="translate(589.7742 243.677188)scale(0.18 -0.18)">
       <use xlink:href="#DejaVuSans-49"/>
       <use x="63.623047" xlink:href="#DejaVuSans-57"/>
       <use x="127.246094" xlink:href="#DejaVuSans-56"/>
       <use x="190.869141" xlink:href="#DejaVuSans-48"/>
      </g>
     </g>
    </g>
    <g id="xtick_7">
     <g id="line2d_13">
      <path clip-path="url(#pde56c903da)" d="M 709.095333 223 
L 709.095333 19.994227 
" style="fill:none;stroke:#b0b0b0;stroke-linecap:square;stroke-width:0.8;"/>
     </g>
     <g id="line2d_14">
      <g>
       <use style="stroke:#000000;stroke-width:0.8;" x="709.095333" xlink:href="#md84ab0ab86" y="223"/>
      </g>
     </g>
     <g id="text_7">
      <!-- 2000 -->
      <g transform="translate(686.190333 243.677188)scale(0.18 -0.18)">
       <use xlink:href="#DejaVuSans-50"/>
       <use x="63.623047" xlink:href="#DejaVuSans-48"/>
       <use x="127.246094" xlink:href="#DejaVuSans-48"/>
       <use x="190.869141" xlink:href="#DejaVuSans-48"/>
      </g>
     </g>
    </g>
    <g id="xtick_8">
     <g id="line2d_15">
      <path clip-path="url(#pde56c903da)" d="M 805.511466 223 
L 805.511466 19.994227 
" style="fill:none;stroke:#b0b0b0;stroke-linecap:square;stroke-width:0.8;"/>
     </g>
     <g id="line2d_16">
      <g>
       <use style="stroke:#000000;stroke-width:0.8;" x="805.511466" xlink:href="#md84ab0ab86" y="223"/>
      </g>
     </g>
     <g id="text_8">
      <!-- 2020 -->
      <g transform="translate(782.606466 243.677188)scale(0.18 -0.18)">
       <use xlink:href="#DejaVuSans-50"/>
       <use x="63.623047" xlink:href="#DejaVuSans-48"/>
       <use x="127.246094" xlink:href="#DejaVuSans-50"/>
       <use x="190.869141" xlink:href="#DejaVuSans-48"/>
      </g>
     </g>
    </g>
    <g id="text_9">
     <!-- Starting year -->
     <g transform="translate(400.907969 265.097812)scale(0.18 -0.18)">
      <defs>
       <path d="M 59.90625 70.609375 
L 59.90625 55.171875 
Q 53.90625 57.859375 48.1875 59.21875 
Q 42.484375 60.59375 37.40625 60.59375 
Q 30.671875 60.59375 27.4375 58.734375 
Q 24.21875 56.890625 24.21875 52.984375 
Q 24.21875 50.046875 26.390625 48.40625 
Q 28.5625 46.78125 34.28125 45.609375 
L 42.28125 44 
Q 54.4375 41.546875 59.5625 36.5625 
Q 64.703125 31.59375 64.703125 22.40625 
Q 64.703125 10.359375 57.546875 4.46875 
Q 50.390625 -1.421875 35.6875 -1.421875 
Q 28.765625 -1.421875 21.78125 -0.09375 
Q 14.796875 1.21875 7.8125 3.8125 
L 7.8125 19.671875 
Q 14.796875 15.96875 21.3125 14.078125 
Q 27.828125 12.203125 33.890625 12.203125 
Q 40.046875 12.203125 43.3125 14.25 
Q 46.578125 16.3125 46.578125 20.125 
Q 46.578125 23.53125 44.359375 25.390625 
Q 42.140625 27.25 35.5 28.71875 
L 28.21875 30.328125 
Q 17.28125 32.671875 12.21875 37.796875 
Q 7.171875 42.921875 7.171875 51.609375 
Q 7.171875 62.5 14.203125 68.359375 
Q 21.234375 74.21875 34.421875 74.21875 
Q 40.4375 74.21875 46.78125 73.3125 
Q 53.125 72.40625 59.90625 70.609375 
z
" id="DejaVuSans-Bold-83"/>
       <path d="M 27.484375 70.21875 
L 27.484375 54.6875 
L 45.515625 54.6875 
L 45.515625 42.1875 
L 27.484375 42.1875 
L 27.484375 19 
Q 27.484375 15.1875 29 13.84375 
Q 30.515625 12.5 35.015625 12.5 
L 44 12.5 
L 44 0 
L 29 0 
Q 18.65625 0 14.328125 4.3125 
Q 10.015625 8.640625 10.015625 19 
L 10.015625 42.1875 
L 1.3125 42.1875 
L 1.3125 54.6875 
L 10.015625 54.6875 
L 10.015625 70.21875 
z
" id="DejaVuSans-Bold-116"/>
       <path d="M 32.90625 24.609375 
Q 27.4375 24.609375 24.671875 22.75 
Q 21.921875 20.90625 21.921875 17.28125 
Q 21.921875 13.96875 24.140625 12.078125 
Q 26.375 10.203125 30.328125 10.203125 
Q 35.25 10.203125 38.625 13.734375 
Q 42 17.28125 42 22.609375 
L 42 24.609375 
z
M 59.625 31.203125 
L 59.625 0 
L 42 0 
L 42 8.109375 
Q 38.484375 3.125 34.078125 0.84375 
Q 29.6875 -1.421875 23.390625 -1.421875 
Q 14.890625 -1.421875 9.59375 3.53125 
Q 4.296875 8.5 4.296875 16.40625 
Q 4.296875 26.03125 10.90625 30.515625 
Q 17.53125 35.015625 31.6875 35.015625 
L 42 35.015625 
L 42 36.375 
Q 42 40.53125 38.71875 42.453125 
Q 35.453125 44.390625 28.515625 44.390625 
Q 22.90625 44.390625 18.0625 43.265625 
Q 13.234375 42.140625 9.078125 39.890625 
L 9.078125 53.21875 
Q 14.703125 54.59375 20.359375 55.296875 
Q 26.03125 56 31.6875 56 
Q 46.484375 56 53.046875 50.171875 
Q 59.625 44.34375 59.625 31.203125 
z
" id="DejaVuSans-Bold-97"/>
       <path d="M 49.03125 39.796875 
Q 46.734375 40.875 44.453125 41.375 
Q 42.1875 41.890625 39.890625 41.890625 
Q 33.15625 41.890625 29.515625 37.5625 
Q 25.875 33.25 25.875 25.203125 
L 25.875 0 
L 8.40625 0 
L 8.40625 54.6875 
L 25.875 54.6875 
L 25.875 45.703125 
Q 29.25 51.078125 33.609375 53.53125 
Q 37.984375 56 44.09375 56 
Q 44.96875 56 45.984375 55.921875 
Q 47.015625 55.859375 48.96875 55.609375 
z
" id="DejaVuSans-Bold-114"/>
       <path d="M 8.40625 54.6875 
L 25.875 54.6875 
L 25.875 0 
L 8.40625 0 
z
M 8.40625 75.984375 
L 25.875 75.984375 
L 25.875 61.71875 
L 8.40625 61.71875 
z
" id="DejaVuSans-Bold-105"/>
       <path d="M 63.375 33.296875 
L 63.375 0 
L 45.796875 0 
L 45.796875 5.421875 
L 45.796875 25.484375 
Q 45.796875 32.5625 45.484375 35.25 
Q 45.171875 37.9375 44.390625 39.203125 
Q 43.359375 40.921875 41.59375 41.875 
Q 39.84375 42.828125 37.59375 42.828125 
Q 32.125 42.828125 29 38.59375 
Q 25.875 34.375 25.875 26.90625 
L 25.875 0 
L 8.40625 0 
L 8.40625 54.6875 
L 25.875 54.6875 
L 25.875 46.6875 
Q 29.828125 51.46875 34.265625 53.734375 
Q 38.71875 56 44.09375 56 
Q 53.5625 56 58.46875 50.1875 
Q 63.375 44.390625 63.375 33.296875 
z
" id="DejaVuSans-Bold-110"/>
       <path d="M 45.609375 9.28125 
Q 42 4.5 37.640625 2.25 
Q 33.296875 0 27.59375 0 
Q 17.578125 0 11.03125 7.875 
Q 4.5 15.765625 4.5 27.984375 
Q 4.5 40.234375 11.03125 48.0625 
Q 17.578125 55.90625 27.59375 55.90625 
Q 33.296875 55.90625 37.640625 53.65625 
Q 42 51.421875 45.609375 46.578125 
L 45.609375 54.6875 
L 63.1875 54.6875 
L 63.1875 5.515625 
Q 63.1875 -7.671875 54.859375 -14.625 
Q 46.53125 -21.578125 30.71875 -21.578125 
Q 25.59375 -21.578125 20.796875 -20.796875 
Q 16.015625 -20.015625 11.1875 -18.40625 
L 11.1875 -4.78125 
Q 15.765625 -7.421875 20.15625 -8.71875 
Q 24.5625 -10.015625 29 -10.015625 
Q 37.59375 -10.015625 41.59375 -6.25 
Q 45.609375 -2.484375 45.609375 5.515625 
z
M 34.078125 43.3125 
Q 28.65625 43.3125 25.625 39.296875 
Q 22.609375 35.296875 22.609375 27.984375 
Q 22.609375 20.453125 25.53125 16.578125 
Q 28.46875 12.703125 34.078125 12.703125 
Q 39.546875 12.703125 42.578125 16.703125 
Q 45.609375 20.703125 45.609375 27.984375 
Q 45.609375 35.296875 42.578125 39.296875 
Q 39.546875 43.3125 34.078125 43.3125 
z
" id="DejaVuSans-Bold-103"/>
       <path id="DejaVuSans-Bold-32"/>
       <path d="M 1.21875 54.6875 
L 18.703125 54.6875 
L 33.40625 17.578125 
L 45.90625 54.6875 
L 63.375 54.6875 
L 40.375 -5.171875 
Q 36.921875 -14.3125 32.296875 -17.9375 
Q 27.6875 -21.578125 20.125 -21.578125 
L 10.015625 -21.578125 
L 10.015625 -10.109375 
L 15.484375 -10.109375 
Q 19.921875 -10.109375 21.9375 -8.6875 
Q 23.96875 -7.28125 25.09375 -3.609375 
L 25.59375 -2.09375 
z
" id="DejaVuSans-Bold-121"/>
       <path d="M 62.984375 27.484375 
L 62.984375 22.515625 
L 22.125 22.515625 
Q 22.75 16.359375 26.5625 13.28125 
Q 30.375 10.203125 37.203125 10.203125 
Q 42.71875 10.203125 48.5 11.84375 
Q 54.296875 13.484375 60.40625 16.796875 
L 60.40625 3.328125 
Q 54.203125 0.984375 48 -0.21875 
Q 41.796875 -1.421875 35.59375 -1.421875 
Q 20.75 -1.421875 12.515625 6.125 
Q 4.296875 13.671875 4.296875 27.296875 
Q 4.296875 40.671875 12.375 48.328125 
Q 20.453125 56 34.625 56 
Q 47.515625 56 55.25 48.234375 
Q 62.984375 40.484375 62.984375 27.484375 
z
M 45.015625 33.296875 
Q 45.015625 38.28125 42.109375 41.328125 
Q 39.203125 44.390625 34.515625 44.390625 
Q 29.4375 44.390625 26.265625 41.53125 
Q 23.09375 38.671875 22.3125 33.296875 
z
" id="DejaVuSans-Bold-101"/>
      </defs>
      <use xlink:href="#DejaVuSans-Bold-83"/>
      <use x="72.021484" xlink:href="#DejaVuSans-Bold-116"/>
      <use x="119.824219" xlink:href="#DejaVuSans-Bold-97"/>
      <use x="187.304688" xlink:href="#DejaVuSans-Bold-114"/>
      <use x="236.621094" xlink:href="#DejaVuSans-Bold-116"/>
      <use x="284.423828" xlink:href="#DejaVuSans-Bold-105"/>
      <use x="318.701172" xlink:href="#DejaVuSans-Bold-110"/>
      <use x="389.892578" xlink:href="#DejaVuSans-Bold-103"/>
      <use x="461.474609" xlink:href="#DejaVuSans-Bold-32"/>
      <use x="496.289062" xlink:href="#DejaVuSans-Bold-121"/>
      <use x="561.474609" xlink:href="#DejaVuSans-Bold-101"/>
      <use x="629.296875" xlink:href="#DejaVuSans-Bold-97"/>
      <use x="696.777344" xlink:href="#DejaVuSans-Bold-114"/>
     </g>
    </g>
   </g>
   <g id="matplotlib.axis_2">
    <g id="ytick_1">
     <g id="line2d_17">
      <defs>
       <path d="M 0 0 
L -3.5 0 
" id="mde9ad89cee" style="stroke:#000000;stroke-width:0.8;"/>
      </defs>
      <g>
       <use style="stroke:#000000;stroke-width:0.8;" x="91.55" xlink:href="#mde9ad89cee" y="191.814432"/>
      </g>
     </g>
     <g id="text_10">
      <!-- −0.4 -->
      <g transform="translate(40.840938 198.653026)scale(0.18 -0.18)">
       <defs>
        <path d="M 10.59375 35.5 
L 73.1875 35.5 
L 73.1875 27.203125 
L 10.59375 27.203125 
z
" id="DejaVuSans-8722"/>
        <path d="M 10.6875 12.40625 
L 21 12.40625 
L 21 0 
L 10.6875 0 
z
" id="DejaVuSans-46"/>
       </defs>
       <use xlink:href="#DejaVuSans-8722"/>
       <use x="83.789062" xlink:href="#DejaVuSans-48"/>
       <use x="147.412109" xlink:href="#DejaVuSans-46"/>
       <use x="179.199219" xlink:href="#DejaVuSans-52"/>
      </g>
     </g>
    </g>
    <g id="ytick_2">
     <g id="line2d_18">
      <g>
       <use style="stroke:#000000;stroke-width:0.8;" x="91.55" xlink:href="#mde9ad89cee" y="136.459093"/>
      </g>
     </g>
     <g id="text_11">
      <!-- −0.2 -->
      <g transform="translate(40.840938 143.297686)scale(0.18 -0.18)">
       <use xlink:href="#DejaVuSans-8722"/>
       <use x="83.789062" xlink:href="#DejaVuSans-48"/>
       <use x="147.412109" xlink:href="#DejaVuSans-46"/>
       <use x="179.199219" xlink:href="#DejaVuSans-50"/>
      </g>
     </g>
    </g>
    <g id="ytick_3">
     <g id="line2d_19">
      <g>
       <use style="stroke:#000000;stroke-width:0.8;" x="91.55" xlink:href="#mde9ad89cee" y="81.103753"/>
      </g>
     </g>
     <g id="text_12">
      <!-- 0.0 -->
      <g transform="translate(55.924375 87.942346)scale(0.18 -0.18)">
       <use xlink:href="#DejaVuSans-48"/>
       <use x="63.623047" xlink:href="#DejaVuSans-46"/>
       <use x="95.410156" xlink:href="#DejaVuSans-48"/>
      </g>
     </g>
    </g>
    <g id="ytick_4">
     <g id="line2d_20">
      <g>
       <use style="stroke:#000000;stroke-width:0.8;" x="91.55" xlink:href="#mde9ad89cee" y="25.748413"/>
      </g>
     </g>
     <g id="text_13">
      <!-- 0.2 -->
      <g transform="translate(55.924375 32.587006)scale(0.18 -0.18)">
       <use xlink:href="#DejaVuSans-48"/>
       <use x="63.623047" xlink:href="#DejaVuSans-46"/>
       <use x="95.410156" xlink:href="#DejaVuSans-50"/>
      </g>
     </g>
    </g>
    <g id="text_14">
     <!-- Average score -->
     <g transform="translate(32.956875 193.716489)rotate(-90)scale(0.18 -0.18)">
      <defs>
       <path d="M 53.421875 13.28125 
L 24.03125 13.28125 
L 19.390625 0 
L 0.484375 0 
L 27.484375 72.90625 
L 49.90625 72.90625 
L 76.90625 0 
L 58.015625 0 
z
M 28.71875 26.8125 
L 48.6875 26.8125 
L 38.71875 55.8125 
z
" id="DejaVuSans-Bold-65"/>
       <path d="M 1.515625 54.6875 
L 19 54.6875 
L 32.625 16.890625 
L 46.1875 54.6875 
L 63.71875 54.6875 
L 42.1875 0 
L 23 0 
z
" id="DejaVuSans-Bold-118"/>
       <path d="M 51.125 52.984375 
L 51.125 39.703125 
Q 45.515625 42.046875 40.28125 43.21875 
Q 35.0625 44.390625 30.421875 44.390625 
Q 25.4375 44.390625 23.015625 43.140625 
Q 20.609375 41.890625 20.609375 39.3125 
Q 20.609375 37.203125 22.4375 36.078125 
Q 24.265625 34.96875 29 34.421875 
L 32.078125 33.984375 
Q 45.515625 32.28125 50.140625 28.375 
Q 54.78125 24.46875 54.78125 16.109375 
Q 54.78125 7.375 48.328125 2.96875 
Q 41.890625 -1.421875 29.109375 -1.421875 
Q 23.6875 -1.421875 17.890625 -0.5625 
Q 12.109375 0.296875 6 2 
L 6 15.28125 
Q 11.234375 12.75 16.71875 11.46875 
Q 22.21875 10.203125 27.875 10.203125 
Q 33.015625 10.203125 35.59375 11.609375 
Q 38.1875 13.03125 38.1875 15.828125 
Q 38.1875 18.171875 36.40625 19.3125 
Q 34.625 20.453125 29.296875 21.09375 
L 26.21875 21.484375 
Q 14.546875 22.953125 9.859375 26.90625 
Q 5.171875 30.859375 5.171875 38.921875 
Q 5.171875 47.609375 11.125 51.796875 
Q 17.09375 56 29.390625 56 
Q 34.234375 56 39.546875 55.265625 
Q 44.875 54.546875 51.125 52.984375 
z
" id="DejaVuSans-Bold-115"/>
       <path d="M 52.59375 52.984375 
L 52.59375 38.71875 
Q 49.03125 41.15625 45.4375 42.328125 
Q 41.84375 43.5 37.984375 43.5 
Q 30.671875 43.5 26.59375 39.234375 
Q 22.515625 34.96875 22.515625 27.296875 
Q 22.515625 19.625 26.59375 15.34375 
Q 30.671875 11.078125 37.984375 11.078125 
Q 42.09375 11.078125 45.78125 12.296875 
Q 49.46875 13.53125 52.59375 15.921875 
L 52.59375 1.609375 
Q 48.484375 0.09375 44.265625 -0.65625 
Q 40.046875 -1.421875 35.796875 -1.421875 
Q 21 -1.421875 12.640625 6.171875 
Q 4.296875 13.765625 4.296875 27.296875 
Q 4.296875 40.828125 12.640625 48.40625 
Q 21 56 35.796875 56 
Q 40.09375 56 44.265625 55.25 
Q 48.4375 54.5 52.59375 52.984375 
z
" id="DejaVuSans-Bold-99"/>
       <path d="M 34.421875 43.5 
Q 28.609375 43.5 25.5625 39.328125 
Q 22.515625 35.15625 22.515625 27.296875 
Q 22.515625 19.4375 25.5625 15.25 
Q 28.609375 11.078125 34.421875 11.078125 
Q 40.140625 11.078125 43.15625 15.25 
Q 46.1875 19.4375 46.1875 27.296875 
Q 46.1875 35.15625 43.15625 39.328125 
Q 40.140625 43.5 34.421875 43.5 
z
M 34.421875 56 
Q 48.53125 56 56.46875 48.375 
Q 64.40625 40.765625 64.40625 27.296875 
Q 64.40625 13.8125 56.46875 6.1875 
Q 48.53125 -1.421875 34.421875 -1.421875 
Q 20.265625 -1.421875 12.28125 6.1875 
Q 4.296875 13.8125 4.296875 27.296875 
Q 4.296875 40.765625 12.28125 48.375 
Q 20.265625 56 34.421875 56 
z
" id="DejaVuSans-Bold-111"/>
      </defs>
      <use xlink:href="#DejaVuSans-Bold-65"/>
      <use x="73.767578" xlink:href="#DejaVuSans-Bold-118"/>
      <use x="138.953125" xlink:href="#DejaVuSans-Bold-101"/>
      <use x="206.775391" xlink:href="#DejaVuSans-Bold-114"/>
      <use x="256.091797" xlink:href="#DejaVuSans-Bold-97"/>
      <use x="323.572266" xlink:href="#DejaVuSans-Bold-103"/>
      <use x="395.154297" xlink:href="#DejaVuSans-Bold-101"/>
      <use x="462.976562" xlink:href="#DejaVuSans-Bold-32"/>
      <use x="497.791016" xlink:href="#DejaVuSans-Bold-115"/>
      <use x="557.3125" xlink:href="#DejaVuSans-Bold-99"/>
      <use x="616.589844" xlink:href="#DejaVuSans-Bold-111"/>
      <use x="685.291016" xlink:href="#DejaVuSans-Bold-114"/>
      <use x="734.607422" xlink:href="#DejaVuSans-Bold-101"/>
     </g>
    </g>
   </g>
   <g id="line2d_21">
    <path clip-path="url(#pde56c903da)" d="M 125.777727 42.623433 
L 135.419341 48.241153 
L 145.060954 59.286426 
L 154.702567 50.919766 
L 164.344181 60.410579 
L 173.985794 60.698027 
L 183.627407 52.313466 
L 193.26902 67.748694 
L 202.910634 50.450915 
L 212.552247 66.120562 
L 222.19386 73.552389 
L 231.835474 56.800185 
L 241.477087 53.139064 
L 251.1187 49.790231 
L 260.760314 54.766155 
L 270.401927 52.713658 
L 280.04354 55.837365 
L 289.685154 67.82699 
L 299.326767 79.536115 
L 308.96838 72.80081 
L 318.609994 74.675136 
L 328.251607 84.386156 
L 337.89322 78.81912 
L 347.534834 74.023707 
L 357.176447 89.92224 
L 366.81806 71.693373 
L 376.459673 96.246129 
L 386.101287 96.056586 
L 395.7429 86.902493 
L 405.384513 70.034229 
L 415.026127 78.358665 
L 424.66774 68.661952 
L 434.309353 63.758468 
L 443.950967 65.803984 
L 453.59258 49.632468 
L 463.234193 42.672128 
L 472.875807 55.865371 
L 482.51742 59.249128 
L 492.159033 76.69509 
L 501.800647 48.541589 
L 511.44226 48.631201 
L 521.083873 49.402631 
L 530.725487 45.749761 
L 540.3671 62.891895 
L 550.008713 49.384288 
L 559.650327 29.965543 
L 569.29194 40.478267 
L 578.933553 37.753086 
L 588.575166 33.160611 
L 598.21678 29.221762 
L 607.858393 45.977105 
L 617.500006 77.572121 
L 627.14162 76.401935 
L 636.783233 85.208617 
L 646.424846 78.669589 
L 656.06646 91.00783 
L 665.708073 104.042973 
L 675.349686 98.371456 
L 684.9913 110.312181 
L 694.632913 100.673286 
L 704.274526 125.159064 
L 713.91614 131.195875 
L 723.557753 134.738339 
L 733.199366 137.031556 
L 742.84098 161.507011 
L 752.482593 176.409758 
L 762.124206 177.012638 
L 771.765819 160.020799 
L 781.407433 146.660715 
L 791.049046 174.137846 
L 800.690659 186.589329 
L 810.332273 213.772465 
" style="fill:none;stroke:#0000ff;stroke-linecap:square;"/>
    <defs>
     <path d="M 0 3 
C 0.795609 3 1.55874 2.683901 2.12132 2.12132 
C 2.683901 1.55874 3 0.795609 3 0 
C 3 -0.795609 2.683901 -1.55874 2.12132 -2.12132 
C 1.55874 -2.683901 0.795609 -3 0 -3 
C -0.795609 -3 -1.55874 -2.683901 -2.12132 -2.12132 
C -2.683901 -1.55874 -3 -0.795609 -3 0 
C -3 0.795609 -2.683901 1.55874 -2.12132 2.12132 
C -1.55874 2.683901 -0.795609 3 0 3 
z
" id="m09bdf2136c" style="stroke:#ffffff;stroke-width:0.75;"/>
    </defs>
    <g clip-path="url(#pde56c903da)">
     <use style="fill:#0000ff;stroke:#ffffff;stroke-width:0.75;" x="125.777727" xlink:href="#m09bdf2136c" y="42.623433"/>
     <use style="fill:#0000ff;stroke:#ffffff;stroke-width:0.75;" x="135.419341" xlink:href="#m09bdf2136c" y="48.241153"/>
     <use style="fill:#0000ff;stroke:#ffffff;stroke-width:0.75;" x="145.060954" xlink:href="#m09bdf2136c" y="59.286426"/>
     <use style="fill:#0000ff;stroke:#ffffff;stroke-width:0.75;" x="154.702567" xlink:href="#m09bdf2136c" y="50.919766"/>
     <use style="fill:#0000ff;stroke:#ffffff;stroke-width:0.75;" x="164.344181" xlink:href="#m09bdf2136c" y="60.410579"/>
     <use style="fill:#0000ff;stroke:#ffffff;stroke-width:0.75;" x="173.985794" xlink:href="#m09bdf2136c" y="60.698027"/>
     <use style="fill:#0000ff;stroke:#ffffff;stroke-width:0.75;" x="183.627407" xlink:href="#m09bdf2136c" y="52.313466"/>
     <use style="fill:#0000ff;stroke:#ffffff;stroke-width:0.75;" x="193.26902" xlink:href="#m09bdf2136c" y="67.748694"/>
     <use style="fill:#0000ff;stroke:#ffffff;stroke-width:0.75;" x="202.910634" xlink:href="#m09bdf2136c" y="50.450915"/>
     <use style="fill:#0000ff;stroke:#ffffff;stroke-width:0.75;" x="212.552247" xlink:href="#m09bdf2136c" y="66.120562"/>
     <use style="fill:#0000ff;stroke:#ffffff;stroke-width:0.75;" x="222.19386" xlink:href="#m09bdf2136c" y="73.552389"/>
     <use style="fill:#0000ff;stroke:#ffffff;stroke-width:0.75;" x="231.835474" xlink:href="#m09bdf2136c" y="56.800185"/>
     <use style="fill:#0000ff;stroke:#ffffff;stroke-width:0.75;" x="241.477087" xlink:href="#m09bdf2136c" y="53.139064"/>
     <use style="fill:#0000ff;stroke:#ffffff;stroke-width:0.75;" x="251.1187" xlink:href="#m09bdf2136c" y="49.790231"/>
     <use style="fill:#0000ff;stroke:#ffffff;stroke-width:0.75;" x="260.760314" xlink:href="#m09bdf2136c" y="54.766155"/>
     <use style="fill:#0000ff;stroke:#ffffff;stroke-width:0.75;" x="270.401927" xlink:href="#m09bdf2136c" y="52.713658"/>
     <use style="fill:#0000ff;stroke:#ffffff;stroke-width:0.75;" x="280.04354" xlink:href="#m09bdf2136c" y="55.837365"/>
     <use style="fill:#0000ff;stroke:#ffffff;stroke-width:0.75;" x="289.685154" xlink:href="#m09bdf2136c" y="67.82699"/>
     <use style="fill:#0000ff;stroke:#ffffff;stroke-width:0.75;" x="299.326767" xlink:href="#m09bdf2136c" y="79.536115"/>
     <use style="fill:#0000ff;stroke:#ffffff;stroke-width:0.75;" x="308.96838" xlink:href="#m09bdf2136c" y="72.80081"/>
     <use style="fill:#0000ff;stroke:#ffffff;stroke-width:0.75;" x="318.609994" xlink:href="#m09bdf2136c" y="74.675136"/>
     <use style="fill:#0000ff;stroke:#ffffff;stroke-width:0.75;" x="328.251607" xlink:href="#m09bdf2136c" y="84.386156"/>
     <use style="fill:#0000ff;stroke:#ffffff;stroke-width:0.75;" x="337.89322" xlink:href="#m09bdf2136c" y="78.81912"/>
     <use style="fill:#0000ff;stroke:#ffffff;stroke-width:0.75;" x="347.534834" xlink:href="#m09bdf2136c" y="74.023707"/>
     <use style="fill:#0000ff;stroke:#ffffff;stroke-width:0.75;" x="357.176447" xlink:href="#m09bdf2136c" y="89.92224"/>
     <use style="fill:#0000ff;stroke:#ffffff;stroke-width:0.75;" x="366.81806" xlink:href="#m09bdf2136c" y="71.693373"/>
     <use style="fill:#0000ff;stroke:#ffffff;stroke-width:0.75;" x="376.459673" xlink:href="#m09bdf2136c" y="96.246129"/>
     <use style="fill:#0000ff;stroke:#ffffff;stroke-width:0.75;" x="386.101287" xlink:href="#m09bdf2136c" y="96.056586"/>
     <use style="fill:#0000ff;stroke:#ffffff;stroke-width:0.75;" x="395.7429" xlink:href="#m09bdf2136c" y="86.902493"/>
     <use style="fill:#0000ff;stroke:#ffffff;stroke-width:0.75;" x="405.384513" xlink:href="#m09bdf2136c" y="70.034229"/>
     <use style="fill:#0000ff;stroke:#ffffff;stroke-width:0.75;" x="415.026127" xlink:href="#m09bdf2136c" y="78.358665"/>
     <use style="fill:#0000ff;stroke:#ffffff;stroke-width:0.75;" x="424.66774" xlink:href="#m09bdf2136c" y="68.661952"/>
     <use style="fill:#0000ff;stroke:#ffffff;stroke-width:0.75;" x="434.309353" xlink:href="#m09bdf2136c" y="63.758468"/>
     <use style="fill:#0000ff;stroke:#ffffff;stroke-width:0.75;" x="443.950967" xlink:href="#m09bdf2136c" y="65.803984"/>
     <use style="fill:#0000ff;stroke:#ffffff;stroke-width:0.75;" x="453.59258" xlink:href="#m09bdf2136c" y="49.632468"/>
     <use style="fill:#0000ff;stroke:#ffffff;stroke-width:0.75;" x="463.234193" xlink:href="#m09bdf2136c" y="42.672128"/>
     <use style="fill:#0000ff;stroke:#ffffff;stroke-width:0.75;" x="472.875807" xlink:href="#m09bdf2136c" y="55.865371"/>
     <use style="fill:#0000ff;stroke:#ffffff;stroke-width:0.75;" x="482.51742" xlink:href="#m09bdf2136c" y="59.249128"/>
     <use style="fill:#0000ff;stroke:#ffffff;stroke-width:0.75;" x="492.159033" xlink:href="#m09bdf2136c" y="76.69509"/>
     <use style="fill:#0000ff;stroke:#ffffff;stroke-width:0.75;" x="501.800647" xlink:href="#m09bdf2136c" y="48.541589"/>
     <use style="fill:#0000ff;stroke:#ffffff;stroke-width:0.75;" x="511.44226" xlink:href="#m09bdf2136c" y="48.631201"/>
     <use style="fill:#0000ff;stroke:#ffffff;stroke-width:0.75;" x="521.083873" xlink:href="#m09bdf2136c" y="49.402631"/>
     <use style="fill:#0000ff;stroke:#ffffff;stroke-width:0.75;" x="530.725487" xlink:href="#m09bdf2136c" y="45.749761"/>
     <use style="fill:#0000ff;stroke:#ffffff;stroke-width:0.75;" x="540.3671" xlink:href="#m09bdf2136c" y="62.891895"/>
     <use style="fill:#0000ff;stroke:#ffffff;stroke-width:0.75;" x="550.008713" xlink:href="#m09bdf2136c" y="49.384288"/>
     <use style="fill:#0000ff;stroke:#ffffff;stroke-width:0.75;" x="559.650327" xlink:href="#m09bdf2136c" y="29.965543"/>
     <use style="fill:#0000ff;stroke:#ffffff;stroke-width:0.75;" x="569.29194" xlink:href="#m09bdf2136c" y="40.478267"/>
     <use style="fill:#0000ff;stroke:#ffffff;stroke-width:0.75;" x="578.933553" xlink:href="#m09bdf2136c" y="37.753086"/>
     <use style="fill:#0000ff;stroke:#ffffff;stroke-width:0.75;" x="588.575166" xlink:href="#m09bdf2136c" y="33.160611"/>
     <use style="fill:#0000ff;stroke:#ffffff;stroke-width:0.75;" x="598.21678" xlink:href="#m09bdf2136c" y="29.221762"/>
     <use style="fill:#0000ff;stroke:#ffffff;stroke-width:0.75;" x="607.858393" xlink:href="#m09bdf2136c" y="45.977105"/>
     <use style="fill:#0000ff;stroke:#ffffff;stroke-width:0.75;" x="617.500006" xlink:href="#m09bdf2136c" y="77.572121"/>
     <use style="fill:#0000ff;stroke:#ffffff;stroke-width:0.75;" x="627.14162" xlink:href="#m09bdf2136c" y="76.401935"/>
     <use style="fill:#0000ff;stroke:#ffffff;stroke-width:0.75;" x="636.783233" xlink:href="#m09bdf2136c" y="85.208617"/>
     <use style="fill:#0000ff;stroke:#ffffff;stroke-width:0.75;" x="646.424846" xlink:href="#m09bdf2136c" y="78.669589"/>
     <use style="fill:#0000ff;stroke:#ffffff;stroke-width:0.75;" x="656.06646" xlink:href="#m09bdf2136c" y="91.00783"/>
     <use style="fill:#0000ff;stroke:#ffffff;stroke-width:0.75;" x="665.708073" xlink:href="#m09bdf2136c" y="104.042973"/>
     <use style="fill:#0000ff;stroke:#ffffff;stroke-width:0.75;" x="675.349686" xlink:href="#m09bdf2136c" y="98.371456"/>
     <use style="fill:#0000ff;stroke:#ffffff;stroke-width:0.75;" x="684.9913" xlink:href="#m09bdf2136c" y="110.312181"/>
     <use style="fill:#0000ff;stroke:#ffffff;stroke-width:0.75;" x="694.632913" xlink:href="#m09bdf2136c" y="100.673286"/>
     <use style="fill:#0000ff;stroke:#ffffff;stroke-width:0.75;" x="704.274526" xlink:href="#m09bdf2136c" y="125.159064"/>
     <use style="fill:#0000ff;stroke:#ffffff;stroke-width:0.75;" x="713.91614" xlink:href="#m09bdf2136c" y="131.195875"/>
     <use style="fill:#0000ff;stroke:#ffffff;stroke-width:0.75;" x="723.557753" xlink:href="#m09bdf2136c" y="134.738339"/>
     <use style="fill:#0000ff;stroke:#ffffff;stroke-width:0.75;" x="733.199366" xlink:href="#m09bdf2136c" y="137.031556"/>
     <use style="fill:#0000ff;stroke:#ffffff;stroke-width:0.75;" x="742.84098" xlink:href="#m09bdf2136c" y="161.507011"/>
     <use style="fill:#0000ff;stroke:#ffffff;stroke-width:0.75;" x="752.482593" xlink:href="#m09bdf2136c" y="176.409758"/>
     <use style="fill:#0000ff;stroke:#ffffff;stroke-width:0.75;" x="762.124206" xlink:href="#m09bdf2136c" y="177.012638"/>
     <use style="fill:#0000ff;stroke:#ffffff;stroke-width:0.75;" x="771.765819" xlink:href="#m09bdf2136c" y="160.020799"/>
     <use style="fill:#0000ff;stroke:#ffffff;stroke-width:0.75;" x="781.407433" xlink:href="#m09bdf2136c" y="146.660715"/>
     <use style="fill:#0000ff;stroke:#ffffff;stroke-width:0.75;" x="791.049046" xlink:href="#m09bdf2136c" y="174.137846"/>
     <use style="fill:#0000ff;stroke:#ffffff;stroke-width:0.75;" x="800.690659" xlink:href="#m09bdf2136c" y="186.589329"/>
     <use style="fill:#0000ff;stroke:#ffffff;stroke-width:0.75;" x="810.332273" xlink:href="#m09bdf2136c" y="213.772465"/>
    </g>
   </g>
   <g id="line2d_22">
    <path clip-path="url(#pde56c903da)" d="M 125.777727 44.630901 
L 135.419341 57.669957 
L 145.060954 70.375116 
L 154.702567 73.64235 
L 164.344181 65.583943 
L 173.985794 49.095796 
L 183.627407 64.34058 
L 193.26902 37.250678 
L 202.910634 53.99397 
L 212.552247 41.397491 
L 222.19386 42.19481 
L 231.835474 36.429743 
L 241.477087 47.494629 
L 251.1187 62.90315 
L 260.760314 81.960651 
L 270.401927 63.993801 
L 280.04354 55.835928 
L 289.685154 55.833518 
L 299.326767 70.684774 
L 308.96838 56.627496 
L 318.609994 72.494179 
L 328.251607 70.434345 
L 337.89322 64.990023 
L 347.534834 68.653044 
L 357.176447 78.868328 
L 366.81806 65.930469 
L 376.459673 79.521672 
L 386.101287 63.644706 
L 395.7429 70.749619 
L 405.384513 69.973742 
L 415.026127 59.938987 
L 424.66774 59.13722 
L 434.309353 69.015428 
L 443.950967 67.226964 
L 453.59258 60.203781 
L 463.234193 49.132473 
L 472.875807 62.809763 
L 482.51742 84.699651 
L 492.159033 107.85463 
L 501.800647 90.807697 
L 511.44226 71.297068 
L 521.083873 92.996026 
L 530.725487 75.030141 
L 540.3671 121.456178 
L 550.008713 102.507192 
L 559.650327 89.767048 
L 569.29194 114.636496 
L 578.933553 132.186824 
L 588.575166 129.120251 
L 598.21678 107.685529 
L 607.858393 110.715136 
L 617.500006 114.753239 
L 627.14162 106.500295 
L 636.783233 92.414689 
L 646.424846 95.345084 
L 656.06646 105.524994 
L 665.708073 102.723122 
L 675.349686 77.208093 
L 684.9913 54.316308 
L 694.632913 70.545366 
L 704.274526 99.340354 
L 713.91614 93.453183 
L 723.557753 84.29944 
L 733.199366 85.801589 
L 742.84098 100.167279 
L 752.482593 87.811567 
L 762.124206 63.278385 
L 771.765819 52.464648 
L 781.407433 79.298262 
L 791.049046 79.391204 
L 800.690659 86.126871 
L 810.332273 87.217993 
" style="fill:none;stroke:#ffa500;stroke-linecap:square;"/>
    <defs>
     <path d="M 0 3 
C 0.795609 3 1.55874 2.683901 2.12132 2.12132 
C 2.683901 1.55874 3 0.795609 3 0 
C 3 -0.795609 2.683901 -1.55874 2.12132 -2.12132 
C 1.55874 -2.683901 0.795609 -3 0 -3 
C -0.795609 -3 -1.55874 -2.683901 -2.12132 -2.12132 
C -2.683901 -1.55874 -3 -0.795609 -3 0 
C -3 0.795609 -2.683901 1.55874 -2.12132 2.12132 
C -1.55874 2.683901 -0.795609 3 0 3 
z
" id="m6c6d9f2cd3" style="stroke:#ffffff;stroke-width:0.75;"/>
    </defs>
    <g clip-path="url(#pde56c903da)">
     <use style="fill:#ffa500;stroke:#ffffff;stroke-width:0.75;" x="125.777727" xlink:href="#m6c6d9f2cd3" y="44.630901"/>
     <use style="fill:#ffa500;stroke:#ffffff;stroke-width:0.75;" x="135.419341" xlink:href="#m6c6d9f2cd3" y="57.669957"/>
     <use style="fill:#ffa500;stroke:#ffffff;stroke-width:0.75;" x="145.060954" xlink:href="#m6c6d9f2cd3" y="70.375116"/>
     <use style="fill:#ffa500;stroke:#ffffff;stroke-width:0.75;" x="154.702567" xlink:href="#m6c6d9f2cd3" y="73.64235"/>
     <use style="fill:#ffa500;stroke:#ffffff;stroke-width:0.75;" x="164.344181" xlink:href="#m6c6d9f2cd3" y="65.583943"/>
     <use style="fill:#ffa500;stroke:#ffffff;stroke-width:0.75;" x="173.985794" xlink:href="#m6c6d9f2cd3" y="49.095796"/>
     <use style="fill:#ffa500;stroke:#ffffff;stroke-width:0.75;" x="183.627407" xlink:href="#m6c6d9f2cd3" y="64.34058"/>
     <use style="fill:#ffa500;stroke:#ffffff;stroke-width:0.75;" x="193.26902" xlink:href="#m6c6d9f2cd3" y="37.250678"/>
     <use style="fill:#ffa500;stroke:#ffffff;stroke-width:0.75;" x="202.910634" xlink:href="#m6c6d9f2cd3" y="53.99397"/>
     <use style="fill:#ffa500;stroke:#ffffff;stroke-width:0.75;" x="212.552247" xlink:href="#m6c6d9f2cd3" y="41.397491"/>
     <use style="fill:#ffa500;stroke:#ffffff;stroke-width:0.75;" x="222.19386" xlink:href="#m6c6d9f2cd3" y="42.19481"/>
     <use style="fill:#ffa500;stroke:#ffffff;stroke-width:0.75;" x="231.835474" xlink:href="#m6c6d9f2cd3" y="36.429743"/>
     <use style="fill:#ffa500;stroke:#ffffff;stroke-width:0.75;" x="241.477087" xlink:href="#m6c6d9f2cd3" y="47.494629"/>
     <use style="fill:#ffa500;stroke:#ffffff;stroke-width:0.75;" x="251.1187" xlink:href="#m6c6d9f2cd3" y="62.90315"/>
     <use style="fill:#ffa500;stroke:#ffffff;stroke-width:0.75;" x="260.760314" xlink:href="#m6c6d9f2cd3" y="81.960651"/>
     <use style="fill:#ffa500;stroke:#ffffff;stroke-width:0.75;" x="270.401927" xlink:href="#m6c6d9f2cd3" y="63.993801"/>
     <use style="fill:#ffa500;stroke:#ffffff;stroke-width:0.75;" x="280.04354" xlink:href="#m6c6d9f2cd3" y="55.835928"/>
     <use style="fill:#ffa500;stroke:#ffffff;stroke-width:0.75;" x="289.685154" xlink:href="#m6c6d9f2cd3" y="55.833518"/>
     <use style="fill:#ffa500;stroke:#ffffff;stroke-width:0.75;" x="299.326767" xlink:href="#m6c6d9f2cd3" y="70.684774"/>
     <use style="fill:#ffa500;stroke:#ffffff;stroke-width:0.75;" x="308.96838" xlink:href="#m6c6d9f2cd3" y="56.627496"/>
     <use style="fill:#ffa500;stroke:#ffffff;stroke-width:0.75;" x="318.609994" xlink:href="#m6c6d9f2cd3" y="72.494179"/>
     <use style="fill:#ffa500;stroke:#ffffff;stroke-width:0.75;" x="328.251607" xlink:href="#m6c6d9f2cd3" y="70.434345"/>
     <use style="fill:#ffa500;stroke:#ffffff;stroke-width:0.75;" x="337.89322" xlink:href="#m6c6d9f2cd3" y="64.990023"/>
     <use style="fill:#ffa500;stroke:#ffffff;stroke-width:0.75;" x="347.534834" xlink:href="#m6c6d9f2cd3" y="68.653044"/>
     <use style="fill:#ffa500;stroke:#ffffff;stroke-width:0.75;" x="357.176447" xlink:href="#m6c6d9f2cd3" y="78.868328"/>
     <use style="fill:#ffa500;stroke:#ffffff;stroke-width:0.75;" x="366.81806" xlink:href="#m6c6d9f2cd3" y="65.930469"/>
     <use style="fill:#ffa500;stroke:#ffffff;stroke-width:0.75;" x="376.459673" xlink:href="#m6c6d9f2cd3" y="79.521672"/>
     <use style="fill:#ffa500;stroke:#ffffff;stroke-width:0.75;" x="386.101287" xlink:href="#m6c6d9f2cd3" y="63.644706"/>
     <use style="fill:#ffa500;stroke:#ffffff;stroke-width:0.75;" x="395.7429" xlink:href="#m6c6d9f2cd3" y="70.749619"/>
     <use style="fill:#ffa500;stroke:#ffffff;stroke-width:0.75;" x="405.384513" xlink:href="#m6c6d9f2cd3" y="69.973742"/>
     <use style="fill:#ffa500;stroke:#ffffff;stroke-width:0.75;" x="415.026127" xlink:href="#m6c6d9f2cd3" y="59.938987"/>
     <use style="fill:#ffa500;stroke:#ffffff;stroke-width:0.75;" x="424.66774" xlink:href="#m6c6d9f2cd3" y="59.13722"/>
     <use style="fill:#ffa500;stroke:#ffffff;stroke-width:0.75;" x="434.309353" xlink:href="#m6c6d9f2cd3" y="69.015428"/>
     <use style="fill:#ffa500;stroke:#ffffff;stroke-width:0.75;" x="443.950967" xlink:href="#m6c6d9f2cd3" y="67.226964"/>
     <use style="fill:#ffa500;stroke:#ffffff;stroke-width:0.75;" x="453.59258" xlink:href="#m6c6d9f2cd3" y="60.203781"/>
     <use style="fill:#ffa500;stroke:#ffffff;stroke-width:0.75;" x="463.234193" xlink:href="#m6c6d9f2cd3" y="49.132473"/>
     <use style="fill:#ffa500;stroke:#ffffff;stroke-width:0.75;" x="472.875807" xlink:href="#m6c6d9f2cd3" y="62.809763"/>
     <use style="fill:#ffa500;stroke:#ffffff;stroke-width:0.75;" x="482.51742" xlink:href="#m6c6d9f2cd3" y="84.699651"/>
     <use style="fill:#ffa500;stroke:#ffffff;stroke-width:0.75;" x="492.159033" xlink:href="#m6c6d9f2cd3" y="107.85463"/>
     <use style="fill:#ffa500;stroke:#ffffff;stroke-width:0.75;" x="501.800647" xlink:href="#m6c6d9f2cd3" y="90.807697"/>
     <use style="fill:#ffa500;stroke:#ffffff;stroke-width:0.75;" x="511.44226" xlink:href="#m6c6d9f2cd3" y="71.297068"/>
     <use style="fill:#ffa500;stroke:#ffffff;stroke-width:0.75;" x="521.083873" xlink:href="#m6c6d9f2cd3" y="92.996026"/>
     <use style="fill:#ffa500;stroke:#ffffff;stroke-width:0.75;" x="530.725487" xlink:href="#m6c6d9f2cd3" y="75.030141"/>
     <use style="fill:#ffa500;stroke:#ffffff;stroke-width:0.75;" x="540.3671" xlink:href="#m6c6d9f2cd3" y="121.456178"/>
     <use style="fill:#ffa500;stroke:#ffffff;stroke-width:0.75;" x="550.008713" xlink:href="#m6c6d9f2cd3" y="102.507192"/>
     <use style="fill:#ffa500;stroke:#ffffff;stroke-width:0.75;" x="559.650327" xlink:href="#m6c6d9f2cd3" y="89.767048"/>
     <use style="fill:#ffa500;stroke:#ffffff;stroke-width:0.75;" x="569.29194" xlink:href="#m6c6d9f2cd3" y="114.636496"/>
     <use style="fill:#ffa500;stroke:#ffffff;stroke-width:0.75;" x="578.933553" xlink:href="#m6c6d9f2cd3" y="132.186824"/>
     <use style="fill:#ffa500;stroke:#ffffff;stroke-width:0.75;" x="588.575166" xlink:href="#m6c6d9f2cd3" y="129.120251"/>
     <use style="fill:#ffa500;stroke:#ffffff;stroke-width:0.75;" x="598.21678" xlink:href="#m6c6d9f2cd3" y="107.685529"/>
     <use style="fill:#ffa500;stroke:#ffffff;stroke-width:0.75;" x="607.858393" xlink:href="#m6c6d9f2cd3" y="110.715136"/>
     <use style="fill:#ffa500;stroke:#ffffff;stroke-width:0.75;" x="617.500006" xlink:href="#m6c6d9f2cd3" y="114.753239"/>
     <use style="fill:#ffa500;stroke:#ffffff;stroke-width:0.75;" x="627.14162" xlink:href="#m6c6d9f2cd3" y="106.500295"/>
     <use style="fill:#ffa500;stroke:#ffffff;stroke-width:0.75;" x="636.783233" xlink:href="#m6c6d9f2cd3" y="92.414689"/>
     <use style="fill:#ffa500;stroke:#ffffff;stroke-width:0.75;" x="646.424846" xlink:href="#m6c6d9f2cd3" y="95.345084"/>
     <use style="fill:#ffa500;stroke:#ffffff;stroke-width:0.75;" x="656.06646" xlink:href="#m6c6d9f2cd3" y="105.524994"/>
     <use style="fill:#ffa500;stroke:#ffffff;stroke-width:0.75;" x="665.708073" xlink:href="#m6c6d9f2cd3" y="102.723122"/>
     <use style="fill:#ffa500;stroke:#ffffff;stroke-width:0.75;" x="675.349686" xlink:href="#m6c6d9f2cd3" y="77.208093"/>
     <use style="fill:#ffa500;stroke:#ffffff;stroke-width:0.75;" x="684.9913" xlink:href="#m6c6d9f2cd3" y="54.316308"/>
     <use style="fill:#ffa500;stroke:#ffffff;stroke-width:0.75;" x="694.632913" xlink:href="#m6c6d9f2cd3" y="70.545366"/>
     <use style="fill:#ffa500;stroke:#ffffff;stroke-width:0.75;" x="704.274526" xlink:href="#m6c6d9f2cd3" y="99.340354"/>
     <use style="fill:#ffa500;stroke:#ffffff;stroke-width:0.75;" x="713.91614" xlink:href="#m6c6d9f2cd3" y="93.453183"/>
     <use style="fill:#ffa500;stroke:#ffffff;stroke-width:0.75;" x="723.557753" xlink:href="#m6c6d9f2cd3" y="84.29944"/>
     <use style="fill:#ffa500;stroke:#ffffff;stroke-width:0.75;" x="733.199366" xlink:href="#m6c6d9f2cd3" y="85.801589"/>
     <use style="fill:#ffa500;stroke:#ffffff;stroke-width:0.75;" x="742.84098" xlink:href="#m6c6d9f2cd3" y="100.167279"/>
     <use style="fill:#ffa500;stroke:#ffffff;stroke-width:0.75;" x="752.482593" xlink:href="#m6c6d9f2cd3" y="87.811567"/>
     <use style="fill:#ffa500;stroke:#ffffff;stroke-width:0.75;" x="762.124206" xlink:href="#m6c6d9f2cd3" y="63.278385"/>
     <use style="fill:#ffa500;stroke:#ffffff;stroke-width:0.75;" x="771.765819" xlink:href="#m6c6d9f2cd3" y="52.464648"/>
     <use style="fill:#ffa500;stroke:#ffffff;stroke-width:0.75;" x="781.407433" xlink:href="#m6c6d9f2cd3" y="79.298262"/>
     <use style="fill:#ffa500;stroke:#ffffff;stroke-width:0.75;" x="791.049046" xlink:href="#m6c6d9f2cd3" y="79.391204"/>
     <use style="fill:#ffa500;stroke:#ffffff;stroke-width:0.75;" x="800.690659" xlink:href="#m6c6d9f2cd3" y="86.126871"/>
     <use style="fill:#ffa500;stroke:#ffffff;stroke-width:0.75;" x="810.332273" xlink:href="#m6c6d9f2cd3" y="87.217993"/>
    </g>
   </g>
   <g id="patch_3">
    <path d="M 91.55 223 
L 91.55 19.994227 
" style="fill:none;stroke:#000000;stroke-linecap:square;stroke-linejoin:miter;stroke-width:0.8;"/>
   </g>
   <g id="patch_4">
    <path d="M 844.56 223 
L 844.56 19.994227 
" style="fill:none;stroke:#000000;stroke-linecap:square;stroke-linejoin:miter;stroke-width:0.8;"/>
   </g>
   <g id="patch_5">
    <path d="M 91.55 223 
L 844.56 223 
" style="fill:none;stroke:#000000;stroke-linecap:square;stroke-linejoin:miter;stroke-width:0.8;"/>
   </g>
   <g id="legend_1">
    <g id="line2d_23">
     <path d="M 107.75 170.335938 
L 143.75 170.335938 
" style="fill:none;stroke:#0000ff;stroke-linecap:square;"/>
    </g>
    <g id="line2d_24">
     <g>
      <use style="fill:#0000ff;stroke:#ffffff;stroke-width:0.75;" x="125.75" xlink:href="#m09bdf2136c" y="170.335938"/>
     </g>
    </g>
    <g id="text_15">
     <!-- Evidence -->
     <g transform="translate(158.15 176.635938)scale(0.18 -0.18)">
      <defs>
       <path d="M 9.8125 72.90625 
L 55.90625 72.90625 
L 55.90625 64.59375 
L 19.671875 64.59375 
L 19.671875 43.015625 
L 54.390625 43.015625 
L 54.390625 34.71875 
L 19.671875 34.71875 
L 19.671875 8.296875 
L 56.78125 8.296875 
L 56.78125 0 
L 9.8125 0 
z
" id="DejaVuSans-69"/>
       <path d="M 2.984375 54.6875 
L 12.5 54.6875 
L 29.59375 8.796875 
L 46.6875 54.6875 
L 56.203125 54.6875 
L 35.6875 0 
L 23.484375 0 
z
" id="DejaVuSans-118"/>
       <path d="M 9.421875 54.6875 
L 18.40625 54.6875 
L 18.40625 0 
L 9.421875 0 
z
M 9.421875 75.984375 
L 18.40625 75.984375 
L 18.40625 64.59375 
L 9.421875 64.59375 
z
" id="DejaVuSans-105"/>
       <path d="M 45.40625 46.390625 
L 45.40625 75.984375 
L 54.390625 75.984375 
L 54.390625 0 
L 45.40625 0 
L 45.40625 8.203125 
Q 42.578125 3.328125 38.25 0.953125 
Q 33.9375 -1.421875 27.875 -1.421875 
Q 17.96875 -1.421875 11.734375 6.484375 
Q 5.515625 14.40625 5.515625 27.296875 
Q 5.515625 40.1875 11.734375 48.09375 
Q 17.96875 56 27.875 56 
Q 33.9375 56 38.25 53.625 
Q 42.578125 51.265625 45.40625 46.390625 
z
M 14.796875 27.296875 
Q 14.796875 17.390625 18.875 11.75 
Q 22.953125 6.109375 30.078125 6.109375 
Q 37.203125 6.109375 41.296875 11.75 
Q 45.40625 17.390625 45.40625 27.296875 
Q 45.40625 37.203125 41.296875 42.84375 
Q 37.203125 48.484375 30.078125 48.484375 
Q 22.953125 48.484375 18.875 42.84375 
Q 14.796875 37.203125 14.796875 27.296875 
z
" id="DejaVuSans-100"/>
       <path d="M 56.203125 29.59375 
L 56.203125 25.203125 
L 14.890625 25.203125 
Q 15.484375 15.921875 20.484375 11.0625 
Q 25.484375 6.203125 34.421875 6.203125 
Q 39.59375 6.203125 44.453125 7.46875 
Q 49.3125 8.734375 54.109375 11.28125 
L 54.109375 2.78125 
Q 49.265625 0.734375 44.1875 -0.34375 
Q 39.109375 -1.421875 33.890625 -1.421875 
Q 20.796875 -1.421875 13.15625 6.1875 
Q 5.515625 13.8125 5.515625 26.8125 
Q 5.515625 40.234375 12.765625 48.109375 
Q 20.015625 56 32.328125 56 
Q 43.359375 56 49.78125 48.890625 
Q 56.203125 41.796875 56.203125 29.59375 
z
M 47.21875 32.234375 
Q 47.125 39.59375 43.09375 43.984375 
Q 39.0625 48.390625 32.421875 48.390625 
Q 24.90625 48.390625 20.390625 44.140625 
Q 15.875 39.890625 15.1875 32.171875 
z
" id="DejaVuSans-101"/>
       <path d="M 54.890625 33.015625 
L 54.890625 0 
L 45.90625 0 
L 45.90625 32.71875 
Q 45.90625 40.484375 42.875 44.328125 
Q 39.84375 48.1875 33.796875 48.1875 
Q 26.515625 48.1875 22.3125 43.546875 
Q 18.109375 38.921875 18.109375 30.90625 
L 18.109375 0 
L 9.078125 0 
L 9.078125 54.6875 
L 18.109375 54.6875 
L 18.109375 46.1875 
Q 21.34375 51.125 25.703125 53.5625 
Q 30.078125 56 35.796875 56 
Q 45.21875 56 50.046875 50.171875 
Q 54.890625 44.34375 54.890625 33.015625 
z
" id="DejaVuSans-110"/>
       <path d="M 48.78125 52.59375 
L 48.78125 44.1875 
Q 44.96875 46.296875 41.140625 47.34375 
Q 37.3125 48.390625 33.40625 48.390625 
Q 24.65625 48.390625 19.8125 42.84375 
Q 14.984375 37.3125 14.984375 27.296875 
Q 14.984375 17.28125 19.8125 11.734375 
Q 24.65625 6.203125 33.40625 6.203125 
Q 37.3125 6.203125 41.140625 7.25 
Q 44.96875 8.296875 48.78125 10.40625 
L 48.78125 2.09375 
Q 45.015625 0.34375 40.984375 -0.53125 
Q 36.96875 -1.421875 32.421875 -1.421875 
Q 20.0625 -1.421875 12.78125 6.34375 
Q 5.515625 14.109375 5.515625 27.296875 
Q 5.515625 40.671875 12.859375 48.328125 
Q 20.21875 56 33.015625 56 
Q 37.15625 56 41.109375 55.140625 
Q 45.0625 54.296875 48.78125 52.59375 
z
" id="DejaVuSans-99"/>
      </defs>
      <use xlink:href="#DejaVuSans-69"/>
      <use x="63.183594" xlink:href="#DejaVuSans-118"/>
      <use x="122.363281" xlink:href="#DejaVuSans-105"/>
      <use x="150.146484" xlink:href="#DejaVuSans-100"/>
      <use x="213.623047" xlink:href="#DejaVuSans-101"/>
      <use x="275.146484" xlink:href="#DejaVuSans-110"/>
      <use x="338.525391" xlink:href="#DejaVuSans-99"/>
      <use x="393.505859" xlink:href="#DejaVuSans-101"/>
     </g>
    </g>
    <g id="line2d_25">
     <path d="M 107.75 196.756563 
L 143.75 196.756563 
" style="fill:none;stroke:#ffa500;stroke-linecap:square;"/>
    </g>
    <g id="line2d_26">
     <g>
      <use style="fill:#ffa500;stroke:#ffffff;stroke-width:0.75;" x="125.75" xlink:href="#m6c6d9f2cd3" y="196.756563"/>
     </g>
    </g>
    <g id="text_16">
     <!-- Intuition -->
     <g transform="translate(158.15 203.056563)scale(0.18 -0.18)">
      <defs>
       <path d="M 9.8125 72.90625 
L 19.671875 72.90625 
L 19.671875 0 
L 9.8125 0 
z
" id="DejaVuSans-73"/>
       <path d="M 18.3125 70.21875 
L 18.3125 54.6875 
L 36.8125 54.6875 
L 36.8125 47.703125 
L 18.3125 47.703125 
L 18.3125 18.015625 
Q 18.3125 11.328125 20.140625 9.421875 
Q 21.96875 7.515625 27.59375 7.515625 
L 36.8125 7.515625 
L 36.8125 0 
L 27.59375 0 
Q 17.1875 0 13.234375 3.875 
Q 9.28125 7.765625 9.28125 18.015625 
L 9.28125 47.703125 
L 2.6875 47.703125 
L 2.6875 54.6875 
L 9.28125 54.6875 
L 9.28125 70.21875 
z
" id="DejaVuSans-116"/>
       <path d="M 8.5 21.578125 
L 8.5 54.6875 
L 17.484375 54.6875 
L 17.484375 21.921875 
Q 17.484375 14.15625 20.5 10.265625 
Q 23.53125 6.390625 29.59375 6.390625 
Q 36.859375 6.390625 41.078125 11.03125 
Q 45.3125 15.671875 45.3125 23.6875 
L 45.3125 54.6875 
L 54.296875 54.6875 
L 54.296875 0 
L 45.3125 0 
L 45.3125 8.40625 
Q 42.046875 3.421875 37.71875 1 
Q 33.40625 -1.421875 27.6875 -1.421875 
Q 18.265625 -1.421875 13.375 4.4375 
Q 8.5 10.296875 8.5 21.578125 
z
M 31.109375 56 
z
" id="DejaVuSans-117"/>
       <path d="M 30.609375 48.390625 
Q 23.390625 48.390625 19.1875 42.75 
Q 14.984375 37.109375 14.984375 27.296875 
Q 14.984375 17.484375 19.15625 11.84375 
Q 23.34375 6.203125 30.609375 6.203125 
Q 37.796875 6.203125 41.984375 11.859375 
Q 46.1875 17.53125 46.1875 27.296875 
Q 46.1875 37.015625 41.984375 42.703125 
Q 37.796875 48.390625 30.609375 48.390625 
z
M 30.609375 56 
Q 42.328125 56 49.015625 48.375 
Q 55.71875 40.765625 55.71875 27.296875 
Q 55.71875 13.875 49.015625 6.21875 
Q 42.328125 -1.421875 30.609375 -1.421875 
Q 18.84375 -1.421875 12.171875 6.21875 
Q 5.515625 13.875 5.515625 27.296875 
Q 5.515625 40.765625 12.171875 48.375 
Q 18.84375 56 30.609375 56 
z
" id="DejaVuSans-111"/>
      </defs>
      <use xlink:href="#DejaVuSans-73"/>
      <use x="29.492188" xlink:href="#DejaVuSans-110"/>
      <use x="92.871094" xlink:href="#DejaVuSans-116"/>
      <use x="132.080078" xlink:href="#DejaVuSans-117"/>
      <use x="195.458984" xlink:href="#DejaVuSans-105"/>
      <use x="223.242188" xlink:href="#DejaVuSans-116"/>
      <use x="262.451172" xlink:href="#DejaVuSans-105"/>
      <use x="290.234375" xlink:href="#DejaVuSans-111"/>
      <use x="351.416016" xlink:href="#DejaVuSans-110"/>
     </g>
    </g>
   </g>
  </g>
 </g>
 <defs>
  <clipPath id="pde56c903da">
   <rect height="203.005773" width="753.01" x="91.55" y="19.994227"/>
  </clipPath>
 </defs>
</svg>
