<?xml version="1.0" encoding="utf-8" standalone="no"?>
<!DOCTYPE svg PUBLIC "-//W3C//DTD SVG 1.1//EN"
  "http://www.w3.org/Graphics/SVG/1.1/DTD/svg11.dtd">
<!-- Created with matplotlib (https://matplotlib.org/) -->
<svg height="648pt" version="1.1" viewBox="0 0 864 648" width="864pt" xmlns="http://www.w3.org/2000/svg" xmlns:xlink="http://www.w3.org/1999/xlink">
 <metadata>
  <rdf:RDF xmlns:cc="http://creativecommons.org/ns#" xmlns:dc="http://purl.org/dc/elements/1.1/" xmlns:rdf="http://www.w3.org/1999/02/22-rdf-syntax-ns#">
   <cc:Work>
    <dc:type rdf:resource="http://purl.org/dc/dcmitype/StillImage"/>
    <dc:date>2024-12-05T16:03:52.353640</dc:date>
    <dc:format>image/svg+xml</dc:format>
    <dc:creator>
     <cc:Agent>
      <dc:title>Matplotlib v3.3.4, https://matplotlib.org/</dc:title>
     </cc:Agent>
    </dc:creator>
   </cc:Work>
  </rdf:RDF>
 </metadata>
 <defs>
  <style type="text/css">*{stroke-linecap:butt;stroke-linejoin:round;}</style>
 </defs>
 <g id="figure_1">
  <g id="patch_1">
   <path d="M 0 648 
L 864 648 
L 864 0 
L 0 0 
z
" style="fill:#ffffff;"/>
  </g>
  <g id="axes_1">
   <g id="patch_2">
    <path d="M 60.04649 293.018822 
L 860.99976 293.018822 
L 860.99976 25.412865 
L 60.04649 25.412865 
z
" style="fill:#ffffff;"/>
   </g>
   <g id="matplotlib.axis_1">
    <g id="xtick_1">
     <g id="line2d_1">
      <path clip-path="url(#p767c0f98f8)" d="M 101.581199 293.018822 
L 101.581199 25.412865 
" style="fill:none;stroke:#b0b0b0;stroke-linecap:square;stroke-width:0.8;"/>
     </g>
     <g id="line2d_2">
      <defs>
       <path d="M 0 0 
L 0 3.5 
" id="m3108155b0e" style="stroke:#000000;stroke-width:0.8;"/>
      </defs>
      <g>
       <use style="stroke:#000000;stroke-width:0.8;" x="101.581199" xlink:href="#m3108155b0e" y="293.018822"/>
      </g>
     </g>
    </g>
    <g id="xtick_2">
     <g id="line2d_3">
      <path clip-path="url(#p767c0f98f8)" d="M 204.136035 293.018822 
L 204.136035 25.412865 
" style="fill:none;stroke:#b0b0b0;stroke-linecap:square;stroke-width:0.8;"/>
     </g>
     <g id="line2d_4">
      <g>
       <use style="stroke:#000000;stroke-width:0.8;" x="204.136035" xlink:href="#m3108155b0e" y="293.018822"/>
      </g>
     </g>
    </g>
    <g id="xtick_3">
     <g id="line2d_5">
      <path clip-path="url(#p767c0f98f8)" d="M 306.690871 293.018822 
L 306.690871 25.412865 
" style="fill:none;stroke:#b0b0b0;stroke-linecap:square;stroke-width:0.8;"/>
     </g>
     <g id="line2d_6">
      <g>
       <use style="stroke:#000000;stroke-width:0.8;" x="306.690871" xlink:href="#m3108155b0e" y="293.018822"/>
      </g>
     </g>
    </g>
    <g id="xtick_4">
     <g id="line2d_7">
      <path clip-path="url(#p767c0f98f8)" d="M 409.245707 293.018822 
L 409.245707 25.412865 
" style="fill:none;stroke:#b0b0b0;stroke-linecap:square;stroke-width:0.8;"/>
     </g>
     <g id="line2d_8">
      <g>
       <use style="stroke:#000000;stroke-width:0.8;" x="409.245707" xlink:href="#m3108155b0e" y="293.018822"/>
      </g>
     </g>
    </g>
    <g id="xtick_5">
     <g id="line2d_9">
      <path clip-path="url(#p767c0f98f8)" d="M 511.800543 293.018822 
L 511.800543 25.412865 
" style="fill:none;stroke:#b0b0b0;stroke-linecap:square;stroke-width:0.8;"/>
     </g>
     <g id="line2d_10">
      <g>
       <use style="stroke:#000000;stroke-width:0.8;" x="511.800543" xlink:href="#m3108155b0e" y="293.018822"/>
      </g>
     </g>
    </g>
    <g id="xtick_6">
     <g id="line2d_11">
      <path clip-path="url(#p767c0f98f8)" d="M 614.355379 293.018822 
L 614.355379 25.412865 
" style="fill:none;stroke:#b0b0b0;stroke-linecap:square;stroke-width:0.8;"/>
     </g>
     <g id="line2d_12">
      <g>
       <use style="stroke:#000000;stroke-width:0.8;" x="614.355379" xlink:href="#m3108155b0e" y="293.018822"/>
      </g>
     </g>
    </g>
    <g id="xtick_7">
     <g id="line2d_13">
      <path clip-path="url(#p767c0f98f8)" d="M 716.910215 293.018822 
L 716.910215 25.412865 
" style="fill:none;stroke:#b0b0b0;stroke-linecap:square;stroke-width:0.8;"/>
     </g>
     <g id="line2d_14">
      <g>
       <use style="stroke:#000000;stroke-width:0.8;" x="716.910215" xlink:href="#m3108155b0e" y="293.018822"/>
      </g>
     </g>
    </g>
    <g id="xtick_8">
     <g id="line2d_15">
      <path clip-path="url(#p767c0f98f8)" d="M 819.465051 293.018822 
L 819.465051 25.412865 
" style="fill:none;stroke:#b0b0b0;stroke-linecap:square;stroke-width:0.8;"/>
     </g>
     <g id="line2d_16">
      <g>
       <use style="stroke:#000000;stroke-width:0.8;" x="819.465051" xlink:href="#m3108155b0e" y="293.018822"/>
      </g>
     </g>
    </g>
   </g>
   <g id="matplotlib.axis_2">
    <g id="ytick_1">
     <g id="line2d_17">
      <defs>
       <path d="M 0 0 
L -3.5 0 
" id="maa74e5280d" style="stroke:#000000;stroke-width:0.8;"/>
      </defs>
      <g>
       <use style="stroke:#000000;stroke-width:0.8;" x="60.04649" xlink:href="#maa74e5280d" y="262.886272"/>
      </g>
     </g>
     <g id="text_1">
      <!-- 0.0 -->
      <g transform="translate(24.420865 269.724866)scale(0.18 -0.18)">
       <defs>
        <path d="M 31.78125 66.40625 
Q 24.171875 66.40625 20.328125 58.90625 
Q 16.5 51.421875 16.5 36.375 
Q 16.5 21.390625 20.328125 13.890625 
Q 24.171875 6.390625 31.78125 6.390625 
Q 39.453125 6.390625 43.28125 13.890625 
Q 47.125 21.390625 47.125 36.375 
Q 47.125 51.421875 43.28125 58.90625 
Q 39.453125 66.40625 31.78125 66.40625 
z
M 31.78125 74.21875 
Q 44.046875 74.21875 50.515625 64.515625 
Q 56.984375 54.828125 56.984375 36.375 
Q 56.984375 17.96875 50.515625 8.265625 
Q 44.046875 -1.421875 31.78125 -1.421875 
Q 19.53125 -1.421875 13.0625 8.265625 
Q 6.59375 17.96875 6.59375 36.375 
Q 6.59375 54.828125 13.0625 64.515625 
Q 19.53125 74.21875 31.78125 74.21875 
z
" id="DejaVuSans-48"/>
        <path d="M 10.6875 12.40625 
L 21 12.40625 
L 21 0 
L 10.6875 0 
z
" id="DejaVuSans-46"/>
       </defs>
       <use xlink:href="#DejaVuSans-48"/>
       <use x="63.623047" xlink:href="#DejaVuSans-46"/>
       <use x="95.410156" xlink:href="#DejaVuSans-48"/>
      </g>
     </g>
    </g>
    <g id="ytick_2">
     <g id="line2d_18">
      <g>
       <use style="stroke:#000000;stroke-width:0.8;" x="60.04649" xlink:href="#maa74e5280d" y="192.206829"/>
      </g>
     </g>
     <g id="text_2">
      <!-- 0.2 -->
      <g transform="translate(24.420865 199.045423)scale(0.18 -0.18)">
       <defs>
        <path d="M 19.1875 8.296875 
L 53.609375 8.296875 
L 53.609375 0 
L 7.328125 0 
L 7.328125 8.296875 
Q 12.9375 14.109375 22.625 23.890625 
Q 32.328125 33.6875 34.8125 36.53125 
Q 39.546875 41.84375 41.421875 45.53125 
Q 43.3125 49.21875 43.3125 52.78125 
Q 43.3125 58.59375 39.234375 62.25 
Q 35.15625 65.921875 28.609375 65.921875 
Q 23.96875 65.921875 18.8125 64.3125 
Q 13.671875 62.703125 7.8125 59.421875 
L 7.8125 69.390625 
Q 13.765625 71.78125 18.9375 73 
Q 24.125 74.21875 28.421875 74.21875 
Q 39.75 74.21875 46.484375 68.546875 
Q 53.21875 62.890625 53.21875 53.421875 
Q 53.21875 48.921875 51.53125 44.890625 
Q 49.859375 40.875 45.40625 35.40625 
Q 44.1875 33.984375 37.640625 27.21875 
Q 31.109375 20.453125 19.1875 8.296875 
z
" id="DejaVuSans-50"/>
       </defs>
       <use xlink:href="#DejaVuSans-48"/>
       <use x="63.623047" xlink:href="#DejaVuSans-46"/>
       <use x="95.410156" xlink:href="#DejaVuSans-50"/>
      </g>
     </g>
    </g>
    <g id="ytick_3">
     <g id="line2d_19">
      <g>
       <use style="stroke:#000000;stroke-width:0.8;" x="60.04649" xlink:href="#maa74e5280d" y="121.527385"/>
      </g>
     </g>
     <g id="text_3">
      <!-- 0.4 -->
      <g transform="translate(24.420865 128.365979)scale(0.18 -0.18)">
       <defs>
        <path d="M 37.796875 64.3125 
L 12.890625 25.390625 
L 37.796875 25.390625 
z
M 35.203125 72.90625 
L 47.609375 72.90625 
L 47.609375 25.390625 
L 58.015625 25.390625 
L 58.015625 17.1875 
L 47.609375 17.1875 
L 47.609375 0 
L 37.796875 0 
L 37.796875 17.1875 
L 4.890625 17.1875 
L 4.890625 26.703125 
z
" id="DejaVuSans-52"/>
       </defs>
       <use xlink:href="#DejaVuSans-48"/>
       <use x="63.623047" xlink:href="#DejaVuSans-46"/>
       <use x="95.410156" xlink:href="#DejaVuSans-52"/>
      </g>
     </g>
    </g>
    <g id="ytick_4">
     <g id="line2d_20">
      <g>
       <use style="stroke:#000000;stroke-width:0.8;" x="60.04649" xlink:href="#maa74e5280d" y="50.847942"/>
      </g>
     </g>
     <g id="text_4">
      <!-- 0.6 -->
      <g transform="translate(24.420865 57.686535)scale(0.18 -0.18)">
       <defs>
        <path d="M 33.015625 40.375 
Q 26.375 40.375 22.484375 35.828125 
Q 18.609375 31.296875 18.609375 23.390625 
Q 18.609375 15.53125 22.484375 10.953125 
Q 26.375 6.390625 33.015625 6.390625 
Q 39.65625 6.390625 43.53125 10.953125 
Q 47.40625 15.53125 47.40625 23.390625 
Q 47.40625 31.296875 43.53125 35.828125 
Q 39.65625 40.375 33.015625 40.375 
z
M 52.59375 71.296875 
L 52.59375 62.3125 
Q 48.875 64.0625 45.09375 64.984375 
Q 41.3125 65.921875 37.59375 65.921875 
Q 27.828125 65.921875 22.671875 59.328125 
Q 17.53125 52.734375 16.796875 39.40625 
Q 19.671875 43.65625 24.015625 45.921875 
Q 28.375 48.1875 33.59375 48.1875 
Q 44.578125 48.1875 50.953125 41.515625 
Q 57.328125 34.859375 57.328125 23.390625 
Q 57.328125 12.15625 50.6875 5.359375 
Q 44.046875 -1.421875 33.015625 -1.421875 
Q 20.359375 -1.421875 13.671875 8.265625 
Q 6.984375 17.96875 6.984375 36.375 
Q 6.984375 53.65625 15.1875 63.9375 
Q 23.390625 74.21875 37.203125 74.21875 
Q 40.921875 74.21875 44.703125 73.484375 
Q 48.484375 72.75 52.59375 71.296875 
z
" id="DejaVuSans-54"/>
       </defs>
       <use xlink:href="#DejaVuSans-48"/>
       <use x="63.623047" xlink:href="#DejaVuSans-46"/>
       <use x="95.410156" xlink:href="#DejaVuSans-54"/>
      </g>
     </g>
    </g>
    <g id="text_5">
     <!-- EMI -->
     <g transform="translate(16.677427 177.668656)rotate(-90)scale(0.18 -0.18)">
      <defs>
       <path d="M 9.1875 72.90625 
L 59.90625 72.90625 
L 59.90625 58.6875 
L 27.984375 58.6875 
L 27.984375 45.125 
L 58.015625 45.125 
L 58.015625 30.90625 
L 27.984375 30.90625 
L 27.984375 14.203125 
L 60.984375 14.203125 
L 60.984375 0 
L 9.1875 0 
z
" id="DejaVuSans-Bold-69"/>
       <path d="M 9.1875 72.90625 
L 33.109375 72.90625 
L 49.703125 33.890625 
L 66.40625 72.90625 
L 90.28125 72.90625 
L 90.28125 0 
L 72.515625 0 
L 72.515625 53.328125 
L 55.71875 14.015625 
L 43.796875 14.015625 
L 27 53.328125 
L 27 0 
L 9.1875 0 
z
" id="DejaVuSans-Bold-77"/>
       <path d="M 9.1875 72.90625 
L 27.984375 72.90625 
L 27.984375 0 
L 9.1875 0 
z
" id="DejaVuSans-Bold-73"/>
      </defs>
      <use xlink:href="#DejaVuSans-Bold-69"/>
      <use x="68.310547" xlink:href="#DejaVuSans-Bold-77"/>
      <use x="167.822266" xlink:href="#DejaVuSans-Bold-73"/>
     </g>
    </g>
   </g>
   <g id="line2d_21">
    <path clip-path="url(#p767c0f98f8)" d="M 96.453457 195.51329 
L 106.70894 221.196442 
L 116.964424 229.718377 
L 127.219908 206.67447 
L 137.475391 224.932158 
L 147.730875 234.301956 
L 157.986358 201.328644 
L 168.241842 240.773622 
L 178.497326 212.209306 
L 188.752809 239.232038 
L 199.008293 248.930221 
L 209.263777 241.363877 
L 219.51926 230.195631 
L 229.774744 206.699143 
L 240.030227 187.527397 
L 250.285711 214.829146 
L 260.541195 220.060122 
L 270.796678 231.287509 
L 281.052162 225.830088 
L 291.307645 240.125482 
L 301.563129 210.020876 
L 311.818613 227.71955 
L 322.074096 231.890318 
L 332.32958 223.685304 
L 342.585063 235.011359 
L 352.840547 212.500869 
L 363.096031 220.984463 
L 373.351514 230.391189 
L 383.606998 209.024556 
L 393.862482 196.545999 
L 404.117965 194.98942 
L 414.373449 188.070526 
L 424.628932 178.931451 
L 434.884416 166.908816 
L 445.1399 134.576249 
L 455.395383 152.925836 
L 465.650867 163.875825 
L 475.90635 140.282756 
L 486.161834 120.438048 
L 496.417318 102.470368 
L 506.672801 111.96127 
L 516.928285 90.870918 
L 527.183768 86.564346 
L 537.439252 68.237008 
L 547.694736 65.441503 
L 557.950219 68.356359 
L 568.205703 56.577906 
L 578.461187 43.112463 
L 588.71667 37.576772 
L 598.972154 52.18151 
L 609.227637 56.810557 
L 619.483121 95.392371 
L 629.738605 100.844144 
L 639.994088 125.70071 
L 650.249572 113.438343 
L 660.505055 130.192725 
L 670.760539 147.246951 
L 681.016023 160.462132 
L 691.271506 209.318123 
L 701.52699 195.03536 
L 711.782473 202.927659 
L 722.037957 197.927057 
L 732.293441 217.557248 
L 742.548924 220.184175 
L 752.804408 235.196267 
L 763.059892 253.173671 
L 773.315375 278.411154 
L 783.570859 266.047606 
L 793.826342 232.486067 
L 804.081826 257.092071 
L 814.33731 252.725856 
L 824.592793 269.656906 
" style="fill:none;stroke:#000000;stroke-linecap:square;"/>
    <defs>
     <path d="M 0 2 
C 0.530406 2 1.03916 1.789267 1.414214 1.414214 
C 1.789267 1.03916 2 0.530406 2 0 
C 2 -0.530406 1.789267 -1.03916 1.414214 -1.414214 
C 1.03916 -1.789267 0.530406 -2 0 -2 
C -0.530406 -2 -1.03916 -1.789267 -1.414214 -1.414214 
C -1.789267 -1.03916 -2 -0.530406 -2 0 
C -2 0.530406 -1.789267 1.03916 -1.414214 1.414214 
C -1.03916 1.789267 -0.530406 2 0 2 
z
" id="m6af8e91fc8" style="stroke:#000000;"/>
    </defs>
    <g clip-path="url(#p767c0f98f8)">
     <use style="stroke:#000000;" x="96.453457" xlink:href="#m6af8e91fc8" y="195.51329"/>
     <use style="stroke:#000000;" x="106.70894" xlink:href="#m6af8e91fc8" y="221.196442"/>
     <use style="stroke:#000000;" x="116.964424" xlink:href="#m6af8e91fc8" y="229.718377"/>
     <use style="stroke:#000000;" x="127.219908" xlink:href="#m6af8e91fc8" y="206.67447"/>
     <use style="stroke:#000000;" x="137.475391" xlink:href="#m6af8e91fc8" y="224.932158"/>
     <use style="stroke:#000000;" x="147.730875" xlink:href="#m6af8e91fc8" y="234.301956"/>
     <use style="stroke:#000000;" x="157.986358" xlink:href="#m6af8e91fc8" y="201.328644"/>
     <use style="stroke:#000000;" x="168.241842" xlink:href="#m6af8e91fc8" y="240.773622"/>
     <use style="stroke:#000000;" x="178.497326" xlink:href="#m6af8e91fc8" y="212.209306"/>
     <use style="stroke:#000000;" x="188.752809" xlink:href="#m6af8e91fc8" y="239.232038"/>
     <use style="stroke:#000000;" x="199.008293" xlink:href="#m6af8e91fc8" y="248.930221"/>
     <use style="stroke:#000000;" x="209.263777" xlink:href="#m6af8e91fc8" y="241.363877"/>
     <use style="stroke:#000000;" x="219.51926" xlink:href="#m6af8e91fc8" y="230.195631"/>
     <use style="stroke:#000000;" x="229.774744" xlink:href="#m6af8e91fc8" y="206.699143"/>
     <use style="stroke:#000000;" x="240.030227" xlink:href="#m6af8e91fc8" y="187.527397"/>
     <use style="stroke:#000000;" x="250.285711" xlink:href="#m6af8e91fc8" y="214.829146"/>
     <use style="stroke:#000000;" x="260.541195" xlink:href="#m6af8e91fc8" y="220.060122"/>
     <use style="stroke:#000000;" x="270.796678" xlink:href="#m6af8e91fc8" y="231.287509"/>
     <use style="stroke:#000000;" x="281.052162" xlink:href="#m6af8e91fc8" y="225.830088"/>
     <use style="stroke:#000000;" x="291.307645" xlink:href="#m6af8e91fc8" y="240.125482"/>
     <use style="stroke:#000000;" x="301.563129" xlink:href="#m6af8e91fc8" y="210.020876"/>
     <use style="stroke:#000000;" x="311.818613" xlink:href="#m6af8e91fc8" y="227.71955"/>
     <use style="stroke:#000000;" x="322.074096" xlink:href="#m6af8e91fc8" y="231.890318"/>
     <use style="stroke:#000000;" x="332.32958" xlink:href="#m6af8e91fc8" y="223.685304"/>
     <use style="stroke:#000000;" x="342.585063" xlink:href="#m6af8e91fc8" y="235.011359"/>
     <use style="stroke:#000000;" x="352.840547" xlink:href="#m6af8e91fc8" y="212.500869"/>
     <use style="stroke:#000000;" x="363.096031" xlink:href="#m6af8e91fc8" y="220.984463"/>
     <use style="stroke:#000000;" x="373.351514" xlink:href="#m6af8e91fc8" y="230.391189"/>
     <use style="stroke:#000000;" x="383.606998" xlink:href="#m6af8e91fc8" y="209.024556"/>
     <use style="stroke:#000000;" x="393.862482" xlink:href="#m6af8e91fc8" y="196.545999"/>
     <use style="stroke:#000000;" x="404.117965" xlink:href="#m6af8e91fc8" y="194.98942"/>
     <use style="stroke:#000000;" x="414.373449" xlink:href="#m6af8e91fc8" y="188.070526"/>
     <use style="stroke:#000000;" x="424.628932" xlink:href="#m6af8e91fc8" y="178.931451"/>
     <use style="stroke:#000000;" x="434.884416" xlink:href="#m6af8e91fc8" y="166.908816"/>
     <use style="stroke:#000000;" x="445.1399" xlink:href="#m6af8e91fc8" y="134.576249"/>
     <use style="stroke:#000000;" x="455.395383" xlink:href="#m6af8e91fc8" y="152.925836"/>
     <use style="stroke:#000000;" x="465.650867" xlink:href="#m6af8e91fc8" y="163.875825"/>
     <use style="stroke:#000000;" x="475.90635" xlink:href="#m6af8e91fc8" y="140.282756"/>
     <use style="stroke:#000000;" x="486.161834" xlink:href="#m6af8e91fc8" y="120.438048"/>
     <use style="stroke:#000000;" x="496.417318" xlink:href="#m6af8e91fc8" y="102.470368"/>
     <use style="stroke:#000000;" x="506.672801" xlink:href="#m6af8e91fc8" y="111.96127"/>
     <use style="stroke:#000000;" x="516.928285" xlink:href="#m6af8e91fc8" y="90.870918"/>
     <use style="stroke:#000000;" x="527.183768" xlink:href="#m6af8e91fc8" y="86.564346"/>
     <use style="stroke:#000000;" x="537.439252" xlink:href="#m6af8e91fc8" y="68.237008"/>
     <use style="stroke:#000000;" x="547.694736" xlink:href="#m6af8e91fc8" y="65.441503"/>
     <use style="stroke:#000000;" x="557.950219" xlink:href="#m6af8e91fc8" y="68.356359"/>
     <use style="stroke:#000000;" x="568.205703" xlink:href="#m6af8e91fc8" y="56.577906"/>
     <use style="stroke:#000000;" x="578.461187" xlink:href="#m6af8e91fc8" y="43.112463"/>
     <use style="stroke:#000000;" x="588.71667" xlink:href="#m6af8e91fc8" y="37.576772"/>
     <use style="stroke:#000000;" x="598.972154" xlink:href="#m6af8e91fc8" y="52.18151"/>
     <use style="stroke:#000000;" x="609.227637" xlink:href="#m6af8e91fc8" y="56.810557"/>
     <use style="stroke:#000000;" x="619.483121" xlink:href="#m6af8e91fc8" y="95.392371"/>
     <use style="stroke:#000000;" x="629.738605" xlink:href="#m6af8e91fc8" y="100.844144"/>
     <use style="stroke:#000000;" x="639.994088" xlink:href="#m6af8e91fc8" y="125.70071"/>
     <use style="stroke:#000000;" x="650.249572" xlink:href="#m6af8e91fc8" y="113.438343"/>
     <use style="stroke:#000000;" x="660.505055" xlink:href="#m6af8e91fc8" y="130.192725"/>
     <use style="stroke:#000000;" x="670.760539" xlink:href="#m6af8e91fc8" y="147.246951"/>
     <use style="stroke:#000000;" x="681.016023" xlink:href="#m6af8e91fc8" y="160.462132"/>
     <use style="stroke:#000000;" x="691.271506" xlink:href="#m6af8e91fc8" y="209.318123"/>
     <use style="stroke:#000000;" x="701.52699" xlink:href="#m6af8e91fc8" y="195.03536"/>
     <use style="stroke:#000000;" x="711.782473" xlink:href="#m6af8e91fc8" y="202.927659"/>
     <use style="stroke:#000000;" x="722.037957" xlink:href="#m6af8e91fc8" y="197.927057"/>
     <use style="stroke:#000000;" x="732.293441" xlink:href="#m6af8e91fc8" y="217.557248"/>
     <use style="stroke:#000000;" x="742.548924" xlink:href="#m6af8e91fc8" y="220.184175"/>
     <use style="stroke:#000000;" x="752.804408" xlink:href="#m6af8e91fc8" y="235.196267"/>
     <use style="stroke:#000000;" x="763.059892" xlink:href="#m6af8e91fc8" y="253.173671"/>
     <use style="stroke:#000000;" x="773.315375" xlink:href="#m6af8e91fc8" y="278.411154"/>
     <use style="stroke:#000000;" x="783.570859" xlink:href="#m6af8e91fc8" y="266.047606"/>
     <use style="stroke:#000000;" x="793.826342" xlink:href="#m6af8e91fc8" y="232.486067"/>
     <use style="stroke:#000000;" x="804.081826" xlink:href="#m6af8e91fc8" y="257.092071"/>
     <use style="stroke:#000000;" x="814.33731" xlink:href="#m6af8e91fc8" y="252.725856"/>
     <use style="stroke:#000000;" x="824.592793" xlink:href="#m6af8e91fc8" y="269.656906"/>
    </g>
   </g>
   <g id="line2d_22">
    <path clip-path="url(#p767c0f98f8)" d="M 96.453457 272.625924 
L 106.70894 268.646751 
L 116.964424 264.667579 
L 127.219908 260.688407 
L 137.475391 256.709234 
L 147.730875 252.730062 
L 157.986358 248.75089 
L 168.241842 244.771718 
L 178.497326 240.792545 
L 188.752809 236.813373 
L 199.008293 232.834201 
L 209.263777 228.855028 
L 219.51926 224.875856 
L 229.774744 220.896684 
L 240.030227 216.917511 
L 250.285711 212.938339 
L 260.541195 208.959167 
L 270.796678 204.979994 
L 281.052162 201.000822 
L 291.307645 197.02165 
L 301.563129 193.042477 
L 311.818613 189.063305 
L 322.074096 185.084133 
L 332.32958 181.104961 
L 342.585063 177.125788 
L 352.840547 173.146616 
L 363.096031 169.167444 
L 373.351514 165.188271 
L 383.606998 161.209099 
L 393.862482 157.229927 
L 404.117965 153.250754 
L 414.373449 149.271582 
L 424.628932 145.29241 
L 434.884416 141.313237 
L 445.1399 137.334065 
L 455.395383 133.354893 
L 465.650867 129.37572 
L 475.90635 125.396548 
L 486.161834 121.417376 
L 496.417318 117.438204 
L 506.672801 113.459031 
L 516.928285 109.479859 
L 527.183768 105.500687 
L 537.439252 101.521514 
L 547.694736 97.542342 
L 557.950219 93.56317 
L 568.205703 89.583997 
L 578.461187 85.604825 
L 588.71667 93.740245 
L 598.972154 101.875666 
L 609.227637 110.011086 
L 619.483121 118.146507 
L 629.738605 126.281927 
L 639.994088 134.417348 
L 650.249572 142.552768 
L 660.505055 150.688188 
L 670.760539 158.823609 
L 681.016023 166.959029 
L 691.271506 175.09445 
L 701.52699 183.22987 
L 711.782473 191.365291 
L 722.037957 199.500711 
L 732.293441 207.636131 
L 742.548924 215.771552 
L 752.804408 223.906972 
L 763.059892 232.042393 
L 773.315375 240.177813 
L 783.570859 248.313234 
L 793.826342 256.448654 
L 804.081826 264.584074 
L 814.33731 272.719495 
L 824.592793 280.854915 
" style="fill:none;stroke:#808080;stroke-dasharray:3.7,1.6;stroke-dashoffset:0;"/>
   </g>
   <g id="line2d_23">
    <path clip-path="url(#p767c0f98f8)" d="M 578.461187 293.018822 
L 578.461187 25.412865 
" style="fill:none;stroke:#ff0000;stroke-dasharray:3.7,1.6;stroke-dashoffset:0;"/>
   </g>
   <g id="patch_3">
    <path d="M 60.04649 293.018822 
L 60.04649 25.412865 
" style="fill:none;stroke:#000000;stroke-linecap:square;stroke-linejoin:miter;stroke-width:0.8;"/>
   </g>
   <g id="patch_4">
    <path d="M 860.99976 293.018822 
L 860.99976 25.412865 
" style="fill:none;stroke:#000000;stroke-linecap:square;stroke-linejoin:miter;stroke-width:0.8;"/>
   </g>
   <g id="patch_5">
    <path d="M 60.04649 293.018822 
L 860.99976 293.018822 
" style="fill:none;stroke:#000000;stroke-linecap:square;stroke-linejoin:miter;stroke-width:0.8;"/>
   </g>
   <g id="text_6">
    <!-- A) EMI (Full Corpus Embeddings) -->
    <g transform="translate(284.170937 19.412865)scale(0.216 -0.216)">
     <defs>
      <path d="M 34.1875 63.1875 
L 20.796875 26.90625 
L 47.609375 26.90625 
z
M 28.609375 72.90625 
L 39.796875 72.90625 
L 67.578125 0 
L 57.328125 0 
L 50.6875 18.703125 
L 17.828125 18.703125 
L 11.1875 0 
L 0.78125 0 
z
" id="DejaVuSans-65"/>
      <path d="M 8.015625 75.875 
L 15.828125 75.875 
Q 23.140625 64.359375 26.78125 53.3125 
Q 30.421875 42.28125 30.421875 31.390625 
Q 30.421875 20.453125 26.78125 9.375 
Q 23.140625 -1.703125 15.828125 -13.1875 
L 8.015625 -13.1875 
Q 14.5 -2 17.703125 9.0625 
Q 20.90625 20.125 20.90625 31.390625 
Q 20.90625 42.671875 17.703125 53.65625 
Q 14.5 64.65625 8.015625 75.875 
z
" id="DejaVuSans-41"/>
      <path id="DejaVuSans-32"/>
      <path d="M 9.8125 72.90625 
L 55.90625 72.90625 
L 55.90625 64.59375 
L 19.671875 64.59375 
L 19.671875 43.015625 
L 54.390625 43.015625 
L 54.390625 34.71875 
L 19.671875 34.71875 
L 19.671875 8.296875 
L 56.78125 8.296875 
L 56.78125 0 
L 9.8125 0 
z
" id="DejaVuSans-69"/>
      <path d="M 9.8125 72.90625 
L 24.515625 72.90625 
L 43.109375 23.296875 
L 61.8125 72.90625 
L 76.515625 72.90625 
L 76.515625 0 
L 66.890625 0 
L 66.890625 64.015625 
L 48.09375 14.015625 
L 38.1875 14.015625 
L 19.390625 64.015625 
L 19.390625 0 
L 9.8125 0 
z
" id="DejaVuSans-77"/>
      <path d="M 9.8125 72.90625 
L 19.671875 72.90625 
L 19.671875 0 
L 9.8125 0 
z
" id="DejaVuSans-73"/>
      <path d="M 31 75.875 
Q 24.46875 64.65625 21.28125 53.65625 
Q 18.109375 42.671875 18.109375 31.390625 
Q 18.109375 20.125 21.3125 9.0625 
Q 24.515625 -2 31 -13.1875 
L 23.1875 -13.1875 
Q 15.875 -1.703125 12.234375 9.375 
Q 8.59375 20.453125 8.59375 31.390625 
Q 8.59375 42.28125 12.203125 53.3125 
Q 15.828125 64.359375 23.1875 75.875 
z
" id="DejaVuSans-40"/>
      <path d="M 9.8125 72.90625 
L 51.703125 72.90625 
L 51.703125 64.59375 
L 19.671875 64.59375 
L 19.671875 43.109375 
L 48.578125 43.109375 
L 48.578125 34.8125 
L 19.671875 34.8125 
L 19.671875 0 
L 9.8125 0 
z
" id="DejaVuSans-70"/>
      <path d="M 8.5 21.578125 
L 8.5 54.6875 
L 17.484375 54.6875 
L 17.484375 21.921875 
Q 17.484375 14.15625 20.5 10.265625 
Q 23.53125 6.390625 29.59375 6.390625 
Q 36.859375 6.390625 41.078125 11.03125 
Q 45.3125 15.671875 45.3125 23.6875 
L 45.3125 54.6875 
L 54.296875 54.6875 
L 54.296875 0 
L 45.3125 0 
L 45.3125 8.40625 
Q 42.046875 3.421875 37.71875 1 
Q 33.40625 -1.421875 27.6875 -1.421875 
Q 18.265625 -1.421875 13.375 4.4375 
Q 8.5 10.296875 8.5 21.578125 
z
M 31.109375 56 
z
" id="DejaVuSans-117"/>
      <path d="M 9.421875 75.984375 
L 18.40625 75.984375 
L 18.40625 0 
L 9.421875 0 
z
" id="DejaVuSans-108"/>
      <path d="M 64.40625 67.28125 
L 64.40625 56.890625 
Q 59.421875 61.53125 53.78125 63.8125 
Q 48.140625 66.109375 41.796875 66.109375 
Q 29.296875 66.109375 22.65625 58.46875 
Q 16.015625 50.828125 16.015625 36.375 
Q 16.015625 21.96875 22.65625 14.328125 
Q 29.296875 6.6875 41.796875 6.6875 
Q 48.140625 6.6875 53.78125 8.984375 
Q 59.421875 11.28125 64.40625 15.921875 
L 64.40625 5.609375 
Q 59.234375 2.09375 53.4375 0.328125 
Q 47.65625 -1.421875 41.21875 -1.421875 
Q 24.65625 -1.421875 15.125 8.703125 
Q 5.609375 18.84375 5.609375 36.375 
Q 5.609375 53.953125 15.125 64.078125 
Q 24.65625 74.21875 41.21875 74.21875 
Q 47.75 74.21875 53.53125 72.484375 
Q 59.328125 70.75 64.40625 67.28125 
z
" id="DejaVuSans-67"/>
      <path d="M 30.609375 48.390625 
Q 23.390625 48.390625 19.1875 42.75 
Q 14.984375 37.109375 14.984375 27.296875 
Q 14.984375 17.484375 19.15625 11.84375 
Q 23.34375 6.203125 30.609375 6.203125 
Q 37.796875 6.203125 41.984375 11.859375 
Q 46.1875 17.53125 46.1875 27.296875 
Q 46.1875 37.015625 41.984375 42.703125 
Q 37.796875 48.390625 30.609375 48.390625 
z
M 30.609375 56 
Q 42.328125 56 49.015625 48.375 
Q 55.71875 40.765625 55.71875 27.296875 
Q 55.71875 13.875 49.015625 6.21875 
Q 42.328125 -1.421875 30.609375 -1.421875 
Q 18.84375 -1.421875 12.171875 6.21875 
Q 5.515625 13.875 5.515625 27.296875 
Q 5.515625 40.765625 12.171875 48.375 
Q 18.84375 56 30.609375 56 
z
" id="DejaVuSans-111"/>
      <path d="M 41.109375 46.296875 
Q 39.59375 47.171875 37.8125 47.578125 
Q 36.03125 48 33.890625 48 
Q 26.265625 48 22.1875 43.046875 
Q 18.109375 38.09375 18.109375 28.8125 
L 18.109375 0 
L 9.078125 0 
L 9.078125 54.6875 
L 18.109375 54.6875 
L 18.109375 46.1875 
Q 20.953125 51.171875 25.484375 53.578125 
Q 30.03125 56 36.53125 56 
Q 37.453125 56 38.578125 55.875 
Q 39.703125 55.765625 41.0625 55.515625 
z
" id="DejaVuSans-114"/>
      <path d="M 18.109375 8.203125 
L 18.109375 -20.796875 
L 9.078125 -20.796875 
L 9.078125 54.6875 
L 18.109375 54.6875 
L 18.109375 46.390625 
Q 20.953125 51.265625 25.265625 53.625 
Q 29.59375 56 35.59375 56 
Q 45.5625 56 51.78125 48.09375 
Q 58.015625 40.1875 58.015625 27.296875 
Q 58.015625 14.40625 51.78125 6.484375 
Q 45.5625 -1.421875 35.59375 -1.421875 
Q 29.59375 -1.421875 25.265625 0.953125 
Q 20.953125 3.328125 18.109375 8.203125 
z
M 48.6875 27.296875 
Q 48.6875 37.203125 44.609375 42.84375 
Q 40.53125 48.484375 33.40625 48.484375 
Q 26.265625 48.484375 22.1875 42.84375 
Q 18.109375 37.203125 18.109375 27.296875 
Q 18.109375 17.390625 22.1875 11.75 
Q 26.265625 6.109375 33.40625 6.109375 
Q 40.53125 6.109375 44.609375 11.75 
Q 48.6875 17.390625 48.6875 27.296875 
z
" id="DejaVuSans-112"/>
      <path d="M 44.28125 53.078125 
L 44.28125 44.578125 
Q 40.484375 46.53125 36.375 47.5 
Q 32.28125 48.484375 27.875 48.484375 
Q 21.1875 48.484375 17.84375 46.4375 
Q 14.5 44.390625 14.5 40.28125 
Q 14.5 37.15625 16.890625 35.375 
Q 19.28125 33.59375 26.515625 31.984375 
L 29.59375 31.296875 
Q 39.15625 29.25 43.1875 25.515625 
Q 47.21875 21.78125 47.21875 15.09375 
Q 47.21875 7.46875 41.1875 3.015625 
Q 35.15625 -1.421875 24.609375 -1.421875 
Q 20.21875 -1.421875 15.453125 -0.5625 
Q 10.6875 0.296875 5.421875 2 
L 5.421875 11.28125 
Q 10.40625 8.6875 15.234375 7.390625 
Q 20.0625 6.109375 24.8125 6.109375 
Q 31.15625 6.109375 34.5625 8.28125 
Q 37.984375 10.453125 37.984375 14.40625 
Q 37.984375 18.0625 35.515625 20.015625 
Q 33.0625 21.96875 24.703125 23.78125 
L 21.578125 24.515625 
Q 13.234375 26.265625 9.515625 29.90625 
Q 5.8125 33.546875 5.8125 39.890625 
Q 5.8125 47.609375 11.28125 51.796875 
Q 16.75 56 26.8125 56 
Q 31.78125 56 36.171875 55.265625 
Q 40.578125 54.546875 44.28125 53.078125 
z
" id="DejaVuSans-115"/>
      <path d="M 52 44.1875 
Q 55.375 50.25 60.0625 53.125 
Q 64.75 56 71.09375 56 
Q 79.640625 56 84.28125 50.015625 
Q 88.921875 44.046875 88.921875 33.015625 
L 88.921875 0 
L 79.890625 0 
L 79.890625 32.71875 
Q 79.890625 40.578125 77.09375 44.375 
Q 74.3125 48.1875 68.609375 48.1875 
Q 61.625 48.1875 57.5625 43.546875 
Q 53.515625 38.921875 53.515625 30.90625 
L 53.515625 0 
L 44.484375 0 
L 44.484375 32.71875 
Q 44.484375 40.625 41.703125 44.40625 
Q 38.921875 48.1875 33.109375 48.1875 
Q 26.21875 48.1875 22.15625 43.53125 
Q 18.109375 38.875 18.109375 30.90625 
L 18.109375 0 
L 9.078125 0 
L 9.078125 54.6875 
L 18.109375 54.6875 
L 18.109375 46.1875 
Q 21.1875 51.21875 25.484375 53.609375 
Q 29.78125 56 35.6875 56 
Q 41.65625 56 45.828125 52.96875 
Q 50 49.953125 52 44.1875 
z
" id="DejaVuSans-109"/>
      <path d="M 48.6875 27.296875 
Q 48.6875 37.203125 44.609375 42.84375 
Q 40.53125 48.484375 33.40625 48.484375 
Q 26.265625 48.484375 22.1875 42.84375 
Q 18.109375 37.203125 18.109375 27.296875 
Q 18.109375 17.390625 22.1875 11.75 
Q 26.265625 6.109375 33.40625 6.109375 
Q 40.53125 6.109375 44.609375 11.75 
Q 48.6875 17.390625 48.6875 27.296875 
z
M 18.109375 46.390625 
Q 20.953125 51.265625 25.265625 53.625 
Q 29.59375 56 35.59375 56 
Q 45.5625 56 51.78125 48.09375 
Q 58.015625 40.1875 58.015625 27.296875 
Q 58.015625 14.40625 51.78125 6.484375 
Q 45.5625 -1.421875 35.59375 -1.421875 
Q 29.59375 -1.421875 25.265625 0.953125 
Q 20.953125 3.328125 18.109375 8.203125 
L 18.109375 0 
L 9.078125 0 
L 9.078125 75.984375 
L 18.109375 75.984375 
z
" id="DejaVuSans-98"/>
      <path d="M 56.203125 29.59375 
L 56.203125 25.203125 
L 14.890625 25.203125 
Q 15.484375 15.921875 20.484375 11.0625 
Q 25.484375 6.203125 34.421875 6.203125 
Q 39.59375 6.203125 44.453125 7.46875 
Q 49.3125 8.734375 54.109375 11.28125 
L 54.109375 2.78125 
Q 49.265625 0.734375 44.1875 -0.34375 
Q 39.109375 -1.421875 33.890625 -1.421875 
Q 20.796875 -1.421875 13.15625 6.1875 
Q 5.515625 13.8125 5.515625 26.8125 
Q 5.515625 40.234375 12.765625 48.109375 
Q 20.015625 56 32.328125 56 
Q 43.359375 56 49.78125 48.890625 
Q 56.203125 41.796875 56.203125 29.59375 
z
M 47.21875 32.234375 
Q 47.125 39.59375 43.09375 43.984375 
Q 39.0625 48.390625 32.421875 48.390625 
Q 24.90625 48.390625 20.390625 44.140625 
Q 15.875 39.890625 15.1875 32.171875 
z
" id="DejaVuSans-101"/>
      <path d="M 45.40625 46.390625 
L 45.40625 75.984375 
L 54.390625 75.984375 
L 54.390625 0 
L 45.40625 0 
L 45.40625 8.203125 
Q 42.578125 3.328125 38.25 0.953125 
Q 33.9375 -1.421875 27.875 -1.421875 
Q 17.96875 -1.421875 11.734375 6.484375 
Q 5.515625 14.40625 5.515625 27.296875 
Q 5.515625 40.1875 11.734375 48.09375 
Q 17.96875 56 27.875 56 
Q 33.9375 56 38.25 53.625 
Q 42.578125 51.265625 45.40625 46.390625 
z
M 14.796875 27.296875 
Q 14.796875 17.390625 18.875 11.75 
Q 22.953125 6.109375 30.078125 6.109375 
Q 37.203125 6.109375 41.296875 11.75 
Q 45.40625 17.390625 45.40625 27.296875 
Q 45.40625 37.203125 41.296875 42.84375 
Q 37.203125 48.484375 30.078125 48.484375 
Q 22.953125 48.484375 18.875 42.84375 
Q 14.796875 37.203125 14.796875 27.296875 
z
" id="DejaVuSans-100"/>
      <path d="M 9.421875 54.6875 
L 18.40625 54.6875 
L 18.40625 0 
L 9.421875 0 
z
M 9.421875 75.984375 
L 18.40625 75.984375 
L 18.40625 64.59375 
L 9.421875 64.59375 
z
" id="DejaVuSans-105"/>
      <path d="M 54.890625 33.015625 
L 54.890625 0 
L 45.90625 0 
L 45.90625 32.71875 
Q 45.90625 40.484375 42.875 44.328125 
Q 39.84375 48.1875 33.796875 48.1875 
Q 26.515625 48.1875 22.3125 43.546875 
Q 18.109375 38.921875 18.109375 30.90625 
L 18.109375 0 
L 9.078125 0 
L 9.078125 54.6875 
L 18.109375 54.6875 
L 18.109375 46.1875 
Q 21.34375 51.125 25.703125 53.5625 
Q 30.078125 56 35.796875 56 
Q 45.21875 56 50.046875 50.171875 
Q 54.890625 44.34375 54.890625 33.015625 
z
" id="DejaVuSans-110"/>
      <path d="M 45.40625 27.984375 
Q 45.40625 37.75 41.375 43.109375 
Q 37.359375 48.484375 30.078125 48.484375 
Q 22.859375 48.484375 18.828125 43.109375 
Q 14.796875 37.75 14.796875 27.984375 
Q 14.796875 18.265625 18.828125 12.890625 
Q 22.859375 7.515625 30.078125 7.515625 
Q 37.359375 7.515625 41.375 12.890625 
Q 45.40625 18.265625 45.40625 27.984375 
z
M 54.390625 6.78125 
Q 54.390625 -7.171875 48.1875 -13.984375 
Q 42 -20.796875 29.203125 -20.796875 
Q 24.46875 -20.796875 20.265625 -20.09375 
Q 16.0625 -19.390625 12.109375 -17.921875 
L 12.109375 -9.1875 
Q 16.0625 -11.328125 19.921875 -12.34375 
Q 23.78125 -13.375 27.78125 -13.375 
Q 36.625 -13.375 41.015625 -8.765625 
Q 45.40625 -4.15625 45.40625 5.171875 
L 45.40625 9.625 
Q 42.625 4.78125 38.28125 2.390625 
Q 33.9375 0 27.875 0 
Q 17.828125 0 11.671875 7.65625 
Q 5.515625 15.328125 5.515625 27.984375 
Q 5.515625 40.671875 11.671875 48.328125 
Q 17.828125 56 27.875 56 
Q 33.9375 56 38.28125 53.609375 
Q 42.625 51.21875 45.40625 46.390625 
L 45.40625 54.6875 
L 54.390625 54.6875 
z
" id="DejaVuSans-103"/>
     </defs>
     <use xlink:href="#DejaVuSans-65"/>
     <use x="68.408203" xlink:href="#DejaVuSans-41"/>
     <use x="107.421875" xlink:href="#DejaVuSans-32"/>
     <use x="139.208984" xlink:href="#DejaVuSans-69"/>
     <use x="202.392578" xlink:href="#DejaVuSans-77"/>
     <use x="288.671875" xlink:href="#DejaVuSans-73"/>
     <use x="318.164062" xlink:href="#DejaVuSans-32"/>
     <use x="349.951172" xlink:href="#DejaVuSans-40"/>
     <use x="388.964844" xlink:href="#DejaVuSans-70"/>
     <use x="440.984375" xlink:href="#DejaVuSans-117"/>
     <use x="504.363281" xlink:href="#DejaVuSans-108"/>
     <use x="532.146484" xlink:href="#DejaVuSans-108"/>
     <use x="559.929688" xlink:href="#DejaVuSans-32"/>
     <use x="591.716797" xlink:href="#DejaVuSans-67"/>
     <use x="661.541016" xlink:href="#DejaVuSans-111"/>
     <use x="722.722656" xlink:href="#DejaVuSans-114"/>
     <use x="763.835938" xlink:href="#DejaVuSans-112"/>
     <use x="827.3125" xlink:href="#DejaVuSans-117"/>
     <use x="890.691406" xlink:href="#DejaVuSans-115"/>
     <use x="942.791016" xlink:href="#DejaVuSans-32"/>
     <use x="974.578125" xlink:href="#DejaVuSans-69"/>
     <use x="1037.761719" xlink:href="#DejaVuSans-109"/>
     <use x="1135.173828" xlink:href="#DejaVuSans-98"/>
     <use x="1198.650391" xlink:href="#DejaVuSans-101"/>
     <use x="1260.173828" xlink:href="#DejaVuSans-100"/>
     <use x="1323.650391" xlink:href="#DejaVuSans-100"/>
     <use x="1387.126953" xlink:href="#DejaVuSans-105"/>
     <use x="1414.910156" xlink:href="#DejaVuSans-110"/>
     <use x="1478.289062" xlink:href="#DejaVuSans-103"/>
     <use x="1541.765625" xlink:href="#DejaVuSans-115"/>
     <use x="1593.865234" xlink:href="#DejaVuSans-41"/>
    </g>
   </g>
   <g id="legend_1">
    <g id="patch_6">
     <path d="M 712.19601 92.654115 
L 848.39976 92.654115 
Q 851.99976 92.654115 851.99976 89.054115 
L 851.99976 38.012865 
Q 851.99976 34.412865 848.39976 34.412865 
L 712.19601 34.412865 
Q 708.59601 34.412865 708.59601 38.012865 
L 708.59601 89.054115 
Q 708.59601 92.654115 712.19601 92.654115 
z
" style="fill:#ffffff;opacity:0.8;stroke:#cccccc;stroke-linejoin:miter;"/>
    </g>
    <g id="line2d_24">
     <path d="M 715.79601 48.990052 
L 751.79601 48.990052 
" style="fill:none;stroke:#000000;stroke-linecap:square;"/>
    </g>
    <g id="line2d_25">
     <g>
      <use style="stroke:#000000;" x="733.79601" xlink:href="#m6af8e91fc8" y="48.990052"/>
     </g>
    </g>
    <g id="text_7">
     <!-- EMI -->
     <g transform="translate(766.19601 55.290052)scale(0.18 -0.18)">
      <use xlink:href="#DejaVuSans-69"/>
      <use x="63.183594" xlink:href="#DejaVuSans-77"/>
      <use x="149.462891" xlink:href="#DejaVuSans-73"/>
     </g>
    </g>
    <g id="line2d_26">
     <path d="M 715.79601 75.410677 
L 751.79601 75.410677 
" style="fill:none;stroke:#808080;stroke-dasharray:3.7,1.6;stroke-dashoffset:0;"/>
    </g>
    <g id="line2d_27"/>
    <g id="text_8">
     <!-- MARS Fit -->
     <g transform="translate(766.19601 81.710677)scale(0.18 -0.18)">
      <defs>
       <path d="M 44.390625 34.1875 
Q 47.5625 33.109375 50.5625 29.59375 
Q 53.5625 26.078125 56.59375 19.921875 
L 66.609375 0 
L 56 0 
L 46.6875 18.703125 
Q 43.0625 26.03125 39.671875 28.421875 
Q 36.28125 30.8125 30.421875 30.8125 
L 19.671875 30.8125 
L 19.671875 0 
L 9.8125 0 
L 9.8125 72.90625 
L 32.078125 72.90625 
Q 44.578125 72.90625 50.734375 67.671875 
Q 56.890625 62.453125 56.890625 51.90625 
Q 56.890625 45.015625 53.6875 40.46875 
Q 50.484375 35.9375 44.390625 34.1875 
z
M 19.671875 64.796875 
L 19.671875 38.921875 
L 32.078125 38.921875 
Q 39.203125 38.921875 42.84375 42.21875 
Q 46.484375 45.515625 46.484375 51.90625 
Q 46.484375 58.296875 42.84375 61.546875 
Q 39.203125 64.796875 32.078125 64.796875 
z
" id="DejaVuSans-82"/>
       <path d="M 53.515625 70.515625 
L 53.515625 60.890625 
Q 47.90625 63.578125 42.921875 64.890625 
Q 37.9375 66.21875 33.296875 66.21875 
Q 25.25 66.21875 20.875 63.09375 
Q 16.5 59.96875 16.5 54.203125 
Q 16.5 49.359375 19.40625 46.890625 
Q 22.3125 44.4375 30.421875 42.921875 
L 36.375 41.703125 
Q 47.40625 39.59375 52.65625 34.296875 
Q 57.90625 29 57.90625 20.125 
Q 57.90625 9.515625 50.796875 4.046875 
Q 43.703125 -1.421875 29.984375 -1.421875 
Q 24.8125 -1.421875 18.96875 -0.25 
Q 13.140625 0.921875 6.890625 3.21875 
L 6.890625 13.375 
Q 12.890625 10.015625 18.65625 8.296875 
Q 24.421875 6.59375 29.984375 6.59375 
Q 38.421875 6.59375 43.015625 9.90625 
Q 47.609375 13.234375 47.609375 19.390625 
Q 47.609375 24.75 44.3125 27.78125 
Q 41.015625 30.8125 33.5 32.328125 
L 27.484375 33.5 
Q 16.453125 35.6875 11.515625 40.375 
Q 6.59375 45.0625 6.59375 53.421875 
Q 6.59375 63.09375 13.40625 68.65625 
Q 20.21875 74.21875 32.171875 74.21875 
Q 37.3125 74.21875 42.625 73.28125 
Q 47.953125 72.359375 53.515625 70.515625 
z
" id="DejaVuSans-83"/>
       <path d="M 18.3125 70.21875 
L 18.3125 54.6875 
L 36.8125 54.6875 
L 36.8125 47.703125 
L 18.3125 47.703125 
L 18.3125 18.015625 
Q 18.3125 11.328125 20.140625 9.421875 
Q 21.96875 7.515625 27.59375 7.515625 
L 36.8125 7.515625 
L 36.8125 0 
L 27.59375 0 
Q 17.1875 0 13.234375 3.875 
Q 9.28125 7.765625 9.28125 18.015625 
L 9.28125 47.703125 
L 2.6875 47.703125 
L 2.6875 54.6875 
L 9.28125 54.6875 
L 9.28125 70.21875 
z
" id="DejaVuSans-116"/>
      </defs>
      <use xlink:href="#DejaVuSans-77"/>
      <use x="86.279297" xlink:href="#DejaVuSans-65"/>
      <use x="154.6875" xlink:href="#DejaVuSans-82"/>
      <use x="224.169922" xlink:href="#DejaVuSans-83"/>
      <use x="287.646484" xlink:href="#DejaVuSans-32"/>
      <use x="319.433594" xlink:href="#DejaVuSans-70"/>
      <use x="369.703125" xlink:href="#DejaVuSans-105"/>
      <use x="397.486328" xlink:href="#DejaVuSans-116"/>
     </g>
    </g>
   </g>
  </g>
  <g id="axes_2">
   <g id="patch_7">
    <path d="M 60.04649 599.017885 
L 860.99976 599.017885 
L 860.99976 331.411928 
L 60.04649 331.411928 
z
" style="fill:#ffffff;"/>
   </g>
   <g id="matplotlib.axis_3">
    <g id="xtick_9">
     <g id="line2d_28">
      <path clip-path="url(#p024b6d16b1)" d="M 101.581199 599.017885 
L 101.581199 331.411928 
" style="fill:none;stroke:#b0b0b0;stroke-linecap:square;stroke-width:0.8;"/>
     </g>
     <g id="line2d_29">
      <g>
       <use style="stroke:#000000;stroke-width:0.8;" x="101.581199" xlink:href="#m3108155b0e" y="599.017885"/>
      </g>
     </g>
     <g id="text_9">
      <!-- 1880 -->
      <g transform="translate(78.676199 619.695072)scale(0.18 -0.18)">
       <defs>
        <path d="M 12.40625 8.296875 
L 28.515625 8.296875 
L 28.515625 63.921875 
L 10.984375 60.40625 
L 10.984375 69.390625 
L 28.421875 72.90625 
L 38.28125 72.90625 
L 38.28125 8.296875 
L 54.390625 8.296875 
L 54.390625 0 
L 12.40625 0 
z
" id="DejaVuSans-49"/>
        <path d="M 31.78125 34.625 
Q 24.75 34.625 20.71875 30.859375 
Q 16.703125 27.09375 16.703125 20.515625 
Q 16.703125 13.921875 20.71875 10.15625 
Q 24.75 6.390625 31.78125 6.390625 
Q 38.8125 6.390625 42.859375 10.171875 
Q 46.921875 13.96875 46.921875 20.515625 
Q 46.921875 27.09375 42.890625 30.859375 
Q 38.875 34.625 31.78125 34.625 
z
M 21.921875 38.8125 
Q 15.578125 40.375 12.03125 44.71875 
Q 8.5 49.078125 8.5 55.328125 
Q 8.5 64.0625 14.71875 69.140625 
Q 20.953125 74.21875 31.78125 74.21875 
Q 42.671875 74.21875 48.875 69.140625 
Q 55.078125 64.0625 55.078125 55.328125 
Q 55.078125 49.078125 51.53125 44.71875 
Q 48 40.375 41.703125 38.8125 
Q 48.828125 37.15625 52.796875 32.3125 
Q 56.78125 27.484375 56.78125 20.515625 
Q 56.78125 9.90625 50.3125 4.234375 
Q 43.84375 -1.421875 31.78125 -1.421875 
Q 19.734375 -1.421875 13.25 4.234375 
Q 6.78125 9.90625 6.78125 20.515625 
Q 6.78125 27.484375 10.78125 32.3125 
Q 14.796875 37.15625 21.921875 38.8125 
z
M 18.3125 54.390625 
Q 18.3125 48.734375 21.84375 45.5625 
Q 25.390625 42.390625 31.78125 42.390625 
Q 38.140625 42.390625 41.71875 45.5625 
Q 45.3125 48.734375 45.3125 54.390625 
Q 45.3125 60.0625 41.71875 63.234375 
Q 38.140625 66.40625 31.78125 66.40625 
Q 25.390625 66.40625 21.84375 63.234375 
Q 18.3125 60.0625 18.3125 54.390625 
z
" id="DejaVuSans-56"/>
       </defs>
       <use xlink:href="#DejaVuSans-49"/>
       <use x="63.623047" xlink:href="#DejaVuSans-56"/>
       <use x="127.246094" xlink:href="#DejaVuSans-56"/>
       <use x="190.869141" xlink:href="#DejaVuSans-48"/>
      </g>
     </g>
    </g>
    <g id="xtick_10">
     <g id="line2d_30">
      <path clip-path="url(#p024b6d16b1)" d="M 204.136035 599.017885 
L 204.136035 331.411928 
" style="fill:none;stroke:#b0b0b0;stroke-linecap:square;stroke-width:0.8;"/>
     </g>
     <g id="line2d_31">
      <g>
       <use style="stroke:#000000;stroke-width:0.8;" x="204.136035" xlink:href="#m3108155b0e" y="599.017885"/>
      </g>
     </g>
     <g id="text_10">
      <!-- 1900 -->
      <g transform="translate(181.231035 619.695072)scale(0.18 -0.18)">
       <defs>
        <path d="M 10.984375 1.515625 
L 10.984375 10.5 
Q 14.703125 8.734375 18.5 7.8125 
Q 22.3125 6.890625 25.984375 6.890625 
Q 35.75 6.890625 40.890625 13.453125 
Q 46.046875 20.015625 46.78125 33.40625 
Q 43.953125 29.203125 39.59375 26.953125 
Q 35.25 24.703125 29.984375 24.703125 
Q 19.046875 24.703125 12.671875 31.3125 
Q 6.296875 37.9375 6.296875 49.421875 
Q 6.296875 60.640625 12.9375 67.421875 
Q 19.578125 74.21875 30.609375 74.21875 
Q 43.265625 74.21875 49.921875 64.515625 
Q 56.59375 54.828125 56.59375 36.375 
Q 56.59375 19.140625 48.40625 8.859375 
Q 40.234375 -1.421875 26.421875 -1.421875 
Q 22.703125 -1.421875 18.890625 -0.6875 
Q 15.09375 0.046875 10.984375 1.515625 
z
M 30.609375 32.421875 
Q 37.25 32.421875 41.125 36.953125 
Q 45.015625 41.5 45.015625 49.421875 
Q 45.015625 57.28125 41.125 61.84375 
Q 37.25 66.40625 30.609375 66.40625 
Q 23.96875 66.40625 20.09375 61.84375 
Q 16.21875 57.28125 16.21875 49.421875 
Q 16.21875 41.5 20.09375 36.953125 
Q 23.96875 32.421875 30.609375 32.421875 
z
" id="DejaVuSans-57"/>
       </defs>
       <use xlink:href="#DejaVuSans-49"/>
       <use x="63.623047" xlink:href="#DejaVuSans-57"/>
       <use x="127.246094" xlink:href="#DejaVuSans-48"/>
       <use x="190.869141" xlink:href="#DejaVuSans-48"/>
      </g>
     </g>
    </g>
    <g id="xtick_11">
     <g id="line2d_32">
      <path clip-path="url(#p024b6d16b1)" d="M 306.690871 599.017885 
L 306.690871 331.411928 
" style="fill:none;stroke:#b0b0b0;stroke-linecap:square;stroke-width:0.8;"/>
     </g>
     <g id="line2d_33">
      <g>
       <use style="stroke:#000000;stroke-width:0.8;" x="306.690871" xlink:href="#m3108155b0e" y="599.017885"/>
      </g>
     </g>
     <g id="text_11">
      <!-- 1920 -->
      <g transform="translate(283.785871 619.695072)scale(0.18 -0.18)">
       <use xlink:href="#DejaVuSans-49"/>
       <use x="63.623047" xlink:href="#DejaVuSans-57"/>
       <use x="127.246094" xlink:href="#DejaVuSans-50"/>
       <use x="190.869141" xlink:href="#DejaVuSans-48"/>
      </g>
     </g>
    </g>
    <g id="xtick_12">
     <g id="line2d_34">
      <path clip-path="url(#p024b6d16b1)" d="M 409.245707 599.017885 
L 409.245707 331.411928 
" style="fill:none;stroke:#b0b0b0;stroke-linecap:square;stroke-width:0.8;"/>
     </g>
     <g id="line2d_35">
      <g>
       <use style="stroke:#000000;stroke-width:0.8;" x="409.245707" xlink:href="#m3108155b0e" y="599.017885"/>
      </g>
     </g>
     <g id="text_12">
      <!-- 1940 -->
      <g transform="translate(386.340707 619.695072)scale(0.18 -0.18)">
       <use xlink:href="#DejaVuSans-49"/>
       <use x="63.623047" xlink:href="#DejaVuSans-57"/>
       <use x="127.246094" xlink:href="#DejaVuSans-52"/>
       <use x="190.869141" xlink:href="#DejaVuSans-48"/>
      </g>
     </g>
    </g>
    <g id="xtick_13">
     <g id="line2d_36">
      <path clip-path="url(#p024b6d16b1)" d="M 511.800543 599.017885 
L 511.800543 331.411928 
" style="fill:none;stroke:#b0b0b0;stroke-linecap:square;stroke-width:0.8;"/>
     </g>
     <g id="line2d_37">
      <g>
       <use style="stroke:#000000;stroke-width:0.8;" x="511.800543" xlink:href="#m3108155b0e" y="599.017885"/>
      </g>
     </g>
     <g id="text_13">
      <!-- 1960 -->
      <g transform="translate(488.895543 619.695072)scale(0.18 -0.18)">
       <use xlink:href="#DejaVuSans-49"/>
       <use x="63.623047" xlink:href="#DejaVuSans-57"/>
       <use x="127.246094" xlink:href="#DejaVuSans-54"/>
       <use x="190.869141" xlink:href="#DejaVuSans-48"/>
      </g>
     </g>
    </g>
    <g id="xtick_14">
     <g id="line2d_38">
      <path clip-path="url(#p024b6d16b1)" d="M 614.355379 599.017885 
L 614.355379 331.411928 
" style="fill:none;stroke:#b0b0b0;stroke-linecap:square;stroke-width:0.8;"/>
     </g>
     <g id="line2d_39">
      <g>
       <use style="stroke:#000000;stroke-width:0.8;" x="614.355379" xlink:href="#m3108155b0e" y="599.017885"/>
      </g>
     </g>
     <g id="text_14">
      <!-- 1980 -->
      <g transform="translate(591.450379 619.695072)scale(0.18 -0.18)">
       <use xlink:href="#DejaVuSans-49"/>
       <use x="63.623047" xlink:href="#DejaVuSans-57"/>
       <use x="127.246094" xlink:href="#DejaVuSans-56"/>
       <use x="190.869141" xlink:href="#DejaVuSans-48"/>
      </g>
     </g>
    </g>
    <g id="xtick_15">
     <g id="line2d_40">
      <path clip-path="url(#p024b6d16b1)" d="M 716.910215 599.017885 
L 716.910215 331.411928 
" style="fill:none;stroke:#b0b0b0;stroke-linecap:square;stroke-width:0.8;"/>
     </g>
     <g id="line2d_41">
      <g>
       <use style="stroke:#000000;stroke-width:0.8;" x="716.910215" xlink:href="#m3108155b0e" y="599.017885"/>
      </g>
     </g>
     <g id="text_15">
      <!-- 2000 -->
      <g transform="translate(694.005215 619.695072)scale(0.18 -0.18)">
       <use xlink:href="#DejaVuSans-50"/>
       <use x="63.623047" xlink:href="#DejaVuSans-48"/>
       <use x="127.246094" xlink:href="#DejaVuSans-48"/>
       <use x="190.869141" xlink:href="#DejaVuSans-48"/>
      </g>
     </g>
    </g>
    <g id="xtick_16">
     <g id="line2d_42">
      <path clip-path="url(#p024b6d16b1)" d="M 819.465051 599.017885 
L 819.465051 331.411928 
" style="fill:none;stroke:#b0b0b0;stroke-linecap:square;stroke-width:0.8;"/>
     </g>
     <g id="line2d_43">
      <g>
       <use style="stroke:#000000;stroke-width:0.8;" x="819.465051" xlink:href="#m3108155b0e" y="599.017885"/>
      </g>
     </g>
     <g id="text_16">
      <!-- 2020 -->
      <g transform="translate(796.560051 619.695072)scale(0.18 -0.18)">
       <use xlink:href="#DejaVuSans-50"/>
       <use x="63.623047" xlink:href="#DejaVuSans-48"/>
       <use x="127.246094" xlink:href="#DejaVuSans-50"/>
       <use x="190.869141" xlink:href="#DejaVuSans-48"/>
      </g>
     </g>
    </g>
    <g id="text_17">
     <!-- Starting year -->
     <g transform="translate(393.376094 641.115697)scale(0.18 -0.18)">
      <defs>
       <path d="M 59.90625 70.609375 
L 59.90625 55.171875 
Q 53.90625 57.859375 48.1875 59.21875 
Q 42.484375 60.59375 37.40625 60.59375 
Q 30.671875 60.59375 27.4375 58.734375 
Q 24.21875 56.890625 24.21875 52.984375 
Q 24.21875 50.046875 26.390625 48.40625 
Q 28.5625 46.78125 34.28125 45.609375 
L 42.28125 44 
Q 54.4375 41.546875 59.5625 36.5625 
Q 64.703125 31.59375 64.703125 22.40625 
Q 64.703125 10.359375 57.546875 4.46875 
Q 50.390625 -1.421875 35.6875 -1.421875 
Q 28.765625 -1.421875 21.78125 -0.09375 
Q 14.796875 1.21875 7.8125 3.8125 
L 7.8125 19.671875 
Q 14.796875 15.96875 21.3125 14.078125 
Q 27.828125 12.203125 33.890625 12.203125 
Q 40.046875 12.203125 43.3125 14.25 
Q 46.578125 16.3125 46.578125 20.125 
Q 46.578125 23.53125 44.359375 25.390625 
Q 42.140625 27.25 35.5 28.71875 
L 28.21875 30.328125 
Q 17.28125 32.671875 12.21875 37.796875 
Q 7.171875 42.921875 7.171875 51.609375 
Q 7.171875 62.5 14.203125 68.359375 
Q 21.234375 74.21875 34.421875 74.21875 
Q 40.4375 74.21875 46.78125 73.3125 
Q 53.125 72.40625 59.90625 70.609375 
z
" id="DejaVuSans-Bold-83"/>
       <path d="M 27.484375 70.21875 
L 27.484375 54.6875 
L 45.515625 54.6875 
L 45.515625 42.1875 
L 27.484375 42.1875 
L 27.484375 19 
Q 27.484375 15.1875 29 13.84375 
Q 30.515625 12.5 35.015625 12.5 
L 44 12.5 
L 44 0 
L 29 0 
Q 18.65625 0 14.328125 4.3125 
Q 10.015625 8.640625 10.015625 19 
L 10.015625 42.1875 
L 1.3125 42.1875 
L 1.3125 54.6875 
L 10.015625 54.6875 
L 10.015625 70.21875 
z
" id="DejaVuSans-Bold-116"/>
       <path d="M 32.90625 24.609375 
Q 27.4375 24.609375 24.671875 22.75 
Q 21.921875 20.90625 21.921875 17.28125 
Q 21.921875 13.96875 24.140625 12.078125 
Q 26.375 10.203125 30.328125 10.203125 
Q 35.25 10.203125 38.625 13.734375 
Q 42 17.28125 42 22.609375 
L 42 24.609375 
z
M 59.625 31.203125 
L 59.625 0 
L 42 0 
L 42 8.109375 
Q 38.484375 3.125 34.078125 0.84375 
Q 29.6875 -1.421875 23.390625 -1.421875 
Q 14.890625 -1.421875 9.59375 3.53125 
Q 4.296875 8.5 4.296875 16.40625 
Q 4.296875 26.03125 10.90625 30.515625 
Q 17.53125 35.015625 31.6875 35.015625 
L 42 35.015625 
L 42 36.375 
Q 42 40.53125 38.71875 42.453125 
Q 35.453125 44.390625 28.515625 44.390625 
Q 22.90625 44.390625 18.0625 43.265625 
Q 13.234375 42.140625 9.078125 39.890625 
L 9.078125 53.21875 
Q 14.703125 54.59375 20.359375 55.296875 
Q 26.03125 56 31.6875 56 
Q 46.484375 56 53.046875 50.171875 
Q 59.625 44.34375 59.625 31.203125 
z
" id="DejaVuSans-Bold-97"/>
       <path d="M 49.03125 39.796875 
Q 46.734375 40.875 44.453125 41.375 
Q 42.1875 41.890625 39.890625 41.890625 
Q 33.15625 41.890625 29.515625 37.5625 
Q 25.875 33.25 25.875 25.203125 
L 25.875 0 
L 8.40625 0 
L 8.40625 54.6875 
L 25.875 54.6875 
L 25.875 45.703125 
Q 29.25 51.078125 33.609375 53.53125 
Q 37.984375 56 44.09375 56 
Q 44.96875 56 45.984375 55.921875 
Q 47.015625 55.859375 48.96875 55.609375 
z
" id="DejaVuSans-Bold-114"/>
       <path d="M 8.40625 54.6875 
L 25.875 54.6875 
L 25.875 0 
L 8.40625 0 
z
M 8.40625 75.984375 
L 25.875 75.984375 
L 25.875 61.71875 
L 8.40625 61.71875 
z
" id="DejaVuSans-Bold-105"/>
       <path d="M 63.375 33.296875 
L 63.375 0 
L 45.796875 0 
L 45.796875 5.421875 
L 45.796875 25.484375 
Q 45.796875 32.5625 45.484375 35.25 
Q 45.171875 37.9375 44.390625 39.203125 
Q 43.359375 40.921875 41.59375 41.875 
Q 39.84375 42.828125 37.59375 42.828125 
Q 32.125 42.828125 29 38.59375 
Q 25.875 34.375 25.875 26.90625 
L 25.875 0 
L 8.40625 0 
L 8.40625 54.6875 
L 25.875 54.6875 
L 25.875 46.6875 
Q 29.828125 51.46875 34.265625 53.734375 
Q 38.71875 56 44.09375 56 
Q 53.5625 56 58.46875 50.1875 
Q 63.375 44.390625 63.375 33.296875 
z
" id="DejaVuSans-Bold-110"/>
       <path d="M 45.609375 9.28125 
Q 42 4.5 37.640625 2.25 
Q 33.296875 0 27.59375 0 
Q 17.578125 0 11.03125 7.875 
Q 4.5 15.765625 4.5 27.984375 
Q 4.5 40.234375 11.03125 48.0625 
Q 17.578125 55.90625 27.59375 55.90625 
Q 33.296875 55.90625 37.640625 53.65625 
Q 42 51.421875 45.609375 46.578125 
L 45.609375 54.6875 
L 63.1875 54.6875 
L 63.1875 5.515625 
Q 63.1875 -7.671875 54.859375 -14.625 
Q 46.53125 -21.578125 30.71875 -21.578125 
Q 25.59375 -21.578125 20.796875 -20.796875 
Q 16.015625 -20.015625 11.1875 -18.40625 
L 11.1875 -4.78125 
Q 15.765625 -7.421875 20.15625 -8.71875 
Q 24.5625 -10.015625 29 -10.015625 
Q 37.59375 -10.015625 41.59375 -6.25 
Q 45.609375 -2.484375 45.609375 5.515625 
z
M 34.078125 43.3125 
Q 28.65625 43.3125 25.625 39.296875 
Q 22.609375 35.296875 22.609375 27.984375 
Q 22.609375 20.453125 25.53125 16.578125 
Q 28.46875 12.703125 34.078125 12.703125 
Q 39.546875 12.703125 42.578125 16.703125 
Q 45.609375 20.703125 45.609375 27.984375 
Q 45.609375 35.296875 42.578125 39.296875 
Q 39.546875 43.3125 34.078125 43.3125 
z
" id="DejaVuSans-Bold-103"/>
       <path id="DejaVuSans-Bold-32"/>
       <path d="M 1.21875 54.6875 
L 18.703125 54.6875 
L 33.40625 17.578125 
L 45.90625 54.6875 
L 63.375 54.6875 
L 40.375 -5.171875 
Q 36.921875 -14.3125 32.296875 -17.9375 
Q 27.6875 -21.578125 20.125 -21.578125 
L 10.015625 -21.578125 
L 10.015625 -10.109375 
L 15.484375 -10.109375 
Q 19.921875 -10.109375 21.9375 -8.6875 
Q 23.96875 -7.28125 25.09375 -3.609375 
L 25.59375 -2.09375 
z
" id="DejaVuSans-Bold-121"/>
       <path d="M 62.984375 27.484375 
L 62.984375 22.515625 
L 22.125 22.515625 
Q 22.75 16.359375 26.5625 13.28125 
Q 30.375 10.203125 37.203125 10.203125 
Q 42.71875 10.203125 48.5 11.84375 
Q 54.296875 13.484375 60.40625 16.796875 
L 60.40625 3.328125 
Q 54.203125 0.984375 48 -0.21875 
Q 41.796875 -1.421875 35.59375 -1.421875 
Q 20.75 -1.421875 12.515625 6.125 
Q 4.296875 13.671875 4.296875 27.296875 
Q 4.296875 40.671875 12.375 48.328125 
Q 20.453125 56 34.625 56 
Q 47.515625 56 55.25 48.234375 
Q 62.984375 40.484375 62.984375 27.484375 
z
M 45.015625 33.296875 
Q 45.015625 38.28125 42.109375 41.328125 
Q 39.203125 44.390625 34.515625 44.390625 
Q 29.4375 44.390625 26.265625 41.53125 
Q 23.09375 38.671875 22.3125 33.296875 
z
" id="DejaVuSans-Bold-101"/>
      </defs>
      <use xlink:href="#DejaVuSans-Bold-83"/>
      <use x="72.021484" xlink:href="#DejaVuSans-Bold-116"/>
      <use x="119.824219" xlink:href="#DejaVuSans-Bold-97"/>
      <use x="187.304688" xlink:href="#DejaVuSans-Bold-114"/>
      <use x="236.621094" xlink:href="#DejaVuSans-Bold-116"/>
      <use x="284.423828" xlink:href="#DejaVuSans-Bold-105"/>
      <use x="318.701172" xlink:href="#DejaVuSans-Bold-110"/>
      <use x="389.892578" xlink:href="#DejaVuSans-Bold-103"/>
      <use x="461.474609" xlink:href="#DejaVuSans-Bold-32"/>
      <use x="496.289062" xlink:href="#DejaVuSans-Bold-121"/>
      <use x="561.474609" xlink:href="#DejaVuSans-Bold-101"/>
      <use x="629.296875" xlink:href="#DejaVuSans-Bold-97"/>
      <use x="696.777344" xlink:href="#DejaVuSans-Bold-114"/>
     </g>
    </g>
   </g>
   <g id="matplotlib.axis_4">
    <g id="ytick_5">
     <g id="line2d_44">
      <g>
       <use style="stroke:#000000;stroke-width:0.8;" x="60.04649" xlink:href="#maa74e5280d" y="560.751011"/>
      </g>
     </g>
     <g id="text_18">
      <!-- 0.0 -->
      <g transform="translate(24.420865 567.589605)scale(0.18 -0.18)">
       <use xlink:href="#DejaVuSans-48"/>
       <use x="63.623047" xlink:href="#DejaVuSans-46"/>
       <use x="95.410156" xlink:href="#DejaVuSans-48"/>
      </g>
     </g>
    </g>
    <g id="ytick_6">
     <g id="line2d_45">
      <g>
       <use style="stroke:#000000;stroke-width:0.8;" x="60.04649" xlink:href="#maa74e5280d" y="520.586521"/>
      </g>
     </g>
     <g id="text_19">
      <!-- 0.1 -->
      <g transform="translate(24.420865 527.425115)scale(0.18 -0.18)">
       <use xlink:href="#DejaVuSans-48"/>
       <use x="63.623047" xlink:href="#DejaVuSans-46"/>
       <use x="95.410156" xlink:href="#DejaVuSans-49"/>
      </g>
     </g>
    </g>
    <g id="ytick_7">
     <g id="line2d_46">
      <g>
       <use style="stroke:#000000;stroke-width:0.8;" x="60.04649" xlink:href="#maa74e5280d" y="480.422031"/>
      </g>
     </g>
     <g id="text_20">
      <!-- 0.2 -->
      <g transform="translate(24.420865 487.260625)scale(0.18 -0.18)">
       <use xlink:href="#DejaVuSans-48"/>
       <use x="63.623047" xlink:href="#DejaVuSans-46"/>
       <use x="95.410156" xlink:href="#DejaVuSans-50"/>
      </g>
     </g>
    </g>
    <g id="ytick_8">
     <g id="line2d_47">
      <g>
       <use style="stroke:#000000;stroke-width:0.8;" x="60.04649" xlink:href="#maa74e5280d" y="440.257541"/>
      </g>
     </g>
     <g id="text_21">
      <!-- 0.3 -->
      <g transform="translate(24.420865 447.096135)scale(0.18 -0.18)">
       <defs>
        <path d="M 40.578125 39.3125 
Q 47.65625 37.796875 51.625 33 
Q 55.609375 28.21875 55.609375 21.1875 
Q 55.609375 10.40625 48.1875 4.484375 
Q 40.765625 -1.421875 27.09375 -1.421875 
Q 22.515625 -1.421875 17.65625 -0.515625 
Q 12.796875 0.390625 7.625 2.203125 
L 7.625 11.71875 
Q 11.71875 9.328125 16.59375 8.109375 
Q 21.484375 6.890625 26.8125 6.890625 
Q 36.078125 6.890625 40.9375 10.546875 
Q 45.796875 14.203125 45.796875 21.1875 
Q 45.796875 27.640625 41.28125 31.265625 
Q 36.765625 34.90625 28.71875 34.90625 
L 20.21875 34.90625 
L 20.21875 43.015625 
L 29.109375 43.015625 
Q 36.375 43.015625 40.234375 45.921875 
Q 44.09375 48.828125 44.09375 54.296875 
Q 44.09375 59.90625 40.109375 62.90625 
Q 36.140625 65.921875 28.71875 65.921875 
Q 24.65625 65.921875 20.015625 65.03125 
Q 15.375 64.15625 9.8125 62.3125 
L 9.8125 71.09375 
Q 15.4375 72.65625 20.34375 73.4375 
Q 25.25 74.21875 29.59375 74.21875 
Q 40.828125 74.21875 47.359375 69.109375 
Q 53.90625 64.015625 53.90625 55.328125 
Q 53.90625 49.265625 50.4375 45.09375 
Q 46.96875 40.921875 40.578125 39.3125 
z
" id="DejaVuSans-51"/>
       </defs>
       <use xlink:href="#DejaVuSans-48"/>
       <use x="63.623047" xlink:href="#DejaVuSans-46"/>
       <use x="95.410156" xlink:href="#DejaVuSans-51"/>
      </g>
     </g>
    </g>
    <g id="ytick_9">
     <g id="line2d_48">
      <g>
       <use style="stroke:#000000;stroke-width:0.8;" x="60.04649" xlink:href="#maa74e5280d" y="400.093051"/>
      </g>
     </g>
     <g id="text_22">
      <!-- 0.4 -->
      <g transform="translate(24.420865 406.931645)scale(0.18 -0.18)">
       <use xlink:href="#DejaVuSans-48"/>
       <use x="63.623047" xlink:href="#DejaVuSans-46"/>
       <use x="95.410156" xlink:href="#DejaVuSans-52"/>
      </g>
     </g>
    </g>
    <g id="ytick_10">
     <g id="line2d_49">
      <g>
       <use style="stroke:#000000;stroke-width:0.8;" x="60.04649" xlink:href="#maa74e5280d" y="359.928561"/>
      </g>
     </g>
     <g id="text_23">
      <!-- 0.5 -->
      <g transform="translate(24.420865 366.767155)scale(0.18 -0.18)">
       <defs>
        <path d="M 10.796875 72.90625 
L 49.515625 72.90625 
L 49.515625 64.59375 
L 19.828125 64.59375 
L 19.828125 46.734375 
Q 21.96875 47.46875 24.109375 47.828125 
Q 26.265625 48.1875 28.421875 48.1875 
Q 40.625 48.1875 47.75 41.5 
Q 54.890625 34.8125 54.890625 23.390625 
Q 54.890625 11.625 47.5625 5.09375 
Q 40.234375 -1.421875 26.90625 -1.421875 
Q 22.3125 -1.421875 17.546875 -0.640625 
Q 12.796875 0.140625 7.71875 1.703125 
L 7.71875 11.625 
Q 12.109375 9.234375 16.796875 8.0625 
Q 21.484375 6.890625 26.703125 6.890625 
Q 35.15625 6.890625 40.078125 11.328125 
Q 45.015625 15.765625 45.015625 23.390625 
Q 45.015625 31 40.078125 35.4375 
Q 35.15625 39.890625 26.703125 39.890625 
Q 22.75 39.890625 18.8125 39.015625 
Q 14.890625 38.140625 10.796875 36.28125 
z
" id="DejaVuSans-53"/>
       </defs>
       <use xlink:href="#DejaVuSans-48"/>
       <use x="63.623047" xlink:href="#DejaVuSans-46"/>
       <use x="95.410156" xlink:href="#DejaVuSans-53"/>
      </g>
     </g>
    </g>
    <g id="text_24">
     <!-- EMI -->
     <g transform="translate(16.677427 483.667719)rotate(-90)scale(0.18 -0.18)">
      <use xlink:href="#DejaVuSans-Bold-69"/>
      <use x="68.310547" xlink:href="#DejaVuSans-Bold-77"/>
      <use x="167.822266" xlink:href="#DejaVuSans-Bold-73"/>
     </g>
    </g>
   </g>
   <g id="line2d_50">
    <path clip-path="url(#p024b6d16b1)" d="M 96.453457 476.718789 
L 106.70894 491.877238 
L 116.964424 508.575178 
L 127.219908 490.853637 
L 137.475391 499.908535 
L 147.730875 510.000594 
L 157.986358 472.860125 
L 168.241842 519.82178 
L 178.497326 483.79798 
L 188.752809 510.682203 
L 199.008293 508.461601 
L 209.263777 499.00185 
L 219.51926 487.021944 
L 229.774744 471.00152 
L 240.030227 448.419565 
L 250.285711 478.50666 
L 260.541195 482.049595 
L 270.796678 493.922846 
L 281.052162 486.49491 
L 291.307645 496.170739 
L 301.563129 459.694825 
L 311.818613 477.138282 
L 322.074096 480.807673 
L 332.32958 475.368434 
L 342.585063 485.111376 
L 352.840547 461.184122 
L 363.096031 470.111361 
L 373.351514 483.742874 
L 383.606998 462.874364 
L 393.862482 447.772428 
L 404.117965 457.721818 
L 414.373449 444.461878 
L 424.628932 439.569762 
L 434.884416 425.779716 
L 445.1399 386.139039 
L 455.395383 406.476264 
L 465.650867 417.053359 
L 475.90635 397.833125 
L 486.161834 381.188635 
L 496.417318 364.129543 
L 506.672801 433.173674 
L 516.928285 410.081575 
L 527.183768 404.12663 
L 537.439252 380.328369 
L 547.694736 376.023943 
L 557.950219 380.966007 
L 568.205703 364.023545 
L 578.461187 347.729579 
L 588.71667 343.575835 
L 598.972154 357.923532 
L 609.227637 375.468383 
L 619.483121 415.279644 
L 629.738605 421.773522 
L 639.994088 449.938076 
L 650.249572 431.311803 
L 660.505055 450.419407 
L 670.760539 466.145352 
L 681.016023 488.035897 
L 691.271506 545.407809 
L 701.52699 524.503432 
L 711.782473 483.637333 
L 722.037957 479.961127 
L 732.293441 506.83458 
L 742.548924 505.709051 
L 752.804408 527.193632 
L 763.059892 550.445285 
L 773.315375 574.04184 
L 783.570859 563.524784 
L 793.826342 525.281428 
L 804.081826 562.961443 
L 814.33731 553.55597 
L 824.592793 572.019623 
" style="fill:none;stroke:#000000;stroke-linecap:square;"/>
    <g clip-path="url(#p024b6d16b1)">
     <use style="stroke:#000000;" x="96.453457" xlink:href="#m6af8e91fc8" y="476.718789"/>
     <use style="stroke:#000000;" x="106.70894" xlink:href="#m6af8e91fc8" y="491.877238"/>
     <use style="stroke:#000000;" x="116.964424" xlink:href="#m6af8e91fc8" y="508.575178"/>
     <use style="stroke:#000000;" x="127.219908" xlink:href="#m6af8e91fc8" y="490.853637"/>
     <use style="stroke:#000000;" x="137.475391" xlink:href="#m6af8e91fc8" y="499.908535"/>
     <use style="stroke:#000000;" x="147.730875" xlink:href="#m6af8e91fc8" y="510.000594"/>
     <use style="stroke:#000000;" x="157.986358" xlink:href="#m6af8e91fc8" y="472.860125"/>
     <use style="stroke:#000000;" x="168.241842" xlink:href="#m6af8e91fc8" y="519.82178"/>
     <use style="stroke:#000000;" x="178.497326" xlink:href="#m6af8e91fc8" y="483.79798"/>
     <use style="stroke:#000000;" x="188.752809" xlink:href="#m6af8e91fc8" y="510.682203"/>
     <use style="stroke:#000000;" x="199.008293" xlink:href="#m6af8e91fc8" y="508.461601"/>
     <use style="stroke:#000000;" x="209.263777" xlink:href="#m6af8e91fc8" y="499.00185"/>
     <use style="stroke:#000000;" x="219.51926" xlink:href="#m6af8e91fc8" y="487.021944"/>
     <use style="stroke:#000000;" x="229.774744" xlink:href="#m6af8e91fc8" y="471.00152"/>
     <use style="stroke:#000000;" x="240.030227" xlink:href="#m6af8e91fc8" y="448.419565"/>
     <use style="stroke:#000000;" x="250.285711" xlink:href="#m6af8e91fc8" y="478.50666"/>
     <use style="stroke:#000000;" x="260.541195" xlink:href="#m6af8e91fc8" y="482.049595"/>
     <use style="stroke:#000000;" x="270.796678" xlink:href="#m6af8e91fc8" y="493.922846"/>
     <use style="stroke:#000000;" x="281.052162" xlink:href="#m6af8e91fc8" y="486.49491"/>
     <use style="stroke:#000000;" x="291.307645" xlink:href="#m6af8e91fc8" y="496.170739"/>
     <use style="stroke:#000000;" x="301.563129" xlink:href="#m6af8e91fc8" y="459.694825"/>
     <use style="stroke:#000000;" x="311.818613" xlink:href="#m6af8e91fc8" y="477.138282"/>
     <use style="stroke:#000000;" x="322.074096" xlink:href="#m6af8e91fc8" y="480.807673"/>
     <use style="stroke:#000000;" x="332.32958" xlink:href="#m6af8e91fc8" y="475.368434"/>
     <use style="stroke:#000000;" x="342.585063" xlink:href="#m6af8e91fc8" y="485.111376"/>
     <use style="stroke:#000000;" x="352.840547" xlink:href="#m6af8e91fc8" y="461.184122"/>
     <use style="stroke:#000000;" x="363.096031" xlink:href="#m6af8e91fc8" y="470.111361"/>
     <use style="stroke:#000000;" x="373.351514" xlink:href="#m6af8e91fc8" y="483.742874"/>
     <use style="stroke:#000000;" x="383.606998" xlink:href="#m6af8e91fc8" y="462.874364"/>
     <use style="stroke:#000000;" x="393.862482" xlink:href="#m6af8e91fc8" y="447.772428"/>
     <use style="stroke:#000000;" x="404.117965" xlink:href="#m6af8e91fc8" y="457.721818"/>
     <use style="stroke:#000000;" x="414.373449" xlink:href="#m6af8e91fc8" y="444.461878"/>
     <use style="stroke:#000000;" x="424.628932" xlink:href="#m6af8e91fc8" y="439.569762"/>
     <use style="stroke:#000000;" x="434.884416" xlink:href="#m6af8e91fc8" y="425.779716"/>
     <use style="stroke:#000000;" x="445.1399" xlink:href="#m6af8e91fc8" y="386.139039"/>
     <use style="stroke:#000000;" x="455.395383" xlink:href="#m6af8e91fc8" y="406.476264"/>
     <use style="stroke:#000000;" x="465.650867" xlink:href="#m6af8e91fc8" y="417.053359"/>
     <use style="stroke:#000000;" x="475.90635" xlink:href="#m6af8e91fc8" y="397.833125"/>
     <use style="stroke:#000000;" x="486.161834" xlink:href="#m6af8e91fc8" y="381.188635"/>
     <use style="stroke:#000000;" x="496.417318" xlink:href="#m6af8e91fc8" y="364.129543"/>
     <use style="stroke:#000000;" x="506.672801" xlink:href="#m6af8e91fc8" y="433.173674"/>
     <use style="stroke:#000000;" x="516.928285" xlink:href="#m6af8e91fc8" y="410.081575"/>
     <use style="stroke:#000000;" x="527.183768" xlink:href="#m6af8e91fc8" y="404.12663"/>
     <use style="stroke:#000000;" x="537.439252" xlink:href="#m6af8e91fc8" y="380.328369"/>
     <use style="stroke:#000000;" x="547.694736" xlink:href="#m6af8e91fc8" y="376.023943"/>
     <use style="stroke:#000000;" x="557.950219" xlink:href="#m6af8e91fc8" y="380.966007"/>
     <use style="stroke:#000000;" x="568.205703" xlink:href="#m6af8e91fc8" y="364.023545"/>
     <use style="stroke:#000000;" x="578.461187" xlink:href="#m6af8e91fc8" y="347.729579"/>
     <use style="stroke:#000000;" x="588.71667" xlink:href="#m6af8e91fc8" y="343.575835"/>
     <use style="stroke:#000000;" x="598.972154" xlink:href="#m6af8e91fc8" y="357.923532"/>
     <use style="stroke:#000000;" x="609.227637" xlink:href="#m6af8e91fc8" y="375.468383"/>
     <use style="stroke:#000000;" x="619.483121" xlink:href="#m6af8e91fc8" y="415.279644"/>
     <use style="stroke:#000000;" x="629.738605" xlink:href="#m6af8e91fc8" y="421.773522"/>
     <use style="stroke:#000000;" x="639.994088" xlink:href="#m6af8e91fc8" y="449.938076"/>
     <use style="stroke:#000000;" x="650.249572" xlink:href="#m6af8e91fc8" y="431.311803"/>
     <use style="stroke:#000000;" x="660.505055" xlink:href="#m6af8e91fc8" y="450.419407"/>
     <use style="stroke:#000000;" x="670.760539" xlink:href="#m6af8e91fc8" y="466.145352"/>
     <use style="stroke:#000000;" x="681.016023" xlink:href="#m6af8e91fc8" y="488.035897"/>
     <use style="stroke:#000000;" x="691.271506" xlink:href="#m6af8e91fc8" y="545.407809"/>
     <use style="stroke:#000000;" x="701.52699" xlink:href="#m6af8e91fc8" y="524.503432"/>
     <use style="stroke:#000000;" x="711.782473" xlink:href="#m6af8e91fc8" y="483.637333"/>
     <use style="stroke:#000000;" x="722.037957" xlink:href="#m6af8e91fc8" y="479.961127"/>
     <use style="stroke:#000000;" x="732.293441" xlink:href="#m6af8e91fc8" y="506.83458"/>
     <use style="stroke:#000000;" x="742.548924" xlink:href="#m6af8e91fc8" y="505.709051"/>
     <use style="stroke:#000000;" x="752.804408" xlink:href="#m6af8e91fc8" y="527.193632"/>
     <use style="stroke:#000000;" x="763.059892" xlink:href="#m6af8e91fc8" y="550.445285"/>
     <use style="stroke:#000000;" x="773.315375" xlink:href="#m6af8e91fc8" y="574.04184"/>
     <use style="stroke:#000000;" x="783.570859" xlink:href="#m6af8e91fc8" y="563.524784"/>
     <use style="stroke:#000000;" x="793.826342" xlink:href="#m6af8e91fc8" y="525.281428"/>
     <use style="stroke:#000000;" x="804.081826" xlink:href="#m6af8e91fc8" y="562.961443"/>
     <use style="stroke:#000000;" x="814.33731" xlink:href="#m6af8e91fc8" y="553.55597"/>
     <use style="stroke:#000000;" x="824.592793" xlink:href="#m6af8e91fc8" y="572.019623"/>
    </g>
   </g>
   <g id="line2d_51">
    <path clip-path="url(#p024b6d16b1)" d="M 96.453457 523.815957 
L 106.70894 520.764704 
L 116.964424 517.713451 
L 127.219908 514.662197 
L 137.475391 511.610944 
L 147.730875 508.559691 
L 157.986358 505.508438 
L 168.241842 502.457185 
L 178.497326 499.405932 
L 188.752809 496.354679 
L 199.008293 493.303425 
L 209.263777 490.252172 
L 219.51926 487.200919 
L 229.774744 484.149666 
L 240.030227 481.098413 
L 250.285711 478.04716 
L 260.541195 474.995907 
L 270.796678 471.944653 
L 281.052162 468.8934 
L 291.307645 465.842147 
L 301.563129 462.790894 
L 311.818613 459.739641 
L 322.074096 456.688388 
L 332.32958 453.637134 
L 342.585063 450.585881 
L 352.840547 447.534628 
L 363.096031 444.483375 
L 373.351514 441.432122 
L 383.606998 438.380869 
L 393.862482 435.329616 
L 404.117965 432.278362 
L 414.373449 429.227109 
L 424.628932 426.175856 
L 434.884416 423.124603 
L 445.1399 420.07335 
L 455.395383 417.022097 
L 465.650867 413.970844 
L 475.90635 410.91959 
L 486.161834 407.868337 
L 496.417318 404.817084 
L 506.672801 401.765831 
L 516.928285 398.714578 
L 527.183768 395.663325 
L 537.439252 392.612071 
L 547.694736 389.560818 
L 557.950219 386.509565 
L 568.205703 383.458312 
L 578.461187 380.407059 
L 588.71667 389.009014 
L 598.972154 397.610969 
L 609.227637 406.212924 
L 619.483121 414.814879 
L 629.738605 423.416834 
L 639.994088 432.018789 
L 650.249572 440.620744 
L 660.505055 449.222699 
L 670.760539 457.824653 
L 681.016023 466.426608 
L 691.271506 475.028563 
L 701.52699 483.630518 
L 711.782473 492.232473 
L 722.037957 500.834428 
L 732.293441 509.436383 
L 742.548924 518.038338 
L 752.804408 526.640293 
L 763.059892 535.242248 
L 773.315375 543.844203 
L 783.570859 552.446158 
L 793.826342 561.048113 
L 804.081826 569.650068 
L 814.33731 578.252023 
L 824.592793 586.853978 
" style="fill:none;stroke:#808080;stroke-dasharray:3.7,1.6;stroke-dashoffset:0;"/>
   </g>
   <g id="line2d_52">
    <path clip-path="url(#p024b6d16b1)" d="M 578.461187 599.017885 
L 578.461187 331.411928 
" style="fill:none;stroke:#ff0000;stroke-dasharray:3.7,1.6;stroke-dashoffset:0;"/>
   </g>
   <g id="patch_8">
    <path d="M 60.04649 599.017885 
L 60.04649 331.411928 
" style="fill:none;stroke:#000000;stroke-linecap:square;stroke-linejoin:miter;stroke-width:0.8;"/>
   </g>
   <g id="patch_9">
    <path d="M 860.99976 599.017885 
L 860.99976 331.411928 
" style="fill:none;stroke:#000000;stroke-linecap:square;stroke-linejoin:miter;stroke-width:0.8;"/>
   </g>
   <g id="patch_10">
    <path d="M 60.04649 599.017885 
L 860.99976 599.017885 
" style="fill:none;stroke:#000000;stroke-linecap:square;stroke-linejoin:miter;stroke-width:0.8;"/>
   </g>
   <g id="text_25">
    <!-- B) EMI (2-Decade Embeddings) -->
    <g transform="translate(292.173062 325.411928)scale(0.216 -0.216)">
     <defs>
      <path d="M 19.671875 34.8125 
L 19.671875 8.109375 
L 35.5 8.109375 
Q 43.453125 8.109375 47.28125 11.40625 
Q 51.125 14.703125 51.125 21.484375 
Q 51.125 28.328125 47.28125 31.5625 
Q 43.453125 34.8125 35.5 34.8125 
z
M 19.671875 64.796875 
L 19.671875 42.828125 
L 34.28125 42.828125 
Q 41.5 42.828125 45.03125 45.53125 
Q 48.578125 48.25 48.578125 53.8125 
Q 48.578125 59.328125 45.03125 62.0625 
Q 41.5 64.796875 34.28125 64.796875 
z
M 9.8125 72.90625 
L 35.015625 72.90625 
Q 46.296875 72.90625 52.390625 68.21875 
Q 58.5 63.53125 58.5 54.890625 
Q 58.5 48.1875 55.375 44.234375 
Q 52.25 40.28125 46.1875 39.3125 
Q 53.46875 37.75 57.5 32.78125 
Q 61.53125 27.828125 61.53125 20.40625 
Q 61.53125 10.640625 54.890625 5.3125 
Q 48.25 0 35.984375 0 
L 9.8125 0 
z
" id="DejaVuSans-66"/>
      <path d="M 4.890625 31.390625 
L 31.203125 31.390625 
L 31.203125 23.390625 
L 4.890625 23.390625 
z
" id="DejaVuSans-45"/>
      <path d="M 19.671875 64.796875 
L 19.671875 8.109375 
L 31.59375 8.109375 
Q 46.6875 8.109375 53.6875 14.9375 
Q 60.6875 21.78125 60.6875 36.53125 
Q 60.6875 51.171875 53.6875 57.984375 
Q 46.6875 64.796875 31.59375 64.796875 
z
M 9.8125 72.90625 
L 30.078125 72.90625 
Q 51.265625 72.90625 61.171875 64.09375 
Q 71.09375 55.28125 71.09375 36.53125 
Q 71.09375 17.671875 61.125 8.828125 
Q 51.171875 0 30.078125 0 
L 9.8125 0 
z
" id="DejaVuSans-68"/>
      <path d="M 48.78125 52.59375 
L 48.78125 44.1875 
Q 44.96875 46.296875 41.140625 47.34375 
Q 37.3125 48.390625 33.40625 48.390625 
Q 24.65625 48.390625 19.8125 42.84375 
Q 14.984375 37.3125 14.984375 27.296875 
Q 14.984375 17.28125 19.8125 11.734375 
Q 24.65625 6.203125 33.40625 6.203125 
Q 37.3125 6.203125 41.140625 7.25 
Q 44.96875 8.296875 48.78125 10.40625 
L 48.78125 2.09375 
Q 45.015625 0.34375 40.984375 -0.53125 
Q 36.96875 -1.421875 32.421875 -1.421875 
Q 20.0625 -1.421875 12.78125 6.34375 
Q 5.515625 14.109375 5.515625 27.296875 
Q 5.515625 40.671875 12.859375 48.328125 
Q 20.21875 56 33.015625 56 
Q 37.15625 56 41.109375 55.140625 
Q 45.0625 54.296875 48.78125 52.59375 
z
" id="DejaVuSans-99"/>
      <path d="M 34.28125 27.484375 
Q 23.390625 27.484375 19.1875 25 
Q 14.984375 22.515625 14.984375 16.5 
Q 14.984375 11.71875 18.140625 8.90625 
Q 21.296875 6.109375 26.703125 6.109375 
Q 34.1875 6.109375 38.703125 11.40625 
Q 43.21875 16.703125 43.21875 25.484375 
L 43.21875 27.484375 
z
M 52.203125 31.203125 
L 52.203125 0 
L 43.21875 0 
L 43.21875 8.296875 
Q 40.140625 3.328125 35.546875 0.953125 
Q 30.953125 -1.421875 24.3125 -1.421875 
Q 15.921875 -1.421875 10.953125 3.296875 
Q 6 8.015625 6 15.921875 
Q 6 25.140625 12.171875 29.828125 
Q 18.359375 34.515625 30.609375 34.515625 
L 43.21875 34.515625 
L 43.21875 35.40625 
Q 43.21875 41.609375 39.140625 45 
Q 35.0625 48.390625 27.6875 48.390625 
Q 23 48.390625 18.546875 47.265625 
Q 14.109375 46.140625 10.015625 43.890625 
L 10.015625 52.203125 
Q 14.9375 54.109375 19.578125 55.046875 
Q 24.21875 56 28.609375 56 
Q 40.484375 56 46.34375 49.84375 
Q 52.203125 43.703125 52.203125 31.203125 
z
" id="DejaVuSans-97"/>
     </defs>
     <use xlink:href="#DejaVuSans-66"/>
     <use x="68.603516" xlink:href="#DejaVuSans-41"/>
     <use x="107.617188" xlink:href="#DejaVuSans-32"/>
     <use x="139.404297" xlink:href="#DejaVuSans-69"/>
     <use x="202.587891" xlink:href="#DejaVuSans-77"/>
     <use x="288.867188" xlink:href="#DejaVuSans-73"/>
     <use x="318.359375" xlink:href="#DejaVuSans-32"/>
     <use x="350.146484" xlink:href="#DejaVuSans-40"/>
     <use x="389.160156" xlink:href="#DejaVuSans-50"/>
     <use x="452.783203" xlink:href="#DejaVuSans-45"/>
     <use x="488.867188" xlink:href="#DejaVuSans-68"/>
     <use x="565.869141" xlink:href="#DejaVuSans-101"/>
     <use x="627.392578" xlink:href="#DejaVuSans-99"/>
     <use x="682.373047" xlink:href="#DejaVuSans-97"/>
     <use x="743.652344" xlink:href="#DejaVuSans-100"/>
     <use x="807.128906" xlink:href="#DejaVuSans-101"/>
     <use x="868.652344" xlink:href="#DejaVuSans-32"/>
     <use x="900.439453" xlink:href="#DejaVuSans-69"/>
     <use x="963.623047" xlink:href="#DejaVuSans-109"/>
     <use x="1061.035156" xlink:href="#DejaVuSans-98"/>
     <use x="1124.511719" xlink:href="#DejaVuSans-101"/>
     <use x="1186.035156" xlink:href="#DejaVuSans-100"/>
     <use x="1249.511719" xlink:href="#DejaVuSans-100"/>
     <use x="1312.988281" xlink:href="#DejaVuSans-105"/>
     <use x="1340.771484" xlink:href="#DejaVuSans-110"/>
     <use x="1404.150391" xlink:href="#DejaVuSans-103"/>
     <use x="1467.626953" xlink:href="#DejaVuSans-115"/>
     <use x="1519.726562" xlink:href="#DejaVuSans-41"/>
    </g>
   </g>
   <g id="legend_2">
    <g id="patch_11">
     <path d="M 712.19601 398.653177 
L 848.39976 398.653177 
Q 851.99976 398.653177 851.99976 395.053177 
L 851.99976 344.011928 
Q 851.99976 340.411927 848.39976 340.411927 
L 712.19601 340.411927 
Q 708.59601 340.411927 708.59601 344.011928 
L 708.59601 395.053177 
Q 708.59601 398.653177 712.19601 398.653177 
z
" style="fill:#ffffff;opacity:0.8;stroke:#cccccc;stroke-linejoin:miter;"/>
    </g>
    <g id="line2d_53">
     <path d="M 715.79601 354.989115 
L 751.79601 354.989115 
" style="fill:none;stroke:#000000;stroke-linecap:square;"/>
    </g>
    <g id="line2d_54">
     <g>
      <use style="stroke:#000000;" x="733.79601" xlink:href="#m6af8e91fc8" y="354.989115"/>
     </g>
    </g>
    <g id="text_26">
     <!-- EMI -->
     <g transform="translate(766.19601 361.289115)scale(0.18 -0.18)">
      <use xlink:href="#DejaVuSans-69"/>
      <use x="63.183594" xlink:href="#DejaVuSans-77"/>
      <use x="149.462891" xlink:href="#DejaVuSans-73"/>
     </g>
    </g>
    <g id="line2d_55">
     <path d="M 715.79601 381.40974 
L 751.79601 381.40974 
" style="fill:none;stroke:#808080;stroke-dasharray:3.7,1.6;stroke-dashoffset:0;"/>
    </g>
    <g id="line2d_56"/>
    <g id="text_27">
     <!-- MARS Fit -->
     <g transform="translate(766.19601 387.70974)scale(0.18 -0.18)">
      <use xlink:href="#DejaVuSans-77"/>
      <use x="86.279297" xlink:href="#DejaVuSans-65"/>
      <use x="154.6875" xlink:href="#DejaVuSans-82"/>
      <use x="224.169922" xlink:href="#DejaVuSans-83"/>
      <use x="287.646484" xlink:href="#DejaVuSans-32"/>
      <use x="319.433594" xlink:href="#DejaVuSans-70"/>
      <use x="369.703125" xlink:href="#DejaVuSans-105"/>
      <use x="397.486328" xlink:href="#DejaVuSans-116"/>
     </g>
    </g>
   </g>
  </g>
 </g>
 <defs>
  <clipPath id="p767c0f98f8">
   <rect height="267.605957" width="800.95327" x="60.04649" y="25.412865"/>
  </clipPath>
  <clipPath id="p024b6d16b1">
   <rect height="267.605957" width="800.95327" x="60.04649" y="331.411928"/>
  </clipPath>
 </defs>
</svg>
