<?xml version="1.0" encoding="utf-8" standalone="no"?>
<!DOCTYPE svg PUBLIC "-//W3C//DTD SVG 1.1//EN"
  "http://www.w3.org/Graphics/SVG/1.1/DTD/svg11.dtd">
<!-- Created with matplotlib (https://matplotlib.org/) -->
<svg height="576pt" version="1.1" viewBox="0 0 864 576" width="864pt" xmlns="http://www.w3.org/2000/svg" xmlns:xlink="http://www.w3.org/1999/xlink">
 <metadata>
  <rdf:RDF xmlns:cc="http://creativecommons.org/ns#" xmlns:dc="http://purl.org/dc/elements/1.1/" xmlns:rdf="http://www.w3.org/1999/02/22-rdf-syntax-ns#">
   <cc:Work>
    <dc:type rdf:resource="http://purl.org/dc/dcmitype/StillImage"/>
    <dc:date>2024-12-05T16:03:53.453396</dc:date>
    <dc:format>image/svg+xml</dc:format>
    <dc:creator>
     <cc:Agent>
      <dc:title>Matplotlib v3.3.4, https://matplotlib.org/</dc:title>
     </cc:Agent>
    </dc:creator>
   </cc:Work>
  </rdf:RDF>
 </metadata>
 <defs>
  <style type="text/css">*{stroke-linecap:butt;stroke-linejoin:round;}</style>
 </defs>
 <g id="figure_1">
  <g id="patch_1">
   <path d="M 0 576 
L 864 576 
L 864 0 
L 0 0 
z
" style="fill:#ffffff;"/>
  </g>
  <g id="axes_1">
   <g id="patch_2">
    <path d="M 75.129928 257.378822 
L 860.99976 257.378822 
L 860.99976 25.412865 
L 75.129928 25.412865 
z
" style="fill:#ffffff;"/>
   </g>
   <g id="matplotlib.axis_1">
    <g id="xtick_1">
     <g id="line2d_1">
      <path clip-path="url(#p9d4f7ff492)" d="M 115.88246 257.378822 
L 115.88246 25.412865 
" style="fill:none;stroke:#b0b0b0;stroke-linecap:square;stroke-width:0.8;"/>
     </g>
     <g id="line2d_2">
      <defs>
       <path d="M 0 0 
L 0 3.5 
" id="mdb4a26394a" style="stroke:#000000;stroke-width:0.8;"/>
      </defs>
      <g>
       <use style="stroke:#000000;stroke-width:0.8;" x="115.88246" xlink:href="#mdb4a26394a" y="257.378822"/>
      </g>
     </g>
    </g>
    <g id="xtick_2">
     <g id="line2d_3">
      <path clip-path="url(#p9d4f7ff492)" d="M 216.505999 257.378822 
L 216.505999 25.412865 
" style="fill:none;stroke:#b0b0b0;stroke-linecap:square;stroke-width:0.8;"/>
     </g>
     <g id="line2d_4">
      <g>
       <use style="stroke:#000000;stroke-width:0.8;" x="216.505999" xlink:href="#mdb4a26394a" y="257.378822"/>
      </g>
     </g>
    </g>
    <g id="xtick_3">
     <g id="line2d_5">
      <path clip-path="url(#p9d4f7ff492)" d="M 317.129537 257.378822 
L 317.129537 25.412865 
" style="fill:none;stroke:#b0b0b0;stroke-linecap:square;stroke-width:0.8;"/>
     </g>
     <g id="line2d_6">
      <g>
       <use style="stroke:#000000;stroke-width:0.8;" x="317.129537" xlink:href="#mdb4a26394a" y="257.378822"/>
      </g>
     </g>
    </g>
    <g id="xtick_4">
     <g id="line2d_7">
      <path clip-path="url(#p9d4f7ff492)" d="M 417.753075 257.378822 
L 417.753075 25.412865 
" style="fill:none;stroke:#b0b0b0;stroke-linecap:square;stroke-width:0.8;"/>
     </g>
     <g id="line2d_8">
      <g>
       <use style="stroke:#000000;stroke-width:0.8;" x="417.753075" xlink:href="#mdb4a26394a" y="257.378822"/>
      </g>
     </g>
    </g>
    <g id="xtick_5">
     <g id="line2d_9">
      <path clip-path="url(#p9d4f7ff492)" d="M 518.376613 257.378822 
L 518.376613 25.412865 
" style="fill:none;stroke:#b0b0b0;stroke-linecap:square;stroke-width:0.8;"/>
     </g>
     <g id="line2d_10">
      <g>
       <use style="stroke:#000000;stroke-width:0.8;" x="518.376613" xlink:href="#mdb4a26394a" y="257.378822"/>
      </g>
     </g>
    </g>
    <g id="xtick_6">
     <g id="line2d_11">
      <path clip-path="url(#p9d4f7ff492)" d="M 619.000151 257.378822 
L 619.000151 25.412865 
" style="fill:none;stroke:#b0b0b0;stroke-linecap:square;stroke-width:0.8;"/>
     </g>
     <g id="line2d_12">
      <g>
       <use style="stroke:#000000;stroke-width:0.8;" x="619.000151" xlink:href="#mdb4a26394a" y="257.378822"/>
      </g>
     </g>
    </g>
    <g id="xtick_7">
     <g id="line2d_13">
      <path clip-path="url(#p9d4f7ff492)" d="M 719.623689 257.378822 
L 719.623689 25.412865 
" style="fill:none;stroke:#b0b0b0;stroke-linecap:square;stroke-width:0.8;"/>
     </g>
     <g id="line2d_14">
      <g>
       <use style="stroke:#000000;stroke-width:0.8;" x="719.623689" xlink:href="#mdb4a26394a" y="257.378822"/>
      </g>
     </g>
    </g>
    <g id="xtick_8">
     <g id="line2d_15">
      <path clip-path="url(#p9d4f7ff492)" d="M 820.247227 257.378822 
L 820.247227 25.412865 
" style="fill:none;stroke:#b0b0b0;stroke-linecap:square;stroke-width:0.8;"/>
     </g>
     <g id="line2d_16">
      <g>
       <use style="stroke:#000000;stroke-width:0.8;" x="820.247227" xlink:href="#mdb4a26394a" y="257.378822"/>
      </g>
     </g>
    </g>
   </g>
   <g id="matplotlib.axis_2">
    <g id="ytick_1">
     <g id="line2d_17">
      <defs>
       <path d="M 0 0 
L -3.5 0 
" id="mabc125e2eb" style="stroke:#000000;stroke-width:0.8;"/>
      </defs>
      <g>
       <use style="stroke:#000000;stroke-width:0.8;" x="75.129928" xlink:href="#mabc125e2eb" y="231.819646"/>
      </g>
     </g>
     <g id="text_1">
      <!-- −0.4 -->
      <g transform="translate(24.420865 238.658239)scale(0.18 -0.18)">
       <defs>
        <path d="M 10.59375 35.5 
L 73.1875 35.5 
L 73.1875 27.203125 
L 10.59375 27.203125 
z
" id="DejaVuSans-8722"/>
        <path d="M 31.78125 66.40625 
Q 24.171875 66.40625 20.328125 58.90625 
Q 16.5 51.421875 16.5 36.375 
Q 16.5 21.390625 20.328125 13.890625 
Q 24.171875 6.390625 31.78125 6.390625 
Q 39.453125 6.390625 43.28125 13.890625 
Q 47.125 21.390625 47.125 36.375 
Q 47.125 51.421875 43.28125 58.90625 
Q 39.453125 66.40625 31.78125 66.40625 
z
M 31.78125 74.21875 
Q 44.046875 74.21875 50.515625 64.515625 
Q 56.984375 54.828125 56.984375 36.375 
Q 56.984375 17.96875 50.515625 8.265625 
Q 44.046875 -1.421875 31.78125 -1.421875 
Q 19.53125 -1.421875 13.0625 8.265625 
Q 6.59375 17.96875 6.59375 36.375 
Q 6.59375 54.828125 13.0625 64.515625 
Q 19.53125 74.21875 31.78125 74.21875 
z
" id="DejaVuSans-48"/>
        <path d="M 10.6875 12.40625 
L 21 12.40625 
L 21 0 
L 10.6875 0 
z
" id="DejaVuSans-46"/>
        <path d="M 37.796875 64.3125 
L 12.890625 25.390625 
L 37.796875 25.390625 
z
M 35.203125 72.90625 
L 47.609375 72.90625 
L 47.609375 25.390625 
L 58.015625 25.390625 
L 58.015625 17.1875 
L 47.609375 17.1875 
L 47.609375 0 
L 37.796875 0 
L 37.796875 17.1875 
L 4.890625 17.1875 
L 4.890625 26.703125 
z
" id="DejaVuSans-52"/>
       </defs>
       <use xlink:href="#DejaVuSans-8722"/>
       <use x="83.789062" xlink:href="#DejaVuSans-48"/>
       <use x="147.412109" xlink:href="#DejaVuSans-46"/>
       <use x="179.199219" xlink:href="#DejaVuSans-52"/>
      </g>
     </g>
    </g>
    <g id="ytick_2">
     <g id="line2d_18">
      <g>
       <use style="stroke:#000000;stroke-width:0.8;" x="75.129928" xlink:href="#mabc125e2eb" y="179.359012"/>
      </g>
     </g>
     <g id="text_2">
      <!-- −0.2 -->
      <g transform="translate(24.420865 186.197606)scale(0.18 -0.18)">
       <defs>
        <path d="M 19.1875 8.296875 
L 53.609375 8.296875 
L 53.609375 0 
L 7.328125 0 
L 7.328125 8.296875 
Q 12.9375 14.109375 22.625 23.890625 
Q 32.328125 33.6875 34.8125 36.53125 
Q 39.546875 41.84375 41.421875 45.53125 
Q 43.3125 49.21875 43.3125 52.78125 
Q 43.3125 58.59375 39.234375 62.25 
Q 35.15625 65.921875 28.609375 65.921875 
Q 23.96875 65.921875 18.8125 64.3125 
Q 13.671875 62.703125 7.8125 59.421875 
L 7.8125 69.390625 
Q 13.765625 71.78125 18.9375 73 
Q 24.125 74.21875 28.421875 74.21875 
Q 39.75 74.21875 46.484375 68.546875 
Q 53.21875 62.890625 53.21875 53.421875 
Q 53.21875 48.921875 51.53125 44.890625 
Q 49.859375 40.875 45.40625 35.40625 
Q 44.1875 33.984375 37.640625 27.21875 
Q 31.109375 20.453125 19.1875 8.296875 
z
" id="DejaVuSans-50"/>
       </defs>
       <use xlink:href="#DejaVuSans-8722"/>
       <use x="83.789062" xlink:href="#DejaVuSans-48"/>
       <use x="147.412109" xlink:href="#DejaVuSans-46"/>
       <use x="179.199219" xlink:href="#DejaVuSans-50"/>
      </g>
     </g>
    </g>
    <g id="ytick_3">
     <g id="line2d_19">
      <g>
       <use style="stroke:#000000;stroke-width:0.8;" x="75.129928" xlink:href="#mabc125e2eb" y="126.898378"/>
      </g>
     </g>
     <g id="text_3">
      <!-- 0.0 -->
      <g transform="translate(39.504303 133.736972)scale(0.18 -0.18)">
       <use xlink:href="#DejaVuSans-48"/>
       <use x="63.623047" xlink:href="#DejaVuSans-46"/>
       <use x="95.410156" xlink:href="#DejaVuSans-48"/>
      </g>
     </g>
    </g>
    <g id="ytick_4">
     <g id="line2d_20">
      <g>
       <use style="stroke:#000000;stroke-width:0.8;" x="75.129928" xlink:href="#mabc125e2eb" y="74.437744"/>
      </g>
     </g>
     <g id="text_4">
      <!-- 0.2 -->
      <g transform="translate(39.504303 81.276338)scale(0.18 -0.18)">
       <use xlink:href="#DejaVuSans-48"/>
       <use x="63.623047" xlink:href="#DejaVuSans-46"/>
       <use x="95.410156" xlink:href="#DejaVuSans-50"/>
      </g>
     </g>
    </g>
    <g id="text_5">
     <!-- EMI -->
     <g transform="translate(16.677428 159.848656)rotate(-90)scale(0.18 -0.18)">
      <defs>
       <path d="M 9.1875 72.90625 
L 59.90625 72.90625 
L 59.90625 58.6875 
L 27.984375 58.6875 
L 27.984375 45.125 
L 58.015625 45.125 
L 58.015625 30.90625 
L 27.984375 30.90625 
L 27.984375 14.203125 
L 60.984375 14.203125 
L 60.984375 0 
L 9.1875 0 
z
" id="DejaVuSans-Bold-69"/>
       <path d="M 9.1875 72.90625 
L 33.109375 72.90625 
L 49.703125 33.890625 
L 66.40625 72.90625 
L 90.28125 72.90625 
L 90.28125 0 
L 72.515625 0 
L 72.515625 53.328125 
L 55.71875 14.015625 
L 43.796875 14.015625 
L 27 53.328125 
L 27 0 
L 9.1875 0 
z
" id="DejaVuSans-Bold-77"/>
       <path d="M 9.1875 72.90625 
L 27.984375 72.90625 
L 27.984375 0 
L 9.1875 0 
z
" id="DejaVuSans-Bold-73"/>
      </defs>
      <use xlink:href="#DejaVuSans-Bold-69"/>
      <use x="68.310547" xlink:href="#DejaVuSans-Bold-77"/>
      <use x="167.822266" xlink:href="#DejaVuSans-Bold-73"/>
     </g>
    </g>
   </g>
   <g id="line2d_21">
    <path clip-path="url(#p9d4f7ff492)" d="M 110.851284 124.995887 
L 120.913637 117.962636 
L 130.975991 116.389551 
L 141.038345 105.36403 
L 151.100699 121.995546 
L 161.163053 137.893891 
L 171.225406 115.5002 
L 181.28776 155.801556 
L 191.350114 123.540601 
L 201.412468 150.328601 
L 211.474822 156.61617 
L 221.537175 146.203585 
L 231.599529 132.247647 
L 241.661883 114.471174 
L 251.724237 101.125968 
L 261.786591 116.20811 
L 271.848944 126.89974 
L 281.911298 138.264673 
L 291.973652 135.286854 
L 302.036006 142.225938 
L 312.09836 128.965287 
L 322.160714 140.120604 
L 332.223067 140.004307 
L 342.285421 131.988192 
L 352.347775 137.374246 
L 362.410129 132.359922 
L 372.472483 142.74826 
L 382.534836 157.615338 
L 392.59719 142.206567 
L 402.659544 126.955702 
L 412.721898 144.354832 
L 422.784252 135.925032 
L 432.846605 121.916321 
L 442.908959 125.54981 
L 452.971313 116.879873 
L 463.033667 120.775865 
L 473.096021 120.317131 
L 483.158374 102.778743 
L 493.220728 97.368269 
L 503.283082 86.842499 
L 513.345436 105.417781 
L 523.40779 85.584619 
L 533.470144 99.149162 
L 543.532497 71.396607 
L 553.594851 76.553439 
L 563.657205 70.224083 
L 573.719559 56.618118 
L 583.781913 37.402879 
L 593.844266 35.956772 
L 603.90662 52.537731 
L 613.968974 65.545703 
L 624.031328 91.661579 
L 634.093682 98.373957 
L 644.156035 120.069134 
L 654.218389 111.094897 
L 664.280743 113.140362 
L 674.343097 128.14921 
L 684.405451 146.955042 
L 694.467804 179.96605 
L 704.530158 155.450814 
L 714.592512 151.366946 
L 724.654866 162.667385 
L 734.71722 174.699667 
L 744.779574 175.449368 
L 754.841927 185.030462 
L 764.904281 210.863489 
L 774.966635 234.685106 
L 785.028989 228.830077 
L 795.091343 190.738234 
L 805.153696 216.690417 
L 815.21605 222.107335 
L 825.278404 246.834915 
" style="fill:none;stroke:#000000;stroke-linecap:square;"/>
    <defs>
     <path d="M 0 2 
C 0.530406 2 1.03916 1.789267 1.414214 1.414214 
C 1.789267 1.03916 2 0.530406 2 0 
C 2 -0.530406 1.789267 -1.03916 1.414214 -1.414214 
C 1.03916 -1.789267 0.530406 -2 0 -2 
C -0.530406 -2 -1.03916 -1.789267 -1.414214 -1.414214 
C -1.789267 -1.03916 -2 -0.530406 -2 0 
C -2 0.530406 -1.789267 1.03916 -1.414214 1.414214 
C -1.03916 1.789267 -0.530406 2 0 2 
z
" id="m089320187b" style="stroke:#000000;"/>
    </defs>
    <g clip-path="url(#p9d4f7ff492)">
     <use style="stroke:#000000;" x="110.851284" xlink:href="#m089320187b" y="124.995887"/>
     <use style="stroke:#000000;" x="120.913637" xlink:href="#m089320187b" y="117.962636"/>
     <use style="stroke:#000000;" x="130.975991" xlink:href="#m089320187b" y="116.389551"/>
     <use style="stroke:#000000;" x="141.038345" xlink:href="#m089320187b" y="105.36403"/>
     <use style="stroke:#000000;" x="151.100699" xlink:href="#m089320187b" y="121.995546"/>
     <use style="stroke:#000000;" x="161.163053" xlink:href="#m089320187b" y="137.893891"/>
     <use style="stroke:#000000;" x="171.225406" xlink:href="#m089320187b" y="115.5002"/>
     <use style="stroke:#000000;" x="181.28776" xlink:href="#m089320187b" y="155.801556"/>
     <use style="stroke:#000000;" x="191.350114" xlink:href="#m089320187b" y="123.540601"/>
     <use style="stroke:#000000;" x="201.412468" xlink:href="#m089320187b" y="150.328601"/>
     <use style="stroke:#000000;" x="211.474822" xlink:href="#m089320187b" y="156.61617"/>
     <use style="stroke:#000000;" x="221.537175" xlink:href="#m089320187b" y="146.203585"/>
     <use style="stroke:#000000;" x="231.599529" xlink:href="#m089320187b" y="132.247647"/>
     <use style="stroke:#000000;" x="241.661883" xlink:href="#m089320187b" y="114.471174"/>
     <use style="stroke:#000000;" x="251.724237" xlink:href="#m089320187b" y="101.125968"/>
     <use style="stroke:#000000;" x="261.786591" xlink:href="#m089320187b" y="116.20811"/>
     <use style="stroke:#000000;" x="271.848944" xlink:href="#m089320187b" y="126.89974"/>
     <use style="stroke:#000000;" x="281.911298" xlink:href="#m089320187b" y="138.264673"/>
     <use style="stroke:#000000;" x="291.973652" xlink:href="#m089320187b" y="135.286854"/>
     <use style="stroke:#000000;" x="302.036006" xlink:href="#m089320187b" y="142.225938"/>
     <use style="stroke:#000000;" x="312.09836" xlink:href="#m089320187b" y="128.965287"/>
     <use style="stroke:#000000;" x="322.160714" xlink:href="#m089320187b" y="140.120604"/>
     <use style="stroke:#000000;" x="332.223067" xlink:href="#m089320187b" y="140.004307"/>
     <use style="stroke:#000000;" x="342.285421" xlink:href="#m089320187b" y="131.988192"/>
     <use style="stroke:#000000;" x="352.347775" xlink:href="#m089320187b" y="137.374246"/>
     <use style="stroke:#000000;" x="362.410129" xlink:href="#m089320187b" y="132.359922"/>
     <use style="stroke:#000000;" x="372.472483" xlink:href="#m089320187b" y="142.74826"/>
     <use style="stroke:#000000;" x="382.534836" xlink:href="#m089320187b" y="157.615338"/>
     <use style="stroke:#000000;" x="392.59719" xlink:href="#m089320187b" y="142.206567"/>
     <use style="stroke:#000000;" x="402.659544" xlink:href="#m089320187b" y="126.955702"/>
     <use style="stroke:#000000;" x="412.721898" xlink:href="#m089320187b" y="144.354832"/>
     <use style="stroke:#000000;" x="422.784252" xlink:href="#m089320187b" y="135.925032"/>
     <use style="stroke:#000000;" x="432.846605" xlink:href="#m089320187b" y="121.916321"/>
     <use style="stroke:#000000;" x="442.908959" xlink:href="#m089320187b" y="125.54981"/>
     <use style="stroke:#000000;" x="452.971313" xlink:href="#m089320187b" y="116.879873"/>
     <use style="stroke:#000000;" x="463.033667" xlink:href="#m089320187b" y="120.775865"/>
     <use style="stroke:#000000;" x="473.096021" xlink:href="#m089320187b" y="120.317131"/>
     <use style="stroke:#000000;" x="483.158374" xlink:href="#m089320187b" y="102.778743"/>
     <use style="stroke:#000000;" x="493.220728" xlink:href="#m089320187b" y="97.368269"/>
     <use style="stroke:#000000;" x="503.283082" xlink:href="#m089320187b" y="86.842499"/>
     <use style="stroke:#000000;" x="513.345436" xlink:href="#m089320187b" y="105.417781"/>
     <use style="stroke:#000000;" x="523.40779" xlink:href="#m089320187b" y="85.584619"/>
     <use style="stroke:#000000;" x="533.470144" xlink:href="#m089320187b" y="99.149162"/>
     <use style="stroke:#000000;" x="543.532497" xlink:href="#m089320187b" y="71.396607"/>
     <use style="stroke:#000000;" x="553.594851" xlink:href="#m089320187b" y="76.553439"/>
     <use style="stroke:#000000;" x="563.657205" xlink:href="#m089320187b" y="70.224083"/>
     <use style="stroke:#000000;" x="573.719559" xlink:href="#m089320187b" y="56.618118"/>
     <use style="stroke:#000000;" x="583.781913" xlink:href="#m089320187b" y="37.402879"/>
     <use style="stroke:#000000;" x="593.844266" xlink:href="#m089320187b" y="35.956772"/>
     <use style="stroke:#000000;" x="603.90662" xlink:href="#m089320187b" y="52.537731"/>
     <use style="stroke:#000000;" x="613.968974" xlink:href="#m089320187b" y="65.545703"/>
     <use style="stroke:#000000;" x="624.031328" xlink:href="#m089320187b" y="91.661579"/>
     <use style="stroke:#000000;" x="634.093682" xlink:href="#m089320187b" y="98.373957"/>
     <use style="stroke:#000000;" x="644.156035" xlink:href="#m089320187b" y="120.069134"/>
     <use style="stroke:#000000;" x="654.218389" xlink:href="#m089320187b" y="111.094897"/>
     <use style="stroke:#000000;" x="664.280743" xlink:href="#m089320187b" y="113.140362"/>
     <use style="stroke:#000000;" x="674.343097" xlink:href="#m089320187b" y="128.14921"/>
     <use style="stroke:#000000;" x="684.405451" xlink:href="#m089320187b" y="146.955042"/>
     <use style="stroke:#000000;" x="694.467804" xlink:href="#m089320187b" y="179.96605"/>
     <use style="stroke:#000000;" x="704.530158" xlink:href="#m089320187b" y="155.450814"/>
     <use style="stroke:#000000;" x="714.592512" xlink:href="#m089320187b" y="151.366946"/>
     <use style="stroke:#000000;" x="724.654866" xlink:href="#m089320187b" y="162.667385"/>
     <use style="stroke:#000000;" x="734.71722" xlink:href="#m089320187b" y="174.699667"/>
     <use style="stroke:#000000;" x="744.779574" xlink:href="#m089320187b" y="175.449368"/>
     <use style="stroke:#000000;" x="754.841927" xlink:href="#m089320187b" y="185.030462"/>
     <use style="stroke:#000000;" x="764.904281" xlink:href="#m089320187b" y="210.863489"/>
     <use style="stroke:#000000;" x="774.966635" xlink:href="#m089320187b" y="234.685106"/>
     <use style="stroke:#000000;" x="785.028989" xlink:href="#m089320187b" y="228.830077"/>
     <use style="stroke:#000000;" x="795.091343" xlink:href="#m089320187b" y="190.738234"/>
     <use style="stroke:#000000;" x="805.153696" xlink:href="#m089320187b" y="216.690417"/>
     <use style="stroke:#000000;" x="815.21605" xlink:href="#m089320187b" y="222.107335"/>
     <use style="stroke:#000000;" x="825.278404" xlink:href="#m089320187b" y="246.834915"/>
    </g>
   </g>
   <g id="line2d_22">
    <path clip-path="url(#p9d4f7ff492)" d="M 110.851284 151.448574 
L 120.913637 149.94914 
L 130.975991 148.449706 
L 141.038345 146.950272 
L 151.100699 145.450837 
L 161.163053 143.951403 
L 171.225406 142.451969 
L 181.28776 140.952535 
L 191.350114 139.453101 
L 201.412468 137.953666 
L 211.474822 136.454232 
L 221.537175 134.954798 
L 231.599529 133.455364 
L 241.661883 131.955929 
L 251.724237 130.456495 
L 261.786591 128.957061 
L 271.848944 127.457627 
L 281.911298 125.958192 
L 291.973652 124.458758 
L 302.036006 122.959324 
L 312.09836 121.45989 
L 322.160714 119.960456 
L 332.223067 118.461021 
L 342.285421 116.961587 
L 352.347775 115.462153 
L 362.410129 113.962719 
L 372.472483 112.463284 
L 382.534836 110.96385 
L 392.59719 109.464416 
L 402.659544 107.964982 
L 412.721898 106.465547 
L 422.784252 104.966113 
L 432.846605 103.466679 
L 442.908959 101.967245 
L 452.971313 100.46781 
L 463.033667 98.968376 
L 473.096021 97.468942 
L 483.158374 95.969508 
L 493.220728 94.470074 
L 503.283082 92.970639 
L 513.345436 91.471205 
L 523.40779 89.971771 
L 533.470144 88.472337 
L 543.532497 86.972902 
L 553.594851 85.473468 
L 563.657205 83.974034 
L 573.719559 82.4746 
L 583.781913 80.975165 
L 593.844266 87.348521 
L 603.90662 93.721877 
L 613.968974 100.095233 
L 624.031328 106.468589 
L 634.093682 112.841945 
L 644.156035 119.215301 
L 654.218389 125.588657 
L 664.280743 131.962013 
L 674.343097 138.335369 
L 684.405451 144.708725 
L 694.467804 151.082081 
L 704.530158 157.455436 
L 714.592512 163.828792 
L 724.654866 170.202148 
L 734.71722 176.575504 
L 744.779574 182.94886 
L 754.841927 189.322216 
L 764.904281 195.695572 
L 774.966635 202.068928 
L 785.028989 208.442284 
L 795.091343 214.81564 
L 805.153696 221.188996 
L 815.21605 227.562351 
L 825.278404 233.935707 
" style="fill:none;stroke:#808080;stroke-dasharray:3.7,1.6;stroke-dashoffset:0;"/>
   </g>
   <g id="line2d_23">
    <path clip-path="url(#p9d4f7ff492)" d="M 583.781913 257.378822 
L 583.781913 25.412865 
" style="fill:none;stroke:#ff0000;stroke-dasharray:3.7,1.6;stroke-dashoffset:0;"/>
   </g>
   <g id="patch_3">
    <path d="M 75.129928 257.378822 
L 75.129928 25.412865 
" style="fill:none;stroke:#000000;stroke-linecap:square;stroke-linejoin:miter;stroke-width:0.8;"/>
   </g>
   <g id="patch_4">
    <path d="M 860.99976 257.378822 
L 860.99976 25.412865 
" style="fill:none;stroke:#000000;stroke-linecap:square;stroke-linejoin:miter;stroke-width:0.8;"/>
   </g>
   <g id="patch_5">
    <path d="M 75.129928 257.378822 
L 860.99976 257.378822 
" style="fill:none;stroke:#000000;stroke-linecap:square;stroke-linejoin:miter;stroke-width:0.8;"/>
   </g>
   <g id="text_6">
    <!-- A) EMI (Full Corpus Embeddings) -->
    <g transform="translate(291.712656 19.412865)scale(0.216 -0.216)">
     <defs>
      <path d="M 34.1875 63.1875 
L 20.796875 26.90625 
L 47.609375 26.90625 
z
M 28.609375 72.90625 
L 39.796875 72.90625 
L 67.578125 0 
L 57.328125 0 
L 50.6875 18.703125 
L 17.828125 18.703125 
L 11.1875 0 
L 0.78125 0 
z
" id="DejaVuSans-65"/>
      <path d="M 8.015625 75.875 
L 15.828125 75.875 
Q 23.140625 64.359375 26.78125 53.3125 
Q 30.421875 42.28125 30.421875 31.390625 
Q 30.421875 20.453125 26.78125 9.375 
Q 23.140625 -1.703125 15.828125 -13.1875 
L 8.015625 -13.1875 
Q 14.5 -2 17.703125 9.0625 
Q 20.90625 20.125 20.90625 31.390625 
Q 20.90625 42.671875 17.703125 53.65625 
Q 14.5 64.65625 8.015625 75.875 
z
" id="DejaVuSans-41"/>
      <path id="DejaVuSans-32"/>
      <path d="M 9.8125 72.90625 
L 55.90625 72.90625 
L 55.90625 64.59375 
L 19.671875 64.59375 
L 19.671875 43.015625 
L 54.390625 43.015625 
L 54.390625 34.71875 
L 19.671875 34.71875 
L 19.671875 8.296875 
L 56.78125 8.296875 
L 56.78125 0 
L 9.8125 0 
z
" id="DejaVuSans-69"/>
      <path d="M 9.8125 72.90625 
L 24.515625 72.90625 
L 43.109375 23.296875 
L 61.8125 72.90625 
L 76.515625 72.90625 
L 76.515625 0 
L 66.890625 0 
L 66.890625 64.015625 
L 48.09375 14.015625 
L 38.1875 14.015625 
L 19.390625 64.015625 
L 19.390625 0 
L 9.8125 0 
z
" id="DejaVuSans-77"/>
      <path d="M 9.8125 72.90625 
L 19.671875 72.90625 
L 19.671875 0 
L 9.8125 0 
z
" id="DejaVuSans-73"/>
      <path d="M 31 75.875 
Q 24.46875 64.65625 21.28125 53.65625 
Q 18.109375 42.671875 18.109375 31.390625 
Q 18.109375 20.125 21.3125 9.0625 
Q 24.515625 -2 31 -13.1875 
L 23.1875 -13.1875 
Q 15.875 -1.703125 12.234375 9.375 
Q 8.59375 20.453125 8.59375 31.390625 
Q 8.59375 42.28125 12.203125 53.3125 
Q 15.828125 64.359375 23.1875 75.875 
z
" id="DejaVuSans-40"/>
      <path d="M 9.8125 72.90625 
L 51.703125 72.90625 
L 51.703125 64.59375 
L 19.671875 64.59375 
L 19.671875 43.109375 
L 48.578125 43.109375 
L 48.578125 34.8125 
L 19.671875 34.8125 
L 19.671875 0 
L 9.8125 0 
z
" id="DejaVuSans-70"/>
      <path d="M 8.5 21.578125 
L 8.5 54.6875 
L 17.484375 54.6875 
L 17.484375 21.921875 
Q 17.484375 14.15625 20.5 10.265625 
Q 23.53125 6.390625 29.59375 6.390625 
Q 36.859375 6.390625 41.078125 11.03125 
Q 45.3125 15.671875 45.3125 23.6875 
L 45.3125 54.6875 
L 54.296875 54.6875 
L 54.296875 0 
L 45.3125 0 
L 45.3125 8.40625 
Q 42.046875 3.421875 37.71875 1 
Q 33.40625 -1.421875 27.6875 -1.421875 
Q 18.265625 -1.421875 13.375 4.4375 
Q 8.5 10.296875 8.5 21.578125 
z
M 31.109375 56 
z
" id="DejaVuSans-117"/>
      <path d="M 9.421875 75.984375 
L 18.40625 75.984375 
L 18.40625 0 
L 9.421875 0 
z
" id="DejaVuSans-108"/>
      <path d="M 64.40625 67.28125 
L 64.40625 56.890625 
Q 59.421875 61.53125 53.78125 63.8125 
Q 48.140625 66.109375 41.796875 66.109375 
Q 29.296875 66.109375 22.65625 58.46875 
Q 16.015625 50.828125 16.015625 36.375 
Q 16.015625 21.96875 22.65625 14.328125 
Q 29.296875 6.6875 41.796875 6.6875 
Q 48.140625 6.6875 53.78125 8.984375 
Q 59.421875 11.28125 64.40625 15.921875 
L 64.40625 5.609375 
Q 59.234375 2.09375 53.4375 0.328125 
Q 47.65625 -1.421875 41.21875 -1.421875 
Q 24.65625 -1.421875 15.125 8.703125 
Q 5.609375 18.84375 5.609375 36.375 
Q 5.609375 53.953125 15.125 64.078125 
Q 24.65625 74.21875 41.21875 74.21875 
Q 47.75 74.21875 53.53125 72.484375 
Q 59.328125 70.75 64.40625 67.28125 
z
" id="DejaVuSans-67"/>
      <path d="M 30.609375 48.390625 
Q 23.390625 48.390625 19.1875 42.75 
Q 14.984375 37.109375 14.984375 27.296875 
Q 14.984375 17.484375 19.15625 11.84375 
Q 23.34375 6.203125 30.609375 6.203125 
Q 37.796875 6.203125 41.984375 11.859375 
Q 46.1875 17.53125 46.1875 27.296875 
Q 46.1875 37.015625 41.984375 42.703125 
Q 37.796875 48.390625 30.609375 48.390625 
z
M 30.609375 56 
Q 42.328125 56 49.015625 48.375 
Q 55.71875 40.765625 55.71875 27.296875 
Q 55.71875 13.875 49.015625 6.21875 
Q 42.328125 -1.421875 30.609375 -1.421875 
Q 18.84375 -1.421875 12.171875 6.21875 
Q 5.515625 13.875 5.515625 27.296875 
Q 5.515625 40.765625 12.171875 48.375 
Q 18.84375 56 30.609375 56 
z
" id="DejaVuSans-111"/>
      <path d="M 41.109375 46.296875 
Q 39.59375 47.171875 37.8125 47.578125 
Q 36.03125 48 33.890625 48 
Q 26.265625 48 22.1875 43.046875 
Q 18.109375 38.09375 18.109375 28.8125 
L 18.109375 0 
L 9.078125 0 
L 9.078125 54.6875 
L 18.109375 54.6875 
L 18.109375 46.1875 
Q 20.953125 51.171875 25.484375 53.578125 
Q 30.03125 56 36.53125 56 
Q 37.453125 56 38.578125 55.875 
Q 39.703125 55.765625 41.0625 55.515625 
z
" id="DejaVuSans-114"/>
      <path d="M 18.109375 8.203125 
L 18.109375 -20.796875 
L 9.078125 -20.796875 
L 9.078125 54.6875 
L 18.109375 54.6875 
L 18.109375 46.390625 
Q 20.953125 51.265625 25.265625 53.625 
Q 29.59375 56 35.59375 56 
Q 45.5625 56 51.78125 48.09375 
Q 58.015625 40.1875 58.015625 27.296875 
Q 58.015625 14.40625 51.78125 6.484375 
Q 45.5625 -1.421875 35.59375 -1.421875 
Q 29.59375 -1.421875 25.265625 0.953125 
Q 20.953125 3.328125 18.109375 8.203125 
z
M 48.6875 27.296875 
Q 48.6875 37.203125 44.609375 42.84375 
Q 40.53125 48.484375 33.40625 48.484375 
Q 26.265625 48.484375 22.1875 42.84375 
Q 18.109375 37.203125 18.109375 27.296875 
Q 18.109375 17.390625 22.1875 11.75 
Q 26.265625 6.109375 33.40625 6.109375 
Q 40.53125 6.109375 44.609375 11.75 
Q 48.6875 17.390625 48.6875 27.296875 
z
" id="DejaVuSans-112"/>
      <path d="M 44.28125 53.078125 
L 44.28125 44.578125 
Q 40.484375 46.53125 36.375 47.5 
Q 32.28125 48.484375 27.875 48.484375 
Q 21.1875 48.484375 17.84375 46.4375 
Q 14.5 44.390625 14.5 40.28125 
Q 14.5 37.15625 16.890625 35.375 
Q 19.28125 33.59375 26.515625 31.984375 
L 29.59375 31.296875 
Q 39.15625 29.25 43.1875 25.515625 
Q 47.21875 21.78125 47.21875 15.09375 
Q 47.21875 7.46875 41.1875 3.015625 
Q 35.15625 -1.421875 24.609375 -1.421875 
Q 20.21875 -1.421875 15.453125 -0.5625 
Q 10.6875 0.296875 5.421875 2 
L 5.421875 11.28125 
Q 10.40625 8.6875 15.234375 7.390625 
Q 20.0625 6.109375 24.8125 6.109375 
Q 31.15625 6.109375 34.5625 8.28125 
Q 37.984375 10.453125 37.984375 14.40625 
Q 37.984375 18.0625 35.515625 20.015625 
Q 33.0625 21.96875 24.703125 23.78125 
L 21.578125 24.515625 
Q 13.234375 26.265625 9.515625 29.90625 
Q 5.8125 33.546875 5.8125 39.890625 
Q 5.8125 47.609375 11.28125 51.796875 
Q 16.75 56 26.8125 56 
Q 31.78125 56 36.171875 55.265625 
Q 40.578125 54.546875 44.28125 53.078125 
z
" id="DejaVuSans-115"/>
      <path d="M 52 44.1875 
Q 55.375 50.25 60.0625 53.125 
Q 64.75 56 71.09375 56 
Q 79.640625 56 84.28125 50.015625 
Q 88.921875 44.046875 88.921875 33.015625 
L 88.921875 0 
L 79.890625 0 
L 79.890625 32.71875 
Q 79.890625 40.578125 77.09375 44.375 
Q 74.3125 48.1875 68.609375 48.1875 
Q 61.625 48.1875 57.5625 43.546875 
Q 53.515625 38.921875 53.515625 30.90625 
L 53.515625 0 
L 44.484375 0 
L 44.484375 32.71875 
Q 44.484375 40.625 41.703125 44.40625 
Q 38.921875 48.1875 33.109375 48.1875 
Q 26.21875 48.1875 22.15625 43.53125 
Q 18.109375 38.875 18.109375 30.90625 
L 18.109375 0 
L 9.078125 0 
L 9.078125 54.6875 
L 18.109375 54.6875 
L 18.109375 46.1875 
Q 21.1875 51.21875 25.484375 53.609375 
Q 29.78125 56 35.6875 56 
Q 41.65625 56 45.828125 52.96875 
Q 50 49.953125 52 44.1875 
z
" id="DejaVuSans-109"/>
      <path d="M 48.6875 27.296875 
Q 48.6875 37.203125 44.609375 42.84375 
Q 40.53125 48.484375 33.40625 48.484375 
Q 26.265625 48.484375 22.1875 42.84375 
Q 18.109375 37.203125 18.109375 27.296875 
Q 18.109375 17.390625 22.1875 11.75 
Q 26.265625 6.109375 33.40625 6.109375 
Q 40.53125 6.109375 44.609375 11.75 
Q 48.6875 17.390625 48.6875 27.296875 
z
M 18.109375 46.390625 
Q 20.953125 51.265625 25.265625 53.625 
Q 29.59375 56 35.59375 56 
Q 45.5625 56 51.78125 48.09375 
Q 58.015625 40.1875 58.015625 27.296875 
Q 58.015625 14.40625 51.78125 6.484375 
Q 45.5625 -1.421875 35.59375 -1.421875 
Q 29.59375 -1.421875 25.265625 0.953125 
Q 20.953125 3.328125 18.109375 8.203125 
L 18.109375 0 
L 9.078125 0 
L 9.078125 75.984375 
L 18.109375 75.984375 
z
" id="DejaVuSans-98"/>
      <path d="M 56.203125 29.59375 
L 56.203125 25.203125 
L 14.890625 25.203125 
Q 15.484375 15.921875 20.484375 11.0625 
Q 25.484375 6.203125 34.421875 6.203125 
Q 39.59375 6.203125 44.453125 7.46875 
Q 49.3125 8.734375 54.109375 11.28125 
L 54.109375 2.78125 
Q 49.265625 0.734375 44.1875 -0.34375 
Q 39.109375 -1.421875 33.890625 -1.421875 
Q 20.796875 -1.421875 13.15625 6.1875 
Q 5.515625 13.8125 5.515625 26.8125 
Q 5.515625 40.234375 12.765625 48.109375 
Q 20.015625 56 32.328125 56 
Q 43.359375 56 49.78125 48.890625 
Q 56.203125 41.796875 56.203125 29.59375 
z
M 47.21875 32.234375 
Q 47.125 39.59375 43.09375 43.984375 
Q 39.0625 48.390625 32.421875 48.390625 
Q 24.90625 48.390625 20.390625 44.140625 
Q 15.875 39.890625 15.1875 32.171875 
z
" id="DejaVuSans-101"/>
      <path d="M 45.40625 46.390625 
L 45.40625 75.984375 
L 54.390625 75.984375 
L 54.390625 0 
L 45.40625 0 
L 45.40625 8.203125 
Q 42.578125 3.328125 38.25 0.953125 
Q 33.9375 -1.421875 27.875 -1.421875 
Q 17.96875 -1.421875 11.734375 6.484375 
Q 5.515625 14.40625 5.515625 27.296875 
Q 5.515625 40.1875 11.734375 48.09375 
Q 17.96875 56 27.875 56 
Q 33.9375 56 38.25 53.625 
Q 42.578125 51.265625 45.40625 46.390625 
z
M 14.796875 27.296875 
Q 14.796875 17.390625 18.875 11.75 
Q 22.953125 6.109375 30.078125 6.109375 
Q 37.203125 6.109375 41.296875 11.75 
Q 45.40625 17.390625 45.40625 27.296875 
Q 45.40625 37.203125 41.296875 42.84375 
Q 37.203125 48.484375 30.078125 48.484375 
Q 22.953125 48.484375 18.875 42.84375 
Q 14.796875 37.203125 14.796875 27.296875 
z
" id="DejaVuSans-100"/>
      <path d="M 9.421875 54.6875 
L 18.40625 54.6875 
L 18.40625 0 
L 9.421875 0 
z
M 9.421875 75.984375 
L 18.40625 75.984375 
L 18.40625 64.59375 
L 9.421875 64.59375 
z
" id="DejaVuSans-105"/>
      <path d="M 54.890625 33.015625 
L 54.890625 0 
L 45.90625 0 
L 45.90625 32.71875 
Q 45.90625 40.484375 42.875 44.328125 
Q 39.84375 48.1875 33.796875 48.1875 
Q 26.515625 48.1875 22.3125 43.546875 
Q 18.109375 38.921875 18.109375 30.90625 
L 18.109375 0 
L 9.078125 0 
L 9.078125 54.6875 
L 18.109375 54.6875 
L 18.109375 46.1875 
Q 21.34375 51.125 25.703125 53.5625 
Q 30.078125 56 35.796875 56 
Q 45.21875 56 50.046875 50.171875 
Q 54.890625 44.34375 54.890625 33.015625 
z
" id="DejaVuSans-110"/>
      <path d="M 45.40625 27.984375 
Q 45.40625 37.75 41.375 43.109375 
Q 37.359375 48.484375 30.078125 48.484375 
Q 22.859375 48.484375 18.828125 43.109375 
Q 14.796875 37.75 14.796875 27.984375 
Q 14.796875 18.265625 18.828125 12.890625 
Q 22.859375 7.515625 30.078125 7.515625 
Q 37.359375 7.515625 41.375 12.890625 
Q 45.40625 18.265625 45.40625 27.984375 
z
M 54.390625 6.78125 
Q 54.390625 -7.171875 48.1875 -13.984375 
Q 42 -20.796875 29.203125 -20.796875 
Q 24.46875 -20.796875 20.265625 -20.09375 
Q 16.0625 -19.390625 12.109375 -17.921875 
L 12.109375 -9.1875 
Q 16.0625 -11.328125 19.921875 -12.34375 
Q 23.78125 -13.375 27.78125 -13.375 
Q 36.625 -13.375 41.015625 -8.765625 
Q 45.40625 -4.15625 45.40625 5.171875 
L 45.40625 9.625 
Q 42.625 4.78125 38.28125 2.390625 
Q 33.9375 0 27.875 0 
Q 17.828125 0 11.671875 7.65625 
Q 5.515625 15.328125 5.515625 27.984375 
Q 5.515625 40.671875 11.671875 48.328125 
Q 17.828125 56 27.875 56 
Q 33.9375 56 38.28125 53.609375 
Q 42.625 51.21875 45.40625 46.390625 
L 45.40625 54.6875 
L 54.390625 54.6875 
z
" id="DejaVuSans-103"/>
     </defs>
     <use xlink:href="#DejaVuSans-65"/>
     <use x="68.408203" xlink:href="#DejaVuSans-41"/>
     <use x="107.421875" xlink:href="#DejaVuSans-32"/>
     <use x="139.208984" xlink:href="#DejaVuSans-69"/>
     <use x="202.392578" xlink:href="#DejaVuSans-77"/>
     <use x="288.671875" xlink:href="#DejaVuSans-73"/>
     <use x="318.164062" xlink:href="#DejaVuSans-32"/>
     <use x="349.951172" xlink:href="#DejaVuSans-40"/>
     <use x="388.964844" xlink:href="#DejaVuSans-70"/>
     <use x="440.984375" xlink:href="#DejaVuSans-117"/>
     <use x="504.363281" xlink:href="#DejaVuSans-108"/>
     <use x="532.146484" xlink:href="#DejaVuSans-108"/>
     <use x="559.929688" xlink:href="#DejaVuSans-32"/>
     <use x="591.716797" xlink:href="#DejaVuSans-67"/>
     <use x="661.541016" xlink:href="#DejaVuSans-111"/>
     <use x="722.722656" xlink:href="#DejaVuSans-114"/>
     <use x="763.835938" xlink:href="#DejaVuSans-112"/>
     <use x="827.3125" xlink:href="#DejaVuSans-117"/>
     <use x="890.691406" xlink:href="#DejaVuSans-115"/>
     <use x="942.791016" xlink:href="#DejaVuSans-32"/>
     <use x="974.578125" xlink:href="#DejaVuSans-69"/>
     <use x="1037.761719" xlink:href="#DejaVuSans-109"/>
     <use x="1135.173828" xlink:href="#DejaVuSans-98"/>
     <use x="1198.650391" xlink:href="#DejaVuSans-101"/>
     <use x="1260.173828" xlink:href="#DejaVuSans-100"/>
     <use x="1323.650391" xlink:href="#DejaVuSans-100"/>
     <use x="1387.126953" xlink:href="#DejaVuSans-105"/>
     <use x="1414.910156" xlink:href="#DejaVuSans-110"/>
     <use x="1478.289062" xlink:href="#DejaVuSans-103"/>
     <use x="1541.765625" xlink:href="#DejaVuSans-115"/>
     <use x="1593.865234" xlink:href="#DejaVuSans-41"/>
    </g>
   </g>
   <g id="legend_1">
    <g id="patch_6">
     <path d="M 712.19601 92.654115 
L 848.39976 92.654115 
Q 851.99976 92.654115 851.99976 89.054115 
L 851.99976 38.012865 
Q 851.99976 34.412865 848.39976 34.412865 
L 712.19601 34.412865 
Q 708.59601 34.412865 708.59601 38.012865 
L 708.59601 89.054115 
Q 708.59601 92.654115 712.19601 92.654115 
z
" style="fill:#ffffff;opacity:0.8;stroke:#cccccc;stroke-linejoin:miter;"/>
    </g>
    <g id="line2d_24">
     <path d="M 715.79601 48.990052 
L 751.79601 48.990052 
" style="fill:none;stroke:#000000;stroke-linecap:square;"/>
    </g>
    <g id="line2d_25">
     <g>
      <use style="stroke:#000000;" x="733.79601" xlink:href="#m089320187b" y="48.990052"/>
     </g>
    </g>
    <g id="text_7">
     <!-- EMI -->
     <g transform="translate(766.19601 55.290052)scale(0.18 -0.18)">
      <use xlink:href="#DejaVuSans-69"/>
      <use x="63.183594" xlink:href="#DejaVuSans-77"/>
      <use x="149.462891" xlink:href="#DejaVuSans-73"/>
     </g>
    </g>
    <g id="line2d_26">
     <path d="M 715.79601 75.410677 
L 751.79601 75.410677 
" style="fill:none;stroke:#808080;stroke-dasharray:3.7,1.6;stroke-dashoffset:0;"/>
    </g>
    <g id="line2d_27"/>
    <g id="text_8">
     <!-- MARS Fit -->
     <g transform="translate(766.19601 81.710677)scale(0.18 -0.18)">
      <defs>
       <path d="M 44.390625 34.1875 
Q 47.5625 33.109375 50.5625 29.59375 
Q 53.5625 26.078125 56.59375 19.921875 
L 66.609375 0 
L 56 0 
L 46.6875 18.703125 
Q 43.0625 26.03125 39.671875 28.421875 
Q 36.28125 30.8125 30.421875 30.8125 
L 19.671875 30.8125 
L 19.671875 0 
L 9.8125 0 
L 9.8125 72.90625 
L 32.078125 72.90625 
Q 44.578125 72.90625 50.734375 67.671875 
Q 56.890625 62.453125 56.890625 51.90625 
Q 56.890625 45.015625 53.6875 40.46875 
Q 50.484375 35.9375 44.390625 34.1875 
z
M 19.671875 64.796875 
L 19.671875 38.921875 
L 32.078125 38.921875 
Q 39.203125 38.921875 42.84375 42.21875 
Q 46.484375 45.515625 46.484375 51.90625 
Q 46.484375 58.296875 42.84375 61.546875 
Q 39.203125 64.796875 32.078125 64.796875 
z
" id="DejaVuSans-82"/>
       <path d="M 53.515625 70.515625 
L 53.515625 60.890625 
Q 47.90625 63.578125 42.921875 64.890625 
Q 37.9375 66.21875 33.296875 66.21875 
Q 25.25 66.21875 20.875 63.09375 
Q 16.5 59.96875 16.5 54.203125 
Q 16.5 49.359375 19.40625 46.890625 
Q 22.3125 44.4375 30.421875 42.921875 
L 36.375 41.703125 
Q 47.40625 39.59375 52.65625 34.296875 
Q 57.90625 29 57.90625 20.125 
Q 57.90625 9.515625 50.796875 4.046875 
Q 43.703125 -1.421875 29.984375 -1.421875 
Q 24.8125 -1.421875 18.96875 -0.25 
Q 13.140625 0.921875 6.890625 3.21875 
L 6.890625 13.375 
Q 12.890625 10.015625 18.65625 8.296875 
Q 24.421875 6.59375 29.984375 6.59375 
Q 38.421875 6.59375 43.015625 9.90625 
Q 47.609375 13.234375 47.609375 19.390625 
Q 47.609375 24.75 44.3125 27.78125 
Q 41.015625 30.8125 33.5 32.328125 
L 27.484375 33.5 
Q 16.453125 35.6875 11.515625 40.375 
Q 6.59375 45.0625 6.59375 53.421875 
Q 6.59375 63.09375 13.40625 68.65625 
Q 20.21875 74.21875 32.171875 74.21875 
Q 37.3125 74.21875 42.625 73.28125 
Q 47.953125 72.359375 53.515625 70.515625 
z
" id="DejaVuSans-83"/>
       <path d="M 18.3125 70.21875 
L 18.3125 54.6875 
L 36.8125 54.6875 
L 36.8125 47.703125 
L 18.3125 47.703125 
L 18.3125 18.015625 
Q 18.3125 11.328125 20.140625 9.421875 
Q 21.96875 7.515625 27.59375 7.515625 
L 36.8125 7.515625 
L 36.8125 0 
L 27.59375 0 
Q 17.1875 0 13.234375 3.875 
Q 9.28125 7.765625 9.28125 18.015625 
L 9.28125 47.703125 
L 2.6875 47.703125 
L 2.6875 54.6875 
L 9.28125 54.6875 
L 9.28125 70.21875 
z
" id="DejaVuSans-116"/>
      </defs>
      <use xlink:href="#DejaVuSans-77"/>
      <use x="86.279297" xlink:href="#DejaVuSans-65"/>
      <use x="154.6875" xlink:href="#DejaVuSans-82"/>
      <use x="224.169922" xlink:href="#DejaVuSans-83"/>
      <use x="287.646484" xlink:href="#DejaVuSans-32"/>
      <use x="319.433594" xlink:href="#DejaVuSans-70"/>
      <use x="369.703125" xlink:href="#DejaVuSans-105"/>
      <use x="397.486328" xlink:href="#DejaVuSans-116"/>
     </g>
    </g>
   </g>
  </g>
  <g id="axes_2">
   <g id="patch_7">
    <path d="M 75.129928 527.017885 
L 860.99976 527.017885 
L 860.99976 295.051927 
L 75.129928 295.051927 
z
" style="fill:#ffffff;"/>
   </g>
   <g id="matplotlib.axis_3">
    <g id="xtick_9">
     <g id="line2d_28">
      <path clip-path="url(#pce2611838b)" d="M 115.88246 527.017885 
L 115.88246 295.051927 
" style="fill:none;stroke:#b0b0b0;stroke-linecap:square;stroke-width:0.8;"/>
     </g>
     <g id="line2d_29">
      <g>
       <use style="stroke:#000000;stroke-width:0.8;" x="115.88246" xlink:href="#mdb4a26394a" y="527.017885"/>
      </g>
     </g>
     <g id="text_9">
      <!-- 1880 -->
      <g transform="translate(92.97746 547.695073)scale(0.18 -0.18)">
       <defs>
        <path d="M 12.40625 8.296875 
L 28.515625 8.296875 
L 28.515625 63.921875 
L 10.984375 60.40625 
L 10.984375 69.390625 
L 28.421875 72.90625 
L 38.28125 72.90625 
L 38.28125 8.296875 
L 54.390625 8.296875 
L 54.390625 0 
L 12.40625 0 
z
" id="DejaVuSans-49"/>
        <path d="M 31.78125 34.625 
Q 24.75 34.625 20.71875 30.859375 
Q 16.703125 27.09375 16.703125 20.515625 
Q 16.703125 13.921875 20.71875 10.15625 
Q 24.75 6.390625 31.78125 6.390625 
Q 38.8125 6.390625 42.859375 10.171875 
Q 46.921875 13.96875 46.921875 20.515625 
Q 46.921875 27.09375 42.890625 30.859375 
Q 38.875 34.625 31.78125 34.625 
z
M 21.921875 38.8125 
Q 15.578125 40.375 12.03125 44.71875 
Q 8.5 49.078125 8.5 55.328125 
Q 8.5 64.0625 14.71875 69.140625 
Q 20.953125 74.21875 31.78125 74.21875 
Q 42.671875 74.21875 48.875 69.140625 
Q 55.078125 64.0625 55.078125 55.328125 
Q 55.078125 49.078125 51.53125 44.71875 
Q 48 40.375 41.703125 38.8125 
Q 48.828125 37.15625 52.796875 32.3125 
Q 56.78125 27.484375 56.78125 20.515625 
Q 56.78125 9.90625 50.3125 4.234375 
Q 43.84375 -1.421875 31.78125 -1.421875 
Q 19.734375 -1.421875 13.25 4.234375 
Q 6.78125 9.90625 6.78125 20.515625 
Q 6.78125 27.484375 10.78125 32.3125 
Q 14.796875 37.15625 21.921875 38.8125 
z
M 18.3125 54.390625 
Q 18.3125 48.734375 21.84375 45.5625 
Q 25.390625 42.390625 31.78125 42.390625 
Q 38.140625 42.390625 41.71875 45.5625 
Q 45.3125 48.734375 45.3125 54.390625 
Q 45.3125 60.0625 41.71875 63.234375 
Q 38.140625 66.40625 31.78125 66.40625 
Q 25.390625 66.40625 21.84375 63.234375 
Q 18.3125 60.0625 18.3125 54.390625 
z
" id="DejaVuSans-56"/>
       </defs>
       <use xlink:href="#DejaVuSans-49"/>
       <use x="63.623047" xlink:href="#DejaVuSans-56"/>
       <use x="127.246094" xlink:href="#DejaVuSans-56"/>
       <use x="190.869141" xlink:href="#DejaVuSans-48"/>
      </g>
     </g>
    </g>
    <g id="xtick_10">
     <g id="line2d_30">
      <path clip-path="url(#pce2611838b)" d="M 216.505999 527.017885 
L 216.505999 295.051927 
" style="fill:none;stroke:#b0b0b0;stroke-linecap:square;stroke-width:0.8;"/>
     </g>
     <g id="line2d_31">
      <g>
       <use style="stroke:#000000;stroke-width:0.8;" x="216.505999" xlink:href="#mdb4a26394a" y="527.017885"/>
      </g>
     </g>
     <g id="text_10">
      <!-- 1900 -->
      <g transform="translate(193.600999 547.695073)scale(0.18 -0.18)">
       <defs>
        <path d="M 10.984375 1.515625 
L 10.984375 10.5 
Q 14.703125 8.734375 18.5 7.8125 
Q 22.3125 6.890625 25.984375 6.890625 
Q 35.75 6.890625 40.890625 13.453125 
Q 46.046875 20.015625 46.78125 33.40625 
Q 43.953125 29.203125 39.59375 26.953125 
Q 35.25 24.703125 29.984375 24.703125 
Q 19.046875 24.703125 12.671875 31.3125 
Q 6.296875 37.9375 6.296875 49.421875 
Q 6.296875 60.640625 12.9375 67.421875 
Q 19.578125 74.21875 30.609375 74.21875 
Q 43.265625 74.21875 49.921875 64.515625 
Q 56.59375 54.828125 56.59375 36.375 
Q 56.59375 19.140625 48.40625 8.859375 
Q 40.234375 -1.421875 26.421875 -1.421875 
Q 22.703125 -1.421875 18.890625 -0.6875 
Q 15.09375 0.046875 10.984375 1.515625 
z
M 30.609375 32.421875 
Q 37.25 32.421875 41.125 36.953125 
Q 45.015625 41.5 45.015625 49.421875 
Q 45.015625 57.28125 41.125 61.84375 
Q 37.25 66.40625 30.609375 66.40625 
Q 23.96875 66.40625 20.09375 61.84375 
Q 16.21875 57.28125 16.21875 49.421875 
Q 16.21875 41.5 20.09375 36.953125 
Q 23.96875 32.421875 30.609375 32.421875 
z
" id="DejaVuSans-57"/>
       </defs>
       <use xlink:href="#DejaVuSans-49"/>
       <use x="63.623047" xlink:href="#DejaVuSans-57"/>
       <use x="127.246094" xlink:href="#DejaVuSans-48"/>
       <use x="190.869141" xlink:href="#DejaVuSans-48"/>
      </g>
     </g>
    </g>
    <g id="xtick_11">
     <g id="line2d_32">
      <path clip-path="url(#pce2611838b)" d="M 317.129537 527.017885 
L 317.129537 295.051927 
" style="fill:none;stroke:#b0b0b0;stroke-linecap:square;stroke-width:0.8;"/>
     </g>
     <g id="line2d_33">
      <g>
       <use style="stroke:#000000;stroke-width:0.8;" x="317.129537" xlink:href="#mdb4a26394a" y="527.017885"/>
      </g>
     </g>
     <g id="text_11">
      <!-- 1920 -->
      <g transform="translate(294.224537 547.695073)scale(0.18 -0.18)">
       <use xlink:href="#DejaVuSans-49"/>
       <use x="63.623047" xlink:href="#DejaVuSans-57"/>
       <use x="127.246094" xlink:href="#DejaVuSans-50"/>
       <use x="190.869141" xlink:href="#DejaVuSans-48"/>
      </g>
     </g>
    </g>
    <g id="xtick_12">
     <g id="line2d_34">
      <path clip-path="url(#pce2611838b)" d="M 417.753075 527.017885 
L 417.753075 295.051927 
" style="fill:none;stroke:#b0b0b0;stroke-linecap:square;stroke-width:0.8;"/>
     </g>
     <g id="line2d_35">
      <g>
       <use style="stroke:#000000;stroke-width:0.8;" x="417.753075" xlink:href="#mdb4a26394a" y="527.017885"/>
      </g>
     </g>
     <g id="text_12">
      <!-- 1940 -->
      <g transform="translate(394.848075 547.695073)scale(0.18 -0.18)">
       <use xlink:href="#DejaVuSans-49"/>
       <use x="63.623047" xlink:href="#DejaVuSans-57"/>
       <use x="127.246094" xlink:href="#DejaVuSans-52"/>
       <use x="190.869141" xlink:href="#DejaVuSans-48"/>
      </g>
     </g>
    </g>
    <g id="xtick_13">
     <g id="line2d_36">
      <path clip-path="url(#pce2611838b)" d="M 518.376613 527.017885 
L 518.376613 295.051927 
" style="fill:none;stroke:#b0b0b0;stroke-linecap:square;stroke-width:0.8;"/>
     </g>
     <g id="line2d_37">
      <g>
       <use style="stroke:#000000;stroke-width:0.8;" x="518.376613" xlink:href="#mdb4a26394a" y="527.017885"/>
      </g>
     </g>
     <g id="text_13">
      <!-- 1960 -->
      <g transform="translate(495.471613 547.695073)scale(0.18 -0.18)">
       <defs>
        <path d="M 33.015625 40.375 
Q 26.375 40.375 22.484375 35.828125 
Q 18.609375 31.296875 18.609375 23.390625 
Q 18.609375 15.53125 22.484375 10.953125 
Q 26.375 6.390625 33.015625 6.390625 
Q 39.65625 6.390625 43.53125 10.953125 
Q 47.40625 15.53125 47.40625 23.390625 
Q 47.40625 31.296875 43.53125 35.828125 
Q 39.65625 40.375 33.015625 40.375 
z
M 52.59375 71.296875 
L 52.59375 62.3125 
Q 48.875 64.0625 45.09375 64.984375 
Q 41.3125 65.921875 37.59375 65.921875 
Q 27.828125 65.921875 22.671875 59.328125 
Q 17.53125 52.734375 16.796875 39.40625 
Q 19.671875 43.65625 24.015625 45.921875 
Q 28.375 48.1875 33.59375 48.1875 
Q 44.578125 48.1875 50.953125 41.515625 
Q 57.328125 34.859375 57.328125 23.390625 
Q 57.328125 12.15625 50.6875 5.359375 
Q 44.046875 -1.421875 33.015625 -1.421875 
Q 20.359375 -1.421875 13.671875 8.265625 
Q 6.984375 17.96875 6.984375 36.375 
Q 6.984375 53.65625 15.1875 63.9375 
Q 23.390625 74.21875 37.203125 74.21875 
Q 40.921875 74.21875 44.703125 73.484375 
Q 48.484375 72.75 52.59375 71.296875 
z
" id="DejaVuSans-54"/>
       </defs>
       <use xlink:href="#DejaVuSans-49"/>
       <use x="63.623047" xlink:href="#DejaVuSans-57"/>
       <use x="127.246094" xlink:href="#DejaVuSans-54"/>
       <use x="190.869141" xlink:href="#DejaVuSans-48"/>
      </g>
     </g>
    </g>
    <g id="xtick_14">
     <g id="line2d_38">
      <path clip-path="url(#pce2611838b)" d="M 619.000151 527.017885 
L 619.000151 295.051927 
" style="fill:none;stroke:#b0b0b0;stroke-linecap:square;stroke-width:0.8;"/>
     </g>
     <g id="line2d_39">
      <g>
       <use style="stroke:#000000;stroke-width:0.8;" x="619.000151" xlink:href="#mdb4a26394a" y="527.017885"/>
      </g>
     </g>
     <g id="text_14">
      <!-- 1980 -->
      <g transform="translate(596.095151 547.695073)scale(0.18 -0.18)">
       <use xlink:href="#DejaVuSans-49"/>
       <use x="63.623047" xlink:href="#DejaVuSans-57"/>
       <use x="127.246094" xlink:href="#DejaVuSans-56"/>
       <use x="190.869141" xlink:href="#DejaVuSans-48"/>
      </g>
     </g>
    </g>
    <g id="xtick_15">
     <g id="line2d_40">
      <path clip-path="url(#pce2611838b)" d="M 719.623689 527.017885 
L 719.623689 295.051927 
" style="fill:none;stroke:#b0b0b0;stroke-linecap:square;stroke-width:0.8;"/>
     </g>
     <g id="line2d_41">
      <g>
       <use style="stroke:#000000;stroke-width:0.8;" x="719.623689" xlink:href="#mdb4a26394a" y="527.017885"/>
      </g>
     </g>
     <g id="text_15">
      <!-- 2000 -->
      <g transform="translate(696.718689 547.695073)scale(0.18 -0.18)">
       <use xlink:href="#DejaVuSans-50"/>
       <use x="63.623047" xlink:href="#DejaVuSans-48"/>
       <use x="127.246094" xlink:href="#DejaVuSans-48"/>
       <use x="190.869141" xlink:href="#DejaVuSans-48"/>
      </g>
     </g>
    </g>
    <g id="xtick_16">
     <g id="line2d_42">
      <path clip-path="url(#pce2611838b)" d="M 820.247227 527.017885 
L 820.247227 295.051927 
" style="fill:none;stroke:#b0b0b0;stroke-linecap:square;stroke-width:0.8;"/>
     </g>
     <g id="line2d_43">
      <g>
       <use style="stroke:#000000;stroke-width:0.8;" x="820.247227" xlink:href="#mdb4a26394a" y="527.017885"/>
      </g>
     </g>
     <g id="text_16">
      <!-- 2020 -->
      <g transform="translate(797.342227 547.695073)scale(0.18 -0.18)">
       <use xlink:href="#DejaVuSans-50"/>
       <use x="63.623047" xlink:href="#DejaVuSans-48"/>
       <use x="127.246094" xlink:href="#DejaVuSans-50"/>
       <use x="190.869141" xlink:href="#DejaVuSans-48"/>
      </g>
     </g>
    </g>
    <g id="text_17">
     <!-- Starting year -->
     <g transform="translate(400.917812 569.115698)scale(0.18 -0.18)">
      <defs>
       <path d="M 59.90625 70.609375 
L 59.90625 55.171875 
Q 53.90625 57.859375 48.1875 59.21875 
Q 42.484375 60.59375 37.40625 60.59375 
Q 30.671875 60.59375 27.4375 58.734375 
Q 24.21875 56.890625 24.21875 52.984375 
Q 24.21875 50.046875 26.390625 48.40625 
Q 28.5625 46.78125 34.28125 45.609375 
L 42.28125 44 
Q 54.4375 41.546875 59.5625 36.5625 
Q 64.703125 31.59375 64.703125 22.40625 
Q 64.703125 10.359375 57.546875 4.46875 
Q 50.390625 -1.421875 35.6875 -1.421875 
Q 28.765625 -1.421875 21.78125 -0.09375 
Q 14.796875 1.21875 7.8125 3.8125 
L 7.8125 19.671875 
Q 14.796875 15.96875 21.3125 14.078125 
Q 27.828125 12.203125 33.890625 12.203125 
Q 40.046875 12.203125 43.3125 14.25 
Q 46.578125 16.3125 46.578125 20.125 
Q 46.578125 23.53125 44.359375 25.390625 
Q 42.140625 27.25 35.5 28.71875 
L 28.21875 30.328125 
Q 17.28125 32.671875 12.21875 37.796875 
Q 7.171875 42.921875 7.171875 51.609375 
Q 7.171875 62.5 14.203125 68.359375 
Q 21.234375 74.21875 34.421875 74.21875 
Q 40.4375 74.21875 46.78125 73.3125 
Q 53.125 72.40625 59.90625 70.609375 
z
" id="DejaVuSans-Bold-83"/>
       <path d="M 27.484375 70.21875 
L 27.484375 54.6875 
L 45.515625 54.6875 
L 45.515625 42.1875 
L 27.484375 42.1875 
L 27.484375 19 
Q 27.484375 15.1875 29 13.84375 
Q 30.515625 12.5 35.015625 12.5 
L 44 12.5 
L 44 0 
L 29 0 
Q 18.65625 0 14.328125 4.3125 
Q 10.015625 8.640625 10.015625 19 
L 10.015625 42.1875 
L 1.3125 42.1875 
L 1.3125 54.6875 
L 10.015625 54.6875 
L 10.015625 70.21875 
z
" id="DejaVuSans-Bold-116"/>
       <path d="M 32.90625 24.609375 
Q 27.4375 24.609375 24.671875 22.75 
Q 21.921875 20.90625 21.921875 17.28125 
Q 21.921875 13.96875 24.140625 12.078125 
Q 26.375 10.203125 30.328125 10.203125 
Q 35.25 10.203125 38.625 13.734375 
Q 42 17.28125 42 22.609375 
L 42 24.609375 
z
M 59.625 31.203125 
L 59.625 0 
L 42 0 
L 42 8.109375 
Q 38.484375 3.125 34.078125 0.84375 
Q 29.6875 -1.421875 23.390625 -1.421875 
Q 14.890625 -1.421875 9.59375 3.53125 
Q 4.296875 8.5 4.296875 16.40625 
Q 4.296875 26.03125 10.90625 30.515625 
Q 17.53125 35.015625 31.6875 35.015625 
L 42 35.015625 
L 42 36.375 
Q 42 40.53125 38.71875 42.453125 
Q 35.453125 44.390625 28.515625 44.390625 
Q 22.90625 44.390625 18.0625 43.265625 
Q 13.234375 42.140625 9.078125 39.890625 
L 9.078125 53.21875 
Q 14.703125 54.59375 20.359375 55.296875 
Q 26.03125 56 31.6875 56 
Q 46.484375 56 53.046875 50.171875 
Q 59.625 44.34375 59.625 31.203125 
z
" id="DejaVuSans-Bold-97"/>
       <path d="M 49.03125 39.796875 
Q 46.734375 40.875 44.453125 41.375 
Q 42.1875 41.890625 39.890625 41.890625 
Q 33.15625 41.890625 29.515625 37.5625 
Q 25.875 33.25 25.875 25.203125 
L 25.875 0 
L 8.40625 0 
L 8.40625 54.6875 
L 25.875 54.6875 
L 25.875 45.703125 
Q 29.25 51.078125 33.609375 53.53125 
Q 37.984375 56 44.09375 56 
Q 44.96875 56 45.984375 55.921875 
Q 47.015625 55.859375 48.96875 55.609375 
z
" id="DejaVuSans-Bold-114"/>
       <path d="M 8.40625 54.6875 
L 25.875 54.6875 
L 25.875 0 
L 8.40625 0 
z
M 8.40625 75.984375 
L 25.875 75.984375 
L 25.875 61.71875 
L 8.40625 61.71875 
z
" id="DejaVuSans-Bold-105"/>
       <path d="M 63.375 33.296875 
L 63.375 0 
L 45.796875 0 
L 45.796875 5.421875 
L 45.796875 25.484375 
Q 45.796875 32.5625 45.484375 35.25 
Q 45.171875 37.9375 44.390625 39.203125 
Q 43.359375 40.921875 41.59375 41.875 
Q 39.84375 42.828125 37.59375 42.828125 
Q 32.125 42.828125 29 38.59375 
Q 25.875 34.375 25.875 26.90625 
L 25.875 0 
L 8.40625 0 
L 8.40625 54.6875 
L 25.875 54.6875 
L 25.875 46.6875 
Q 29.828125 51.46875 34.265625 53.734375 
Q 38.71875 56 44.09375 56 
Q 53.5625 56 58.46875 50.1875 
Q 63.375 44.390625 63.375 33.296875 
z
" id="DejaVuSans-Bold-110"/>
       <path d="M 45.609375 9.28125 
Q 42 4.5 37.640625 2.25 
Q 33.296875 0 27.59375 0 
Q 17.578125 0 11.03125 7.875 
Q 4.5 15.765625 4.5 27.984375 
Q 4.5 40.234375 11.03125 48.0625 
Q 17.578125 55.90625 27.59375 55.90625 
Q 33.296875 55.90625 37.640625 53.65625 
Q 42 51.421875 45.609375 46.578125 
L 45.609375 54.6875 
L 63.1875 54.6875 
L 63.1875 5.515625 
Q 63.1875 -7.671875 54.859375 -14.625 
Q 46.53125 -21.578125 30.71875 -21.578125 
Q 25.59375 -21.578125 20.796875 -20.796875 
Q 16.015625 -20.015625 11.1875 -18.40625 
L 11.1875 -4.78125 
Q 15.765625 -7.421875 20.15625 -8.71875 
Q 24.5625 -10.015625 29 -10.015625 
Q 37.59375 -10.015625 41.59375 -6.25 
Q 45.609375 -2.484375 45.609375 5.515625 
z
M 34.078125 43.3125 
Q 28.65625 43.3125 25.625 39.296875 
Q 22.609375 35.296875 22.609375 27.984375 
Q 22.609375 20.453125 25.53125 16.578125 
Q 28.46875 12.703125 34.078125 12.703125 
Q 39.546875 12.703125 42.578125 16.703125 
Q 45.609375 20.703125 45.609375 27.984375 
Q 45.609375 35.296875 42.578125 39.296875 
Q 39.546875 43.3125 34.078125 43.3125 
z
" id="DejaVuSans-Bold-103"/>
       <path id="DejaVuSans-Bold-32"/>
       <path d="M 1.21875 54.6875 
L 18.703125 54.6875 
L 33.40625 17.578125 
L 45.90625 54.6875 
L 63.375 54.6875 
L 40.375 -5.171875 
Q 36.921875 -14.3125 32.296875 -17.9375 
Q 27.6875 -21.578125 20.125 -21.578125 
L 10.015625 -21.578125 
L 10.015625 -10.109375 
L 15.484375 -10.109375 
Q 19.921875 -10.109375 21.9375 -8.6875 
Q 23.96875 -7.28125 25.09375 -3.609375 
L 25.59375 -2.09375 
z
" id="DejaVuSans-Bold-121"/>
       <path d="M 62.984375 27.484375 
L 62.984375 22.515625 
L 22.125 22.515625 
Q 22.75 16.359375 26.5625 13.28125 
Q 30.375 10.203125 37.203125 10.203125 
Q 42.71875 10.203125 48.5 11.84375 
Q 54.296875 13.484375 60.40625 16.796875 
L 60.40625 3.328125 
Q 54.203125 0.984375 48 -0.21875 
Q 41.796875 -1.421875 35.59375 -1.421875 
Q 20.75 -1.421875 12.515625 6.125 
Q 4.296875 13.671875 4.296875 27.296875 
Q 4.296875 40.671875 12.375 48.328125 
Q 20.453125 56 34.625 56 
Q 47.515625 56 55.25 48.234375 
Q 62.984375 40.484375 62.984375 27.484375 
z
M 45.015625 33.296875 
Q 45.015625 38.28125 42.109375 41.328125 
Q 39.203125 44.390625 34.515625 44.390625 
Q 29.4375 44.390625 26.265625 41.53125 
Q 23.09375 38.671875 22.3125 33.296875 
z
" id="DejaVuSans-Bold-101"/>
      </defs>
      <use xlink:href="#DejaVuSans-Bold-83"/>
      <use x="72.021484" xlink:href="#DejaVuSans-Bold-116"/>
      <use x="119.824219" xlink:href="#DejaVuSans-Bold-97"/>
      <use x="187.304688" xlink:href="#DejaVuSans-Bold-114"/>
      <use x="236.621094" xlink:href="#DejaVuSans-Bold-116"/>
      <use x="284.423828" xlink:href="#DejaVuSans-Bold-105"/>
      <use x="318.701172" xlink:href="#DejaVuSans-Bold-110"/>
      <use x="389.892578" xlink:href="#DejaVuSans-Bold-103"/>
      <use x="461.474609" xlink:href="#DejaVuSans-Bold-32"/>
      <use x="496.289062" xlink:href="#DejaVuSans-Bold-121"/>
      <use x="561.474609" xlink:href="#DejaVuSans-Bold-101"/>
      <use x="629.296875" xlink:href="#DejaVuSans-Bold-97"/>
      <use x="696.777344" xlink:href="#DejaVuSans-Bold-114"/>
     </g>
    </g>
   </g>
   <g id="matplotlib.axis_4">
    <g id="ytick_5">
     <g id="line2d_44">
      <g>
       <use style="stroke:#000000;stroke-width:0.8;" x="75.129928" xlink:href="#mabc125e2eb" y="490.557699"/>
      </g>
     </g>
     <g id="text_18">
      <!-- −0.4 -->
      <g transform="translate(24.420865 497.396293)scale(0.18 -0.18)">
       <use xlink:href="#DejaVuSans-8722"/>
       <use x="83.789062" xlink:href="#DejaVuSans-48"/>
       <use x="147.412109" xlink:href="#DejaVuSans-46"/>
       <use x="179.199219" xlink:href="#DejaVuSans-52"/>
      </g>
     </g>
    </g>
    <g id="ytick_6">
     <g id="line2d_45">
      <g>
       <use style="stroke:#000000;stroke-width:0.8;" x="75.129928" xlink:href="#mabc125e2eb" y="433.930873"/>
      </g>
     </g>
     <g id="text_19">
      <!-- −0.2 -->
      <g transform="translate(24.420865 440.769467)scale(0.18 -0.18)">
       <use xlink:href="#DejaVuSans-8722"/>
       <use x="83.789062" xlink:href="#DejaVuSans-48"/>
       <use x="147.412109" xlink:href="#DejaVuSans-46"/>
       <use x="179.199219" xlink:href="#DejaVuSans-50"/>
      </g>
     </g>
    </g>
    <g id="ytick_7">
     <g id="line2d_46">
      <g>
       <use style="stroke:#000000;stroke-width:0.8;" x="75.129928" xlink:href="#mabc125e2eb" y="377.304047"/>
      </g>
     </g>
     <g id="text_20">
      <!-- 0.0 -->
      <g transform="translate(39.504303 384.14264)scale(0.18 -0.18)">
       <use xlink:href="#DejaVuSans-48"/>
       <use x="63.623047" xlink:href="#DejaVuSans-46"/>
       <use x="95.410156" xlink:href="#DejaVuSans-48"/>
      </g>
     </g>
    </g>
    <g id="ytick_8">
     <g id="line2d_47">
      <g>
       <use style="stroke:#000000;stroke-width:0.8;" x="75.129928" xlink:href="#mabc125e2eb" y="320.67722"/>
      </g>
     </g>
     <g id="text_21">
      <!-- 0.2 -->
      <g transform="translate(39.504303 327.515814)scale(0.18 -0.18)">
       <use xlink:href="#DejaVuSans-48"/>
       <use x="63.623047" xlink:href="#DejaVuSans-46"/>
       <use x="95.410156" xlink:href="#DejaVuSans-50"/>
      </g>
     </g>
    </g>
    <g id="text_22">
     <!-- EMI -->
     <g transform="translate(16.677428 429.487719)rotate(-90)scale(0.18 -0.18)">
      <use xlink:href="#DejaVuSans-Bold-69"/>
      <use x="68.310547" xlink:href="#DejaVuSans-Bold-77"/>
      <use x="167.822266" xlink:href="#DejaVuSans-Bold-73"/>
     </g>
    </g>
   </g>
   <g id="line2d_48">
    <path clip-path="url(#pce2611838b)" d="M 110.851284 349.860625 
L 120.913637 342.817437 
L 130.975991 343.666942 
L 141.038345 335.676366 
L 151.100699 346.850221 
L 161.163053 359.670158 
L 171.225406 338.649895 
L 181.28776 381.537145 
L 191.350114 347.832528 
L 201.412468 369.813061 
L 211.474822 369.966666 
L 221.537175 360.072368 
L 231.599529 346.937779 
L 241.661883 333.439279 
L 251.724237 321.920637 
L 261.786591 336.946524 
L 271.848944 347.823969 
L 281.911298 358.67035 
L 291.973652 351.525933 
L 302.036006 354.430819 
L 312.09836 337.513907 
L 322.160714 348.536189 
L 332.223067 349.889398 
L 342.285421 342.270415 
L 352.347775 346.913705 
L 362.410129 341.521391 
L 372.472483 353.477196 
L 382.534836 370.304597 
L 392.59719 355.903514 
L 402.659544 338.439524 
L 412.721898 361.275366 
L 422.784252 349.16981 
L 432.846605 337.245776 
L 442.908959 339.855378 
L 452.971313 330.366473 
L 463.033667 331.210479 
L 473.096021 331.038375 
L 483.158374 315.27782 
L 493.220728 315.954491 
L 503.283082 305.595835 
L 513.345436 385.304143 
L 523.40779 364.250089 
L 533.470144 378.770092 
L 543.532497 346.716539 
L 553.594851 352.332367 
L 563.657205 345.847664 
L 573.719559 329.166611 
L 583.781913 306.590542 
L 593.844266 307.128215 
L 603.90662 324.518723 
L 613.968974 358.717046 
L 624.031328 383.81845 
L 634.093682 390.739978 
L 644.156035 413.965418 
L 654.218389 400.959082 
L 664.280743 402.893286 
L 674.343097 417.593347 
L 684.405451 443.265467 
L 694.467804 480.688958 
L 704.530158 450.376219 
L 714.592512 408.043492 
L 724.654866 419.351777 
L 734.71722 437.171422 
L 744.779574 432.101938 
L 754.841927 447.750272 
L 764.904281 477.442307 
L 774.966635 499.182808 
L 785.028989 495.97662 
L 795.091343 452.30081 
L 805.153696 490.374461 
L 815.21605 491.54019 
L 825.278404 516.473978 
" style="fill:none;stroke:#000000;stroke-linecap:square;"/>
    <g clip-path="url(#pce2611838b)">
     <use style="stroke:#000000;" x="110.851284" xlink:href="#m089320187b" y="349.860625"/>
     <use style="stroke:#000000;" x="120.913637" xlink:href="#m089320187b" y="342.817437"/>
     <use style="stroke:#000000;" x="130.975991" xlink:href="#m089320187b" y="343.666942"/>
     <use style="stroke:#000000;" x="141.038345" xlink:href="#m089320187b" y="335.676366"/>
     <use style="stroke:#000000;" x="151.100699" xlink:href="#m089320187b" y="346.850221"/>
     <use style="stroke:#000000;" x="161.163053" xlink:href="#m089320187b" y="359.670158"/>
     <use style="stroke:#000000;" x="171.225406" xlink:href="#m089320187b" y="338.649895"/>
     <use style="stroke:#000000;" x="181.28776" xlink:href="#m089320187b" y="381.537145"/>
     <use style="stroke:#000000;" x="191.350114" xlink:href="#m089320187b" y="347.832528"/>
     <use style="stroke:#000000;" x="201.412468" xlink:href="#m089320187b" y="369.813061"/>
     <use style="stroke:#000000;" x="211.474822" xlink:href="#m089320187b" y="369.966666"/>
     <use style="stroke:#000000;" x="221.537175" xlink:href="#m089320187b" y="360.072368"/>
     <use style="stroke:#000000;" x="231.599529" xlink:href="#m089320187b" y="346.937779"/>
     <use style="stroke:#000000;" x="241.661883" xlink:href="#m089320187b" y="333.439279"/>
     <use style="stroke:#000000;" x="251.724237" xlink:href="#m089320187b" y="321.920637"/>
     <use style="stroke:#000000;" x="261.786591" xlink:href="#m089320187b" y="336.946524"/>
     <use style="stroke:#000000;" x="271.848944" xlink:href="#m089320187b" y="347.823969"/>
     <use style="stroke:#000000;" x="281.911298" xlink:href="#m089320187b" y="358.67035"/>
     <use style="stroke:#000000;" x="291.973652" xlink:href="#m089320187b" y="351.525933"/>
     <use style="stroke:#000000;" x="302.036006" xlink:href="#m089320187b" y="354.430819"/>
     <use style="stroke:#000000;" x="312.09836" xlink:href="#m089320187b" y="337.513907"/>
     <use style="stroke:#000000;" x="322.160714" xlink:href="#m089320187b" y="348.536189"/>
     <use style="stroke:#000000;" x="332.223067" xlink:href="#m089320187b" y="349.889398"/>
     <use style="stroke:#000000;" x="342.285421" xlink:href="#m089320187b" y="342.270415"/>
     <use style="stroke:#000000;" x="352.347775" xlink:href="#m089320187b" y="346.913705"/>
     <use style="stroke:#000000;" x="362.410129" xlink:href="#m089320187b" y="341.521391"/>
     <use style="stroke:#000000;" x="372.472483" xlink:href="#m089320187b" y="353.477196"/>
     <use style="stroke:#000000;" x="382.534836" xlink:href="#m089320187b" y="370.304597"/>
     <use style="stroke:#000000;" x="392.59719" xlink:href="#m089320187b" y="355.903514"/>
     <use style="stroke:#000000;" x="402.659544" xlink:href="#m089320187b" y="338.439524"/>
     <use style="stroke:#000000;" x="412.721898" xlink:href="#m089320187b" y="361.275366"/>
     <use style="stroke:#000000;" x="422.784252" xlink:href="#m089320187b" y="349.16981"/>
     <use style="stroke:#000000;" x="432.846605" xlink:href="#m089320187b" y="337.245776"/>
     <use style="stroke:#000000;" x="442.908959" xlink:href="#m089320187b" y="339.855378"/>
     <use style="stroke:#000000;" x="452.971313" xlink:href="#m089320187b" y="330.366473"/>
     <use style="stroke:#000000;" x="463.033667" xlink:href="#m089320187b" y="331.210479"/>
     <use style="stroke:#000000;" x="473.096021" xlink:href="#m089320187b" y="331.038375"/>
     <use style="stroke:#000000;" x="483.158374" xlink:href="#m089320187b" y="315.27782"/>
     <use style="stroke:#000000;" x="493.220728" xlink:href="#m089320187b" y="315.954491"/>
     <use style="stroke:#000000;" x="503.283082" xlink:href="#m089320187b" y="305.595835"/>
     <use style="stroke:#000000;" x="513.345436" xlink:href="#m089320187b" y="385.304143"/>
     <use style="stroke:#000000;" x="523.40779" xlink:href="#m089320187b" y="364.250089"/>
     <use style="stroke:#000000;" x="533.470144" xlink:href="#m089320187b" y="378.770092"/>
     <use style="stroke:#000000;" x="543.532497" xlink:href="#m089320187b" y="346.716539"/>
     <use style="stroke:#000000;" x="553.594851" xlink:href="#m089320187b" y="352.332367"/>
     <use style="stroke:#000000;" x="563.657205" xlink:href="#m089320187b" y="345.847664"/>
     <use style="stroke:#000000;" x="573.719559" xlink:href="#m089320187b" y="329.166611"/>
     <use style="stroke:#000000;" x="583.781913" xlink:href="#m089320187b" y="306.590542"/>
     <use style="stroke:#000000;" x="593.844266" xlink:href="#m089320187b" y="307.128215"/>
     <use style="stroke:#000000;" x="603.90662" xlink:href="#m089320187b" y="324.518723"/>
     <use style="stroke:#000000;" x="613.968974" xlink:href="#m089320187b" y="358.717046"/>
     <use style="stroke:#000000;" x="624.031328" xlink:href="#m089320187b" y="383.81845"/>
     <use style="stroke:#000000;" x="634.093682" xlink:href="#m089320187b" y="390.739978"/>
     <use style="stroke:#000000;" x="644.156035" xlink:href="#m089320187b" y="413.965418"/>
     <use style="stroke:#000000;" x="654.218389" xlink:href="#m089320187b" y="400.959082"/>
     <use style="stroke:#000000;" x="664.280743" xlink:href="#m089320187b" y="402.893286"/>
     <use style="stroke:#000000;" x="674.343097" xlink:href="#m089320187b" y="417.593347"/>
     <use style="stroke:#000000;" x="684.405451" xlink:href="#m089320187b" y="443.265467"/>
     <use style="stroke:#000000;" x="694.467804" xlink:href="#m089320187b" y="480.688958"/>
     <use style="stroke:#000000;" x="704.530158" xlink:href="#m089320187b" y="450.376219"/>
     <use style="stroke:#000000;" x="714.592512" xlink:href="#m089320187b" y="408.043492"/>
     <use style="stroke:#000000;" x="724.654866" xlink:href="#m089320187b" y="419.351777"/>
     <use style="stroke:#000000;" x="734.71722" xlink:href="#m089320187b" y="437.171422"/>
     <use style="stroke:#000000;" x="744.779574" xlink:href="#m089320187b" y="432.101938"/>
     <use style="stroke:#000000;" x="754.841927" xlink:href="#m089320187b" y="447.750272"/>
     <use style="stroke:#000000;" x="764.904281" xlink:href="#m089320187b" y="477.442307"/>
     <use style="stroke:#000000;" x="774.966635" xlink:href="#m089320187b" y="499.182808"/>
     <use style="stroke:#000000;" x="785.028989" xlink:href="#m089320187b" y="495.97662"/>
     <use style="stroke:#000000;" x="795.091343" xlink:href="#m089320187b" y="452.30081"/>
     <use style="stroke:#000000;" x="805.153696" xlink:href="#m089320187b" y="490.374461"/>
     <use style="stroke:#000000;" x="815.21605" xlink:href="#m089320187b" y="491.54019"/>
     <use style="stroke:#000000;" x="825.278404" xlink:href="#m089320187b" y="516.473978"/>
    </g>
   </g>
   <g id="line2d_49">
    <path clip-path="url(#pce2611838b)" d="M 110.851284 345.937751 
L 120.913637 345.937751 
L 130.975991 345.937751 
L 141.038345 345.937751 
L 151.100699 345.937751 
L 161.163053 345.937751 
L 171.225406 345.937751 
L 181.28776 345.937751 
L 191.350114 345.937751 
L 201.412468 345.937751 
L 211.474822 345.937751 
L 221.537175 345.937751 
L 231.599529 345.937751 
L 241.661883 345.937751 
L 251.724237 345.937751 
L 261.786591 345.937751 
L 271.848944 345.937751 
L 281.911298 345.937751 
L 291.973652 345.937751 
L 302.036006 345.937751 
L 312.09836 345.937751 
L 322.160714 345.937751 
L 332.223067 345.937751 
L 342.285421 345.937751 
L 352.347775 345.937751 
L 362.410129 345.937751 
L 372.472483 345.937751 
L 382.534836 345.937751 
L 392.59719 345.937751 
L 402.659544 345.937751 
L 412.721898 345.937751 
L 422.784252 345.937751 
L 432.846605 345.937751 
L 442.908959 345.937751 
L 452.971313 345.937751 
L 463.033667 345.937751 
L 473.096021 345.937751 
L 483.158374 345.937751 
L 493.220728 345.937751 
L 503.283082 345.937751 
L 513.345436 345.937751 
L 523.40779 345.937751 
L 533.470144 345.937751 
L 543.532497 345.937751 
L 553.594851 345.937751 
L 563.657205 345.937751 
L 573.719559 345.937751 
L 583.781913 345.937751 
L 593.844266 352.750093 
L 603.90662 359.562435 
L 613.968974 366.374777 
L 624.031328 373.187119 
L 634.093682 379.999461 
L 644.156035 386.811802 
L 654.218389 393.624144 
L 664.280743 400.436486 
L 674.343097 407.248828 
L 684.405451 414.06117 
L 694.467804 420.873511 
L 704.530158 427.685853 
L 714.592512 434.498195 
L 724.654866 441.310537 
L 734.71722 448.122879 
L 744.779574 454.93522 
L 754.841927 461.747562 
L 764.904281 468.559904 
L 774.966635 475.372246 
L 785.028989 482.184588 
L 795.091343 488.996929 
L 805.153696 495.809271 
L 815.21605 502.621613 
L 825.278404 509.433955 
" style="fill:none;stroke:#808080;stroke-dasharray:3.7,1.6;stroke-dashoffset:0;"/>
   </g>
   <g id="line2d_50">
    <path clip-path="url(#pce2611838b)" d="M 583.781913 527.017885 
L 583.781913 295.051927 
" style="fill:none;stroke:#ff0000;stroke-dasharray:3.7,1.6;stroke-dashoffset:0;"/>
   </g>
   <g id="patch_8">
    <path d="M 75.129928 527.017885 
L 75.129928 295.051928 
" style="fill:none;stroke:#000000;stroke-linecap:square;stroke-linejoin:miter;stroke-width:0.8;"/>
   </g>
   <g id="patch_9">
    <path d="M 860.99976 527.017885 
L 860.99976 295.051928 
" style="fill:none;stroke:#000000;stroke-linecap:square;stroke-linejoin:miter;stroke-width:0.8;"/>
   </g>
   <g id="patch_10">
    <path d="M 75.129928 527.017885 
L 860.99976 527.017885 
" style="fill:none;stroke:#000000;stroke-linecap:square;stroke-linejoin:miter;stroke-width:0.8;"/>
   </g>
   <g id="text_23">
    <!-- B) EMI (2-Decade Embeddings) -->
    <g transform="translate(299.714781 289.051927)scale(0.216 -0.216)">
     <defs>
      <path d="M 19.671875 34.8125 
L 19.671875 8.109375 
L 35.5 8.109375 
Q 43.453125 8.109375 47.28125 11.40625 
Q 51.125 14.703125 51.125 21.484375 
Q 51.125 28.328125 47.28125 31.5625 
Q 43.453125 34.8125 35.5 34.8125 
z
M 19.671875 64.796875 
L 19.671875 42.828125 
L 34.28125 42.828125 
Q 41.5 42.828125 45.03125 45.53125 
Q 48.578125 48.25 48.578125 53.8125 
Q 48.578125 59.328125 45.03125 62.0625 
Q 41.5 64.796875 34.28125 64.796875 
z
M 9.8125 72.90625 
L 35.015625 72.90625 
Q 46.296875 72.90625 52.390625 68.21875 
Q 58.5 63.53125 58.5 54.890625 
Q 58.5 48.1875 55.375 44.234375 
Q 52.25 40.28125 46.1875 39.3125 
Q 53.46875 37.75 57.5 32.78125 
Q 61.53125 27.828125 61.53125 20.40625 
Q 61.53125 10.640625 54.890625 5.3125 
Q 48.25 0 35.984375 0 
L 9.8125 0 
z
" id="DejaVuSans-66"/>
      <path d="M 4.890625 31.390625 
L 31.203125 31.390625 
L 31.203125 23.390625 
L 4.890625 23.390625 
z
" id="DejaVuSans-45"/>
      <path d="M 19.671875 64.796875 
L 19.671875 8.109375 
L 31.59375 8.109375 
Q 46.6875 8.109375 53.6875 14.9375 
Q 60.6875 21.78125 60.6875 36.53125 
Q 60.6875 51.171875 53.6875 57.984375 
Q 46.6875 64.796875 31.59375 64.796875 
z
M 9.8125 72.90625 
L 30.078125 72.90625 
Q 51.265625 72.90625 61.171875 64.09375 
Q 71.09375 55.28125 71.09375 36.53125 
Q 71.09375 17.671875 61.125 8.828125 
Q 51.171875 0 30.078125 0 
L 9.8125 0 
z
" id="DejaVuSans-68"/>
      <path d="M 48.78125 52.59375 
L 48.78125 44.1875 
Q 44.96875 46.296875 41.140625 47.34375 
Q 37.3125 48.390625 33.40625 48.390625 
Q 24.65625 48.390625 19.8125 42.84375 
Q 14.984375 37.3125 14.984375 27.296875 
Q 14.984375 17.28125 19.8125 11.734375 
Q 24.65625 6.203125 33.40625 6.203125 
Q 37.3125 6.203125 41.140625 7.25 
Q 44.96875 8.296875 48.78125 10.40625 
L 48.78125 2.09375 
Q 45.015625 0.34375 40.984375 -0.53125 
Q 36.96875 -1.421875 32.421875 -1.421875 
Q 20.0625 -1.421875 12.78125 6.34375 
Q 5.515625 14.109375 5.515625 27.296875 
Q 5.515625 40.671875 12.859375 48.328125 
Q 20.21875 56 33.015625 56 
Q 37.15625 56 41.109375 55.140625 
Q 45.0625 54.296875 48.78125 52.59375 
z
" id="DejaVuSans-99"/>
      <path d="M 34.28125 27.484375 
Q 23.390625 27.484375 19.1875 25 
Q 14.984375 22.515625 14.984375 16.5 
Q 14.984375 11.71875 18.140625 8.90625 
Q 21.296875 6.109375 26.703125 6.109375 
Q 34.1875 6.109375 38.703125 11.40625 
Q 43.21875 16.703125 43.21875 25.484375 
L 43.21875 27.484375 
z
M 52.203125 31.203125 
L 52.203125 0 
L 43.21875 0 
L 43.21875 8.296875 
Q 40.140625 3.328125 35.546875 0.953125 
Q 30.953125 -1.421875 24.3125 -1.421875 
Q 15.921875 -1.421875 10.953125 3.296875 
Q 6 8.015625 6 15.921875 
Q 6 25.140625 12.171875 29.828125 
Q 18.359375 34.515625 30.609375 34.515625 
L 43.21875 34.515625 
L 43.21875 35.40625 
Q 43.21875 41.609375 39.140625 45 
Q 35.0625 48.390625 27.6875 48.390625 
Q 23 48.390625 18.546875 47.265625 
Q 14.109375 46.140625 10.015625 43.890625 
L 10.015625 52.203125 
Q 14.9375 54.109375 19.578125 55.046875 
Q 24.21875 56 28.609375 56 
Q 40.484375 56 46.34375 49.84375 
Q 52.203125 43.703125 52.203125 31.203125 
z
" id="DejaVuSans-97"/>
     </defs>
     <use xlink:href="#DejaVuSans-66"/>
     <use x="68.603516" xlink:href="#DejaVuSans-41"/>
     <use x="107.617188" xlink:href="#DejaVuSans-32"/>
     <use x="139.404297" xlink:href="#DejaVuSans-69"/>
     <use x="202.587891" xlink:href="#DejaVuSans-77"/>
     <use x="288.867188" xlink:href="#DejaVuSans-73"/>
     <use x="318.359375" xlink:href="#DejaVuSans-32"/>
     <use x="350.146484" xlink:href="#DejaVuSans-40"/>
     <use x="389.160156" xlink:href="#DejaVuSans-50"/>
     <use x="452.783203" xlink:href="#DejaVuSans-45"/>
     <use x="488.867188" xlink:href="#DejaVuSans-68"/>
     <use x="565.869141" xlink:href="#DejaVuSans-101"/>
     <use x="627.392578" xlink:href="#DejaVuSans-99"/>
     <use x="682.373047" xlink:href="#DejaVuSans-97"/>
     <use x="743.652344" xlink:href="#DejaVuSans-100"/>
     <use x="807.128906" xlink:href="#DejaVuSans-101"/>
     <use x="868.652344" xlink:href="#DejaVuSans-32"/>
     <use x="900.439453" xlink:href="#DejaVuSans-69"/>
     <use x="963.623047" xlink:href="#DejaVuSans-109"/>
     <use x="1061.035156" xlink:href="#DejaVuSans-98"/>
     <use x="1124.511719" xlink:href="#DejaVuSans-101"/>
     <use x="1186.035156" xlink:href="#DejaVuSans-100"/>
     <use x="1249.511719" xlink:href="#DejaVuSans-100"/>
     <use x="1312.988281" xlink:href="#DejaVuSans-105"/>
     <use x="1340.771484" xlink:href="#DejaVuSans-110"/>
     <use x="1404.150391" xlink:href="#DejaVuSans-103"/>
     <use x="1467.626953" xlink:href="#DejaVuSans-115"/>
     <use x="1519.726562" xlink:href="#DejaVuSans-41"/>
    </g>
   </g>
   <g id="legend_2">
    <g id="patch_11">
     <path d="M 712.19601 362.293177 
L 848.39976 362.293177 
Q 851.99976 362.293177 851.99976 358.693177 
L 851.99976 307.651927 
Q 851.99976 304.051927 848.39976 304.051927 
L 712.19601 304.051927 
Q 708.59601 304.051927 708.59601 307.651927 
L 708.59601 358.693177 
Q 708.59601 362.293177 712.19601 362.293177 
z
" style="fill:#ffffff;opacity:0.8;stroke:#cccccc;stroke-linejoin:miter;"/>
    </g>
    <g id="line2d_51">
     <path d="M 715.79601 318.629115 
L 751.79601 318.629115 
" style="fill:none;stroke:#000000;stroke-linecap:square;"/>
    </g>
    <g id="line2d_52">
     <g>
      <use style="stroke:#000000;" x="733.79601" xlink:href="#m089320187b" y="318.629115"/>
     </g>
    </g>
    <g id="text_24">
     <!-- EMI -->
     <g transform="translate(766.19601 324.929115)scale(0.18 -0.18)">
      <use xlink:href="#DejaVuSans-69"/>
      <use x="63.183594" xlink:href="#DejaVuSans-77"/>
      <use x="149.462891" xlink:href="#DejaVuSans-73"/>
     </g>
    </g>
    <g id="line2d_53">
     <path d="M 715.79601 345.04974 
L 751.79601 345.04974 
" style="fill:none;stroke:#808080;stroke-dasharray:3.7,1.6;stroke-dashoffset:0;"/>
    </g>
    <g id="line2d_54"/>
    <g id="text_25">
     <!-- MARS Fit -->
     <g transform="translate(766.19601 351.34974)scale(0.18 -0.18)">
      <use xlink:href="#DejaVuSans-77"/>
      <use x="86.279297" xlink:href="#DejaVuSans-65"/>
      <use x="154.6875" xlink:href="#DejaVuSans-82"/>
      <use x="224.169922" xlink:href="#DejaVuSans-83"/>
      <use x="287.646484" xlink:href="#DejaVuSans-32"/>
      <use x="319.433594" xlink:href="#DejaVuSans-70"/>
      <use x="369.703125" xlink:href="#DejaVuSans-105"/>
      <use x="397.486328" xlink:href="#DejaVuSans-116"/>
     </g>
    </g>
   </g>
  </g>
 </g>
 <defs>
  <clipPath id="p9d4f7ff492">
   <rect height="231.965958" width="785.869832" x="75.129928" y="25.412865"/>
  </clipPath>
  <clipPath id="pce2611838b">
   <rect height="231.965958" width="785.869832" x="75.129928" y="295.051927"/>
  </clipPath>
 </defs>
</svg>
