<?xml version="1.0" encoding="utf-8" standalone="no"?>
<!DOCTYPE svg PUBLIC "-//W3C//DTD SVG 1.1//EN"
  "http://www.w3.org/Graphics/SVG/1.1/DTD/svg11.dtd">
<!-- Created with matplotlib (https://matplotlib.org/) -->
<svg height="288pt" version="1.1" viewBox="0 0 864 288" width="864pt" xmlns="http://www.w3.org/2000/svg" xmlns:xlink="http://www.w3.org/1999/xlink">
 <metadata>
  <rdf:RDF xmlns:cc="http://creativecommons.org/ns#" xmlns:dc="http://purl.org/dc/elements/1.1/" xmlns:rdf="http://www.w3.org/1999/02/22-rdf-syntax-ns#">
   <cc:Work>
    <dc:type rdf:resource="http://purl.org/dc/dcmitype/StillImage"/>
    <dc:date>2024-12-05T21:01:47.743955</dc:date>
    <dc:format>image/svg+xml</dc:format>
    <dc:creator>
     <cc:Agent>
      <dc:title>Matplotlib v3.3.4, https://matplotlib.org/</dc:title>
     </cc:Agent>
    </dc:creator>
   </cc:Work>
  </rdf:RDF>
 </metadata>
 <defs>
  <style type="text/css">*{stroke-linecap:butt;stroke-linejoin:round;}</style>
 </defs>
 <g id="figure_1">
  <g id="patch_1">
   <path d="M 0 288 
L 864 288 
L 864 0 
L 0 0 
z
" style="fill:#ffffff;"/>
  </g>
  <g id="axes_1">
   <g id="patch_2">
    <path d="M 56.09 246.04 
L 853.2 246.04 
L 853.2 10.8 
L 56.09 10.8 
z
" style="fill:#ffffff;"/>
   </g>
   <g id="matplotlib.axis_1">
    <g id="xtick_1">
     <g id="line2d_1">
      <path clip-path="url(#p9ba25e360b)" d="M 97.42541 246.04 
L 97.42541 10.8 
" style="fill:none;stroke:#b0b0b0;stroke-linecap:square;stroke-width:0.8;"/>
     </g>
     <g id="line2d_2">
      <defs>
       <path d="M 0 0 
L 0 3.5 
" id="m652059106b" style="stroke:#000000;stroke-width:0.8;"/>
      </defs>
      <g>
       <use style="stroke:#000000;stroke-width:0.8;" x="97.42541" xlink:href="#m652059106b" y="246.04"/>
      </g>
     </g>
     <g id="text_1">
      <!-- 1880 -->
      <g transform="translate(84.70041 260.638438)scale(0.1 -0.1)">
       <defs>
        <path d="M 12.40625 8.296875 
L 28.515625 8.296875 
L 28.515625 63.921875 
L 10.984375 60.40625 
L 10.984375 69.390625 
L 28.421875 72.90625 
L 38.28125 72.90625 
L 38.28125 8.296875 
L 54.390625 8.296875 
L 54.390625 0 
L 12.40625 0 
z
" id="DejaVuSans-49"/>
        <path d="M 31.78125 34.625 
Q 24.75 34.625 20.71875 30.859375 
Q 16.703125 27.09375 16.703125 20.515625 
Q 16.703125 13.921875 20.71875 10.15625 
Q 24.75 6.390625 31.78125 6.390625 
Q 38.8125 6.390625 42.859375 10.171875 
Q 46.921875 13.96875 46.921875 20.515625 
Q 46.921875 27.09375 42.890625 30.859375 
Q 38.875 34.625 31.78125 34.625 
z
M 21.921875 38.8125 
Q 15.578125 40.375 12.03125 44.71875 
Q 8.5 49.078125 8.5 55.328125 
Q 8.5 64.0625 14.71875 69.140625 
Q 20.953125 74.21875 31.78125 74.21875 
Q 42.671875 74.21875 48.875 69.140625 
Q 55.078125 64.0625 55.078125 55.328125 
Q 55.078125 49.078125 51.53125 44.71875 
Q 48 40.375 41.703125 38.8125 
Q 48.828125 37.15625 52.796875 32.3125 
Q 56.78125 27.484375 56.78125 20.515625 
Q 56.78125 9.90625 50.3125 4.234375 
Q 43.84375 -1.421875 31.78125 -1.421875 
Q 19.734375 -1.421875 13.25 4.234375 
Q 6.78125 9.90625 6.78125 20.515625 
Q 6.78125 27.484375 10.78125 32.3125 
Q 14.796875 37.15625 21.921875 38.8125 
z
M 18.3125 54.390625 
Q 18.3125 48.734375 21.84375 45.5625 
Q 25.390625 42.390625 31.78125 42.390625 
Q 38.140625 42.390625 41.71875 45.5625 
Q 45.3125 48.734375 45.3125 54.390625 
Q 45.3125 60.0625 41.71875 63.234375 
Q 38.140625 66.40625 31.78125 66.40625 
Q 25.390625 66.40625 21.84375 63.234375 
Q 18.3125 60.0625 18.3125 54.390625 
z
" id="DejaVuSans-56"/>
        <path d="M 31.78125 66.40625 
Q 24.171875 66.40625 20.328125 58.90625 
Q 16.5 51.421875 16.5 36.375 
Q 16.5 21.390625 20.328125 13.890625 
Q 24.171875 6.390625 31.78125 6.390625 
Q 39.453125 6.390625 43.28125 13.890625 
Q 47.125 21.390625 47.125 36.375 
Q 47.125 51.421875 43.28125 58.90625 
Q 39.453125 66.40625 31.78125 66.40625 
z
M 31.78125 74.21875 
Q 44.046875 74.21875 50.515625 64.515625 
Q 56.984375 54.828125 56.984375 36.375 
Q 56.984375 17.96875 50.515625 8.265625 
Q 44.046875 -1.421875 31.78125 -1.421875 
Q 19.53125 -1.421875 13.0625 8.265625 
Q 6.59375 17.96875 6.59375 36.375 
Q 6.59375 54.828125 13.0625 64.515625 
Q 19.53125 74.21875 31.78125 74.21875 
z
" id="DejaVuSans-48"/>
       </defs>
       <use xlink:href="#DejaVuSans-49"/>
       <use x="63.623047" xlink:href="#DejaVuSans-56"/>
       <use x="127.246094" xlink:href="#DejaVuSans-56"/>
       <use x="190.869141" xlink:href="#DejaVuSans-48"/>
      </g>
     </g>
    </g>
    <g id="xtick_2">
     <g id="line2d_3">
      <path clip-path="url(#p9ba25e360b)" d="M 199.48815 246.04 
L 199.48815 10.8 
" style="fill:none;stroke:#b0b0b0;stroke-linecap:square;stroke-width:0.8;"/>
     </g>
     <g id="line2d_4">
      <g>
       <use style="stroke:#000000;stroke-width:0.8;" x="199.48815" xlink:href="#m652059106b" y="246.04"/>
      </g>
     </g>
     <g id="text_2">
      <!-- 1900 -->
      <g transform="translate(186.76315 260.638438)scale(0.1 -0.1)">
       <defs>
        <path d="M 10.984375 1.515625 
L 10.984375 10.5 
Q 14.703125 8.734375 18.5 7.8125 
Q 22.3125 6.890625 25.984375 6.890625 
Q 35.75 6.890625 40.890625 13.453125 
Q 46.046875 20.015625 46.78125 33.40625 
Q 43.953125 29.203125 39.59375 26.953125 
Q 35.25 24.703125 29.984375 24.703125 
Q 19.046875 24.703125 12.671875 31.3125 
Q 6.296875 37.9375 6.296875 49.421875 
Q 6.296875 60.640625 12.9375 67.421875 
Q 19.578125 74.21875 30.609375 74.21875 
Q 43.265625 74.21875 49.921875 64.515625 
Q 56.59375 54.828125 56.59375 36.375 
Q 56.59375 19.140625 48.40625 8.859375 
Q 40.234375 -1.421875 26.421875 -1.421875 
Q 22.703125 -1.421875 18.890625 -0.6875 
Q 15.09375 0.046875 10.984375 1.515625 
z
M 30.609375 32.421875 
Q 37.25 32.421875 41.125 36.953125 
Q 45.015625 41.5 45.015625 49.421875 
Q 45.015625 57.28125 41.125 61.84375 
Q 37.25 66.40625 30.609375 66.40625 
Q 23.96875 66.40625 20.09375 61.84375 
Q 16.21875 57.28125 16.21875 49.421875 
Q 16.21875 41.5 20.09375 36.953125 
Q 23.96875 32.421875 30.609375 32.421875 
z
" id="DejaVuSans-57"/>
       </defs>
       <use xlink:href="#DejaVuSans-49"/>
       <use x="63.623047" xlink:href="#DejaVuSans-57"/>
       <use x="127.246094" xlink:href="#DejaVuSans-48"/>
       <use x="190.869141" xlink:href="#DejaVuSans-48"/>
      </g>
     </g>
    </g>
    <g id="xtick_3">
     <g id="line2d_5">
      <path clip-path="url(#p9ba25e360b)" d="M 301.55089 246.04 
L 301.55089 10.8 
" style="fill:none;stroke:#b0b0b0;stroke-linecap:square;stroke-width:0.8;"/>
     </g>
     <g id="line2d_6">
      <g>
       <use style="stroke:#000000;stroke-width:0.8;" x="301.55089" xlink:href="#m652059106b" y="246.04"/>
      </g>
     </g>
     <g id="text_3">
      <!-- 1920 -->
      <g transform="translate(288.82589 260.638438)scale(0.1 -0.1)">
       <defs>
        <path d="M 19.1875 8.296875 
L 53.609375 8.296875 
L 53.609375 0 
L 7.328125 0 
L 7.328125 8.296875 
Q 12.9375 14.109375 22.625 23.890625 
Q 32.328125 33.6875 34.8125 36.53125 
Q 39.546875 41.84375 41.421875 45.53125 
Q 43.3125 49.21875 43.3125 52.78125 
Q 43.3125 58.59375 39.234375 62.25 
Q 35.15625 65.921875 28.609375 65.921875 
Q 23.96875 65.921875 18.8125 64.3125 
Q 13.671875 62.703125 7.8125 59.421875 
L 7.8125 69.390625 
Q 13.765625 71.78125 18.9375 73 
Q 24.125 74.21875 28.421875 74.21875 
Q 39.75 74.21875 46.484375 68.546875 
Q 53.21875 62.890625 53.21875 53.421875 
Q 53.21875 48.921875 51.53125 44.890625 
Q 49.859375 40.875 45.40625 35.40625 
Q 44.1875 33.984375 37.640625 27.21875 
Q 31.109375 20.453125 19.1875 8.296875 
z
" id="DejaVuSans-50"/>
       </defs>
       <use xlink:href="#DejaVuSans-49"/>
       <use x="63.623047" xlink:href="#DejaVuSans-57"/>
       <use x="127.246094" xlink:href="#DejaVuSans-50"/>
       <use x="190.869141" xlink:href="#DejaVuSans-48"/>
      </g>
     </g>
    </g>
    <g id="xtick_4">
     <g id="line2d_7">
      <path clip-path="url(#p9ba25e360b)" d="M 403.61363 246.04 
L 403.61363 10.8 
" style="fill:none;stroke:#b0b0b0;stroke-linecap:square;stroke-width:0.8;"/>
     </g>
     <g id="line2d_8">
      <g>
       <use style="stroke:#000000;stroke-width:0.8;" x="403.61363" xlink:href="#m652059106b" y="246.04"/>
      </g>
     </g>
     <g id="text_4">
      <!-- 1940 -->
      <g transform="translate(390.88863 260.638438)scale(0.1 -0.1)">
       <defs>
        <path d="M 37.796875 64.3125 
L 12.890625 25.390625 
L 37.796875 25.390625 
z
M 35.203125 72.90625 
L 47.609375 72.90625 
L 47.609375 25.390625 
L 58.015625 25.390625 
L 58.015625 17.1875 
L 47.609375 17.1875 
L 47.609375 0 
L 37.796875 0 
L 37.796875 17.1875 
L 4.890625 17.1875 
L 4.890625 26.703125 
z
" id="DejaVuSans-52"/>
       </defs>
       <use xlink:href="#DejaVuSans-49"/>
       <use x="63.623047" xlink:href="#DejaVuSans-57"/>
       <use x="127.246094" xlink:href="#DejaVuSans-52"/>
       <use x="190.869141" xlink:href="#DejaVuSans-48"/>
      </g>
     </g>
    </g>
    <g id="xtick_5">
     <g id="line2d_9">
      <path clip-path="url(#p9ba25e360b)" d="M 505.67637 246.04 
L 505.67637 10.8 
" style="fill:none;stroke:#b0b0b0;stroke-linecap:square;stroke-width:0.8;"/>
     </g>
     <g id="line2d_10">
      <g>
       <use style="stroke:#000000;stroke-width:0.8;" x="505.67637" xlink:href="#m652059106b" y="246.04"/>
      </g>
     </g>
     <g id="text_5">
      <!-- 1960 -->
      <g transform="translate(492.95137 260.638438)scale(0.1 -0.1)">
       <defs>
        <path d="M 33.015625 40.375 
Q 26.375 40.375 22.484375 35.828125 
Q 18.609375 31.296875 18.609375 23.390625 
Q 18.609375 15.53125 22.484375 10.953125 
Q 26.375 6.390625 33.015625 6.390625 
Q 39.65625 6.390625 43.53125 10.953125 
Q 47.40625 15.53125 47.40625 23.390625 
Q 47.40625 31.296875 43.53125 35.828125 
Q 39.65625 40.375 33.015625 40.375 
z
M 52.59375 71.296875 
L 52.59375 62.3125 
Q 48.875 64.0625 45.09375 64.984375 
Q 41.3125 65.921875 37.59375 65.921875 
Q 27.828125 65.921875 22.671875 59.328125 
Q 17.53125 52.734375 16.796875 39.40625 
Q 19.671875 43.65625 24.015625 45.921875 
Q 28.375 48.1875 33.59375 48.1875 
Q 44.578125 48.1875 50.953125 41.515625 
Q 57.328125 34.859375 57.328125 23.390625 
Q 57.328125 12.15625 50.6875 5.359375 
Q 44.046875 -1.421875 33.015625 -1.421875 
Q 20.359375 -1.421875 13.671875 8.265625 
Q 6.984375 17.96875 6.984375 36.375 
Q 6.984375 53.65625 15.1875 63.9375 
Q 23.390625 74.21875 37.203125 74.21875 
Q 40.921875 74.21875 44.703125 73.484375 
Q 48.484375 72.75 52.59375 71.296875 
z
" id="DejaVuSans-54"/>
       </defs>
       <use xlink:href="#DejaVuSans-49"/>
       <use x="63.623047" xlink:href="#DejaVuSans-57"/>
       <use x="127.246094" xlink:href="#DejaVuSans-54"/>
       <use x="190.869141" xlink:href="#DejaVuSans-48"/>
      </g>
     </g>
    </g>
    <g id="xtick_6">
     <g id="line2d_11">
      <path clip-path="url(#p9ba25e360b)" d="M 607.73911 246.04 
L 607.73911 10.8 
" style="fill:none;stroke:#b0b0b0;stroke-linecap:square;stroke-width:0.8;"/>
     </g>
     <g id="line2d_12">
      <g>
       <use style="stroke:#000000;stroke-width:0.8;" x="607.73911" xlink:href="#m652059106b" y="246.04"/>
      </g>
     </g>
     <g id="text_6">
      <!-- 1980 -->
      <g transform="translate(595.01411 260.638438)scale(0.1 -0.1)">
       <use xlink:href="#DejaVuSans-49"/>
       <use x="63.623047" xlink:href="#DejaVuSans-57"/>
       <use x="127.246094" xlink:href="#DejaVuSans-56"/>
       <use x="190.869141" xlink:href="#DejaVuSans-48"/>
      </g>
     </g>
    </g>
    <g id="xtick_7">
     <g id="line2d_13">
      <path clip-path="url(#p9ba25e360b)" d="M 709.80185 246.04 
L 709.80185 10.8 
" style="fill:none;stroke:#b0b0b0;stroke-linecap:square;stroke-width:0.8;"/>
     </g>
     <g id="line2d_14">
      <g>
       <use style="stroke:#000000;stroke-width:0.8;" x="709.80185" xlink:href="#m652059106b" y="246.04"/>
      </g>
     </g>
     <g id="text_7">
      <!-- 2000 -->
      <g transform="translate(697.07685 260.638438)scale(0.1 -0.1)">
       <use xlink:href="#DejaVuSans-50"/>
       <use x="63.623047" xlink:href="#DejaVuSans-48"/>
       <use x="127.246094" xlink:href="#DejaVuSans-48"/>
       <use x="190.869141" xlink:href="#DejaVuSans-48"/>
      </g>
     </g>
    </g>
    <g id="xtick_8">
     <g id="line2d_15">
      <path clip-path="url(#p9ba25e360b)" d="M 811.86459 246.04 
L 811.86459 10.8 
" style="fill:none;stroke:#b0b0b0;stroke-linecap:square;stroke-width:0.8;"/>
     </g>
     <g id="line2d_16">
      <g>
       <use style="stroke:#000000;stroke-width:0.8;" x="811.86459" xlink:href="#m652059106b" y="246.04"/>
      </g>
     </g>
     <g id="text_8">
      <!-- 2020 -->
      <g transform="translate(799.13959 260.638438)scale(0.1 -0.1)">
       <use xlink:href="#DejaVuSans-50"/>
       <use x="63.623047" xlink:href="#DejaVuSans-48"/>
       <use x="127.246094" xlink:href="#DejaVuSans-50"/>
       <use x="190.869141" xlink:href="#DejaVuSans-48"/>
      </g>
     </g>
    </g>
    <g id="text_9">
     <!-- Starting year -->
     <g transform="translate(417.341094 274.316562)scale(0.1 -0.1)">
      <defs>
       <path d="M 59.90625 70.609375 
L 59.90625 55.171875 
Q 53.90625 57.859375 48.1875 59.21875 
Q 42.484375 60.59375 37.40625 60.59375 
Q 30.671875 60.59375 27.4375 58.734375 
Q 24.21875 56.890625 24.21875 52.984375 
Q 24.21875 50.046875 26.390625 48.40625 
Q 28.5625 46.78125 34.28125 45.609375 
L 42.28125 44 
Q 54.4375 41.546875 59.5625 36.5625 
Q 64.703125 31.59375 64.703125 22.40625 
Q 64.703125 10.359375 57.546875 4.46875 
Q 50.390625 -1.421875 35.6875 -1.421875 
Q 28.765625 -1.421875 21.78125 -0.09375 
Q 14.796875 1.21875 7.8125 3.8125 
L 7.8125 19.671875 
Q 14.796875 15.96875 21.3125 14.078125 
Q 27.828125 12.203125 33.890625 12.203125 
Q 40.046875 12.203125 43.3125 14.25 
Q 46.578125 16.3125 46.578125 20.125 
Q 46.578125 23.53125 44.359375 25.390625 
Q 42.140625 27.25 35.5 28.71875 
L 28.21875 30.328125 
Q 17.28125 32.671875 12.21875 37.796875 
Q 7.171875 42.921875 7.171875 51.609375 
Q 7.171875 62.5 14.203125 68.359375 
Q 21.234375 74.21875 34.421875 74.21875 
Q 40.4375 74.21875 46.78125 73.3125 
Q 53.125 72.40625 59.90625 70.609375 
z
" id="DejaVuSans-Bold-83"/>
       <path d="M 27.484375 70.21875 
L 27.484375 54.6875 
L 45.515625 54.6875 
L 45.515625 42.1875 
L 27.484375 42.1875 
L 27.484375 19 
Q 27.484375 15.1875 29 13.84375 
Q 30.515625 12.5 35.015625 12.5 
L 44 12.5 
L 44 0 
L 29 0 
Q 18.65625 0 14.328125 4.3125 
Q 10.015625 8.640625 10.015625 19 
L 10.015625 42.1875 
L 1.3125 42.1875 
L 1.3125 54.6875 
L 10.015625 54.6875 
L 10.015625 70.21875 
z
" id="DejaVuSans-Bold-116"/>
       <path d="M 32.90625 24.609375 
Q 27.4375 24.609375 24.671875 22.75 
Q 21.921875 20.90625 21.921875 17.28125 
Q 21.921875 13.96875 24.140625 12.078125 
Q 26.375 10.203125 30.328125 10.203125 
Q 35.25 10.203125 38.625 13.734375 
Q 42 17.28125 42 22.609375 
L 42 24.609375 
z
M 59.625 31.203125 
L 59.625 0 
L 42 0 
L 42 8.109375 
Q 38.484375 3.125 34.078125 0.84375 
Q 29.6875 -1.421875 23.390625 -1.421875 
Q 14.890625 -1.421875 9.59375 3.53125 
Q 4.296875 8.5 4.296875 16.40625 
Q 4.296875 26.03125 10.90625 30.515625 
Q 17.53125 35.015625 31.6875 35.015625 
L 42 35.015625 
L 42 36.375 
Q 42 40.53125 38.71875 42.453125 
Q 35.453125 44.390625 28.515625 44.390625 
Q 22.90625 44.390625 18.0625 43.265625 
Q 13.234375 42.140625 9.078125 39.890625 
L 9.078125 53.21875 
Q 14.703125 54.59375 20.359375 55.296875 
Q 26.03125 56 31.6875 56 
Q 46.484375 56 53.046875 50.171875 
Q 59.625 44.34375 59.625 31.203125 
z
" id="DejaVuSans-Bold-97"/>
       <path d="M 49.03125 39.796875 
Q 46.734375 40.875 44.453125 41.375 
Q 42.1875 41.890625 39.890625 41.890625 
Q 33.15625 41.890625 29.515625 37.5625 
Q 25.875 33.25 25.875 25.203125 
L 25.875 0 
L 8.40625 0 
L 8.40625 54.6875 
L 25.875 54.6875 
L 25.875 45.703125 
Q 29.25 51.078125 33.609375 53.53125 
Q 37.984375 56 44.09375 56 
Q 44.96875 56 45.984375 55.921875 
Q 47.015625 55.859375 48.96875 55.609375 
z
" id="DejaVuSans-Bold-114"/>
       <path d="M 8.40625 54.6875 
L 25.875 54.6875 
L 25.875 0 
L 8.40625 0 
z
M 8.40625 75.984375 
L 25.875 75.984375 
L 25.875 61.71875 
L 8.40625 61.71875 
z
" id="DejaVuSans-Bold-105"/>
       <path d="M 63.375 33.296875 
L 63.375 0 
L 45.796875 0 
L 45.796875 5.421875 
L 45.796875 25.484375 
Q 45.796875 32.5625 45.484375 35.25 
Q 45.171875 37.9375 44.390625 39.203125 
Q 43.359375 40.921875 41.59375 41.875 
Q 39.84375 42.828125 37.59375 42.828125 
Q 32.125 42.828125 29 38.59375 
Q 25.875 34.375 25.875 26.90625 
L 25.875 0 
L 8.40625 0 
L 8.40625 54.6875 
L 25.875 54.6875 
L 25.875 46.6875 
Q 29.828125 51.46875 34.265625 53.734375 
Q 38.71875 56 44.09375 56 
Q 53.5625 56 58.46875 50.1875 
Q 63.375 44.390625 63.375 33.296875 
z
" id="DejaVuSans-Bold-110"/>
       <path d="M 45.609375 9.28125 
Q 42 4.5 37.640625 2.25 
Q 33.296875 0 27.59375 0 
Q 17.578125 0 11.03125 7.875 
Q 4.5 15.765625 4.5 27.984375 
Q 4.5 40.234375 11.03125 48.0625 
Q 17.578125 55.90625 27.59375 55.90625 
Q 33.296875 55.90625 37.640625 53.65625 
Q 42 51.421875 45.609375 46.578125 
L 45.609375 54.6875 
L 63.1875 54.6875 
L 63.1875 5.515625 
Q 63.1875 -7.671875 54.859375 -14.625 
Q 46.53125 -21.578125 30.71875 -21.578125 
Q 25.59375 -21.578125 20.796875 -20.796875 
Q 16.015625 -20.015625 11.1875 -18.40625 
L 11.1875 -4.78125 
Q 15.765625 -7.421875 20.15625 -8.71875 
Q 24.5625 -10.015625 29 -10.015625 
Q 37.59375 -10.015625 41.59375 -6.25 
Q 45.609375 -2.484375 45.609375 5.515625 
z
M 34.078125 43.3125 
Q 28.65625 43.3125 25.625 39.296875 
Q 22.609375 35.296875 22.609375 27.984375 
Q 22.609375 20.453125 25.53125 16.578125 
Q 28.46875 12.703125 34.078125 12.703125 
Q 39.546875 12.703125 42.578125 16.703125 
Q 45.609375 20.703125 45.609375 27.984375 
Q 45.609375 35.296875 42.578125 39.296875 
Q 39.546875 43.3125 34.078125 43.3125 
z
" id="DejaVuSans-Bold-103"/>
       <path id="DejaVuSans-Bold-32"/>
       <path d="M 1.21875 54.6875 
L 18.703125 54.6875 
L 33.40625 17.578125 
L 45.90625 54.6875 
L 63.375 54.6875 
L 40.375 -5.171875 
Q 36.921875 -14.3125 32.296875 -17.9375 
Q 27.6875 -21.578125 20.125 -21.578125 
L 10.015625 -21.578125 
L 10.015625 -10.109375 
L 15.484375 -10.109375 
Q 19.921875 -10.109375 21.9375 -8.6875 
Q 23.96875 -7.28125 25.09375 -3.609375 
L 25.59375 -2.09375 
z
" id="DejaVuSans-Bold-121"/>
       <path d="M 62.984375 27.484375 
L 62.984375 22.515625 
L 22.125 22.515625 
Q 22.75 16.359375 26.5625 13.28125 
Q 30.375 10.203125 37.203125 10.203125 
Q 42.71875 10.203125 48.5 11.84375 
Q 54.296875 13.484375 60.40625 16.796875 
L 60.40625 3.328125 
Q 54.203125 0.984375 48 -0.21875 
Q 41.796875 -1.421875 35.59375 -1.421875 
Q 20.75 -1.421875 12.515625 6.125 
Q 4.296875 13.671875 4.296875 27.296875 
Q 4.296875 40.671875 12.375 48.328125 
Q 20.453125 56 34.625 56 
Q 47.515625 56 55.25 48.234375 
Q 62.984375 40.484375 62.984375 27.484375 
z
M 45.015625 33.296875 
Q 45.015625 38.28125 42.109375 41.328125 
Q 39.203125 44.390625 34.515625 44.390625 
Q 29.4375 44.390625 26.265625 41.53125 
Q 23.09375 38.671875 22.3125 33.296875 
z
" id="DejaVuSans-Bold-101"/>
      </defs>
      <use xlink:href="#DejaVuSans-Bold-83"/>
      <use x="72.021484" xlink:href="#DejaVuSans-Bold-116"/>
      <use x="119.824219" xlink:href="#DejaVuSans-Bold-97"/>
      <use x="187.304688" xlink:href="#DejaVuSans-Bold-114"/>
      <use x="236.621094" xlink:href="#DejaVuSans-Bold-116"/>
      <use x="284.423828" xlink:href="#DejaVuSans-Bold-105"/>
      <use x="318.701172" xlink:href="#DejaVuSans-Bold-110"/>
      <use x="389.892578" xlink:href="#DejaVuSans-Bold-103"/>
      <use x="461.474609" xlink:href="#DejaVuSans-Bold-32"/>
      <use x="496.289062" xlink:href="#DejaVuSans-Bold-121"/>
      <use x="561.474609" xlink:href="#DejaVuSans-Bold-101"/>
      <use x="629.296875" xlink:href="#DejaVuSans-Bold-97"/>
      <use x="696.777344" xlink:href="#DejaVuSans-Bold-114"/>
     </g>
    </g>
   </g>
   <g id="matplotlib.axis_2">
    <g id="ytick_1">
     <g id="line2d_17">
      <defs>
       <path d="M 0 0 
L -3.5 0 
" id="m0b7499820b" style="stroke:#000000;stroke-width:0.8;"/>
      </defs>
      <g>
       <use style="stroke:#000000;stroke-width:0.8;" x="56.09" xlink:href="#m0b7499820b" y="237.778241"/>
      </g>
     </g>
     <g id="text_10">
      <!-- −0.5 -->
      <g transform="translate(24.807187 241.57746)scale(0.1 -0.1)">
       <defs>
        <path d="M 10.59375 35.5 
L 73.1875 35.5 
L 73.1875 27.203125 
L 10.59375 27.203125 
z
" id="DejaVuSans-8722"/>
        <path d="M 10.6875 12.40625 
L 21 12.40625 
L 21 0 
L 10.6875 0 
z
" id="DejaVuSans-46"/>
        <path d="M 10.796875 72.90625 
L 49.515625 72.90625 
L 49.515625 64.59375 
L 19.828125 64.59375 
L 19.828125 46.734375 
Q 21.96875 47.46875 24.109375 47.828125 
Q 26.265625 48.1875 28.421875 48.1875 
Q 40.625 48.1875 47.75 41.5 
Q 54.890625 34.8125 54.890625 23.390625 
Q 54.890625 11.625 47.5625 5.09375 
Q 40.234375 -1.421875 26.90625 -1.421875 
Q 22.3125 -1.421875 17.546875 -0.640625 
Q 12.796875 0.140625 7.71875 1.703125 
L 7.71875 11.625 
Q 12.109375 9.234375 16.796875 8.0625 
Q 21.484375 6.890625 26.703125 6.890625 
Q 35.15625 6.890625 40.078125 11.328125 
Q 45.015625 15.765625 45.015625 23.390625 
Q 45.015625 31 40.078125 35.4375 
Q 35.15625 39.890625 26.703125 39.890625 
Q 22.75 39.890625 18.8125 39.015625 
Q 14.890625 38.140625 10.796875 36.28125 
z
" id="DejaVuSans-53"/>
       </defs>
       <use xlink:href="#DejaVuSans-8722"/>
       <use x="83.789062" xlink:href="#DejaVuSans-48"/>
       <use x="147.412109" xlink:href="#DejaVuSans-46"/>
       <use x="179.199219" xlink:href="#DejaVuSans-53"/>
      </g>
     </g>
    </g>
    <g id="ytick_2">
     <g id="line2d_18">
      <g>
       <use style="stroke:#000000;stroke-width:0.8;" x="56.09" xlink:href="#m0b7499820b" y="209.065203"/>
      </g>
     </g>
     <g id="text_11">
      <!-- −0.4 -->
      <g transform="translate(24.807187 212.864422)scale(0.1 -0.1)">
       <use xlink:href="#DejaVuSans-8722"/>
       <use x="83.789062" xlink:href="#DejaVuSans-48"/>
       <use x="147.412109" xlink:href="#DejaVuSans-46"/>
       <use x="179.199219" xlink:href="#DejaVuSans-52"/>
      </g>
     </g>
    </g>
    <g id="ytick_3">
     <g id="line2d_19">
      <g>
       <use style="stroke:#000000;stroke-width:0.8;" x="56.09" xlink:href="#m0b7499820b" y="180.352166"/>
      </g>
     </g>
     <g id="text_12">
      <!-- −0.3 -->
      <g transform="translate(24.807187 184.151384)scale(0.1 -0.1)">
       <defs>
        <path d="M 40.578125 39.3125 
Q 47.65625 37.796875 51.625 33 
Q 55.609375 28.21875 55.609375 21.1875 
Q 55.609375 10.40625 48.1875 4.484375 
Q 40.765625 -1.421875 27.09375 -1.421875 
Q 22.515625 -1.421875 17.65625 -0.515625 
Q 12.796875 0.390625 7.625 2.203125 
L 7.625 11.71875 
Q 11.71875 9.328125 16.59375 8.109375 
Q 21.484375 6.890625 26.8125 6.890625 
Q 36.078125 6.890625 40.9375 10.546875 
Q 45.796875 14.203125 45.796875 21.1875 
Q 45.796875 27.640625 41.28125 31.265625 
Q 36.765625 34.90625 28.71875 34.90625 
L 20.21875 34.90625 
L 20.21875 43.015625 
L 29.109375 43.015625 
Q 36.375 43.015625 40.234375 45.921875 
Q 44.09375 48.828125 44.09375 54.296875 
Q 44.09375 59.90625 40.109375 62.90625 
Q 36.140625 65.921875 28.71875 65.921875 
Q 24.65625 65.921875 20.015625 65.03125 
Q 15.375 64.15625 9.8125 62.3125 
L 9.8125 71.09375 
Q 15.4375 72.65625 20.34375 73.4375 
Q 25.25 74.21875 29.59375 74.21875 
Q 40.828125 74.21875 47.359375 69.109375 
Q 53.90625 64.015625 53.90625 55.328125 
Q 53.90625 49.265625 50.4375 45.09375 
Q 46.96875 40.921875 40.578125 39.3125 
z
" id="DejaVuSans-51"/>
       </defs>
       <use xlink:href="#DejaVuSans-8722"/>
       <use x="83.789062" xlink:href="#DejaVuSans-48"/>
       <use x="147.412109" xlink:href="#DejaVuSans-46"/>
       <use x="179.199219" xlink:href="#DejaVuSans-51"/>
      </g>
     </g>
    </g>
    <g id="ytick_4">
     <g id="line2d_20">
      <g>
       <use style="stroke:#000000;stroke-width:0.8;" x="56.09" xlink:href="#m0b7499820b" y="151.639128"/>
      </g>
     </g>
     <g id="text_13">
      <!-- −0.2 -->
      <g transform="translate(24.807187 155.438346)scale(0.1 -0.1)">
       <use xlink:href="#DejaVuSans-8722"/>
       <use x="83.789062" xlink:href="#DejaVuSans-48"/>
       <use x="147.412109" xlink:href="#DejaVuSans-46"/>
       <use x="179.199219" xlink:href="#DejaVuSans-50"/>
      </g>
     </g>
    </g>
    <g id="ytick_5">
     <g id="line2d_21">
      <g>
       <use style="stroke:#000000;stroke-width:0.8;" x="56.09" xlink:href="#m0b7499820b" y="122.92609"/>
      </g>
     </g>
     <g id="text_14">
      <!-- −0.1 -->
      <g transform="translate(24.807187 126.725309)scale(0.1 -0.1)">
       <use xlink:href="#DejaVuSans-8722"/>
       <use x="83.789062" xlink:href="#DejaVuSans-48"/>
       <use x="147.412109" xlink:href="#DejaVuSans-46"/>
       <use x="179.199219" xlink:href="#DejaVuSans-49"/>
      </g>
     </g>
    </g>
    <g id="ytick_6">
     <g id="line2d_22">
      <g>
       <use style="stroke:#000000;stroke-width:0.8;" x="56.09" xlink:href="#m0b7499820b" y="94.213052"/>
      </g>
     </g>
     <g id="text_15">
      <!-- 0.0 -->
      <g transform="translate(33.186875 98.012271)scale(0.1 -0.1)">
       <use xlink:href="#DejaVuSans-48"/>
       <use x="63.623047" xlink:href="#DejaVuSans-46"/>
       <use x="95.410156" xlink:href="#DejaVuSans-48"/>
      </g>
     </g>
    </g>
    <g id="ytick_7">
     <g id="line2d_23">
      <g>
       <use style="stroke:#000000;stroke-width:0.8;" x="56.09" xlink:href="#m0b7499820b" y="65.500014"/>
      </g>
     </g>
     <g id="text_16">
      <!-- 0.1 -->
      <g transform="translate(33.186875 69.299233)scale(0.1 -0.1)">
       <use xlink:href="#DejaVuSans-48"/>
       <use x="63.623047" xlink:href="#DejaVuSans-46"/>
       <use x="95.410156" xlink:href="#DejaVuSans-49"/>
      </g>
     </g>
    </g>
    <g id="ytick_8">
     <g id="line2d_24">
      <g>
       <use style="stroke:#000000;stroke-width:0.8;" x="56.09" xlink:href="#m0b7499820b" y="36.786976"/>
      </g>
     </g>
     <g id="text_17">
      <!-- 0.2 -->
      <g transform="translate(33.186875 40.586195)scale(0.1 -0.1)">
       <use xlink:href="#DejaVuSans-48"/>
       <use x="63.623047" xlink:href="#DejaVuSans-46"/>
       <use x="95.410156" xlink:href="#DejaVuSans-50"/>
      </g>
     </g>
    </g>
    <g id="text_18">
     <!-- EMI -->
     <g transform="translate(18.7275 138.671563)rotate(-90)scale(0.1 -0.1)">
      <defs>
       <path d="M 9.1875 72.90625 
L 59.90625 72.90625 
L 59.90625 58.6875 
L 27.984375 58.6875 
L 27.984375 45.125 
L 58.015625 45.125 
L 58.015625 30.90625 
L 27.984375 30.90625 
L 27.984375 14.203125 
L 60.984375 14.203125 
L 60.984375 0 
L 9.1875 0 
z
" id="DejaVuSans-Bold-69"/>
       <path d="M 9.1875 72.90625 
L 33.109375 72.90625 
L 49.703125 33.890625 
L 66.40625 72.90625 
L 90.28125 72.90625 
L 90.28125 0 
L 72.515625 0 
L 72.515625 53.328125 
L 55.71875 14.015625 
L 43.796875 14.015625 
L 27 53.328125 
L 27 0 
L 9.1875 0 
z
" id="DejaVuSans-Bold-77"/>
       <path d="M 9.1875 72.90625 
L 27.984375 72.90625 
L 27.984375 0 
L 9.1875 0 
z
" id="DejaVuSans-Bold-73"/>
      </defs>
      <use xlink:href="#DejaVuSans-Bold-69"/>
      <use x="68.310547" xlink:href="#DejaVuSans-Bold-77"/>
      <use x="167.822266" xlink:href="#DejaVuSans-Bold-73"/>
     </g>
    </g>
   </g>
   <g id="line2d_25">
    <path clip-path="url(#p9ba25e360b)" d="M 92.322273 66.382285 
L 102.528547 59.239687 
L 112.734821 60.101182 
L 122.941095 51.997824 
L 133.147369 63.329391 
L 143.353643 76.330273 
L 153.559917 55.013323 
L 163.766191 98.505898 
L 173.972465 64.325563 
L 184.178739 86.616336 
L 194.385013 86.77211 
L 204.591287 76.73816 
L 214.797561 63.418185 
L 225.003835 49.729163 
L 235.210109 38.047943 
L 245.416383 53.28591 
L 255.622657 64.316883 
L 265.828931 75.316353 
L 276.035205 68.071097 
L 286.241479 71.016984 
L 296.447753 53.861302 
L 306.654027 65.039156 
L 316.860301 66.411464 
L 327.066575 58.684945 
L 337.272849 63.393772 
L 347.479123 57.925348 
L 357.685397 70.049902 
L 367.891671 87.11481 
L 378.097945 72.510466 
L 388.304219 54.799983 
L 398.510493 77.958138 
L 408.716767 65.68172 
L 418.923041 53.589386 
L 429.129315 56.235821 
L 439.335589 46.612987 
L 449.541863 47.468905 
L 459.748137 47.294371 
L 469.954411 31.311367 
L 480.160685 31.997589 
L 490.366959 21.492727 
L 500.573233 102.326064 
L 510.779507 80.974847 
L 520.985781 95.69979 
L 531.192055 63.193823 
L 541.398329 68.888914 
L 551.604603 62.312684 
L 561.810877 45.39619 
L 572.017151 22.501474 
L 582.223425 23.046736 
L 592.429699 40.682699 
L 602.635973 75.363709 
L 612.842247 100.819402 
L 623.048521 107.838623 
L 633.254795 131.391874 
L 643.461069 118.201962 
L 653.667343 120.163466 
L 663.873617 135.071008 
L 674.079891 161.105473 
L 684.286165 199.057172 
L 694.492439 168.316589 
L 704.698713 125.386364 
L 714.904987 136.854258 
L 725.111261 154.925414 
L 735.317535 149.784378 
L 745.523809 165.653578 
L 755.730083 195.764697 
L 765.936357 217.81205 
L 776.142631 214.560608 
L 786.348905 170.268344 
L 796.555179 208.879379 
L 806.761453 210.061561 
L 816.967727 235.347273 
" style="fill:none;stroke:#000000;stroke-linecap:square;"/>
    <defs>
     <path d="M 0 3 
C 0.795609 3 1.55874 2.683901 2.12132 2.12132 
C 2.683901 1.55874 3 0.795609 3 0 
C 3 -0.795609 2.683901 -1.55874 2.12132 -2.12132 
C 1.55874 -2.683901 0.795609 -3 0 -3 
C -0.795609 -3 -1.55874 -2.683901 -2.12132 -2.12132 
C -2.683901 -1.55874 -3 -0.795609 -3 0 
C -3 0.795609 -2.683901 1.55874 -2.12132 2.12132 
C -1.55874 2.683901 -0.795609 3 0 3 
z
" id="mb7cfe766fb" style="stroke:#ffffff;stroke-width:0.75;"/>
    </defs>
    <g clip-path="url(#p9ba25e360b)">
     <use style="stroke:#ffffff;stroke-width:0.75;" x="92.322273" xlink:href="#mb7cfe766fb" y="66.382285"/>
     <use style="stroke:#ffffff;stroke-width:0.75;" x="102.528547" xlink:href="#mb7cfe766fb" y="59.239687"/>
     <use style="stroke:#ffffff;stroke-width:0.75;" x="112.734821" xlink:href="#mb7cfe766fb" y="60.101182"/>
     <use style="stroke:#ffffff;stroke-width:0.75;" x="122.941095" xlink:href="#mb7cfe766fb" y="51.997824"/>
     <use style="stroke:#ffffff;stroke-width:0.75;" x="133.147369" xlink:href="#mb7cfe766fb" y="63.329391"/>
     <use style="stroke:#ffffff;stroke-width:0.75;" x="143.353643" xlink:href="#mb7cfe766fb" y="76.330273"/>
     <use style="stroke:#ffffff;stroke-width:0.75;" x="153.559917" xlink:href="#mb7cfe766fb" y="55.013323"/>
     <use style="stroke:#ffffff;stroke-width:0.75;" x="163.766191" xlink:href="#mb7cfe766fb" y="98.505898"/>
     <use style="stroke:#ffffff;stroke-width:0.75;" x="173.972465" xlink:href="#mb7cfe766fb" y="64.325563"/>
     <use style="stroke:#ffffff;stroke-width:0.75;" x="184.178739" xlink:href="#mb7cfe766fb" y="86.616336"/>
     <use style="stroke:#ffffff;stroke-width:0.75;" x="194.385013" xlink:href="#mb7cfe766fb" y="86.77211"/>
     <use style="stroke:#ffffff;stroke-width:0.75;" x="204.591287" xlink:href="#mb7cfe766fb" y="76.73816"/>
     <use style="stroke:#ffffff;stroke-width:0.75;" x="214.797561" xlink:href="#mb7cfe766fb" y="63.418185"/>
     <use style="stroke:#ffffff;stroke-width:0.75;" x="225.003835" xlink:href="#mb7cfe766fb" y="49.729163"/>
     <use style="stroke:#ffffff;stroke-width:0.75;" x="235.210109" xlink:href="#mb7cfe766fb" y="38.047943"/>
     <use style="stroke:#ffffff;stroke-width:0.75;" x="245.416383" xlink:href="#mb7cfe766fb" y="53.28591"/>
     <use style="stroke:#ffffff;stroke-width:0.75;" x="255.622657" xlink:href="#mb7cfe766fb" y="64.316883"/>
     <use style="stroke:#ffffff;stroke-width:0.75;" x="265.828931" xlink:href="#mb7cfe766fb" y="75.316353"/>
     <use style="stroke:#ffffff;stroke-width:0.75;" x="276.035205" xlink:href="#mb7cfe766fb" y="68.071097"/>
     <use style="stroke:#ffffff;stroke-width:0.75;" x="286.241479" xlink:href="#mb7cfe766fb" y="71.016984"/>
     <use style="stroke:#ffffff;stroke-width:0.75;" x="296.447753" xlink:href="#mb7cfe766fb" y="53.861302"/>
     <use style="stroke:#ffffff;stroke-width:0.75;" x="306.654027" xlink:href="#mb7cfe766fb" y="65.039156"/>
     <use style="stroke:#ffffff;stroke-width:0.75;" x="316.860301" xlink:href="#mb7cfe766fb" y="66.411464"/>
     <use style="stroke:#ffffff;stroke-width:0.75;" x="327.066575" xlink:href="#mb7cfe766fb" y="58.684945"/>
     <use style="stroke:#ffffff;stroke-width:0.75;" x="337.272849" xlink:href="#mb7cfe766fb" y="63.393772"/>
     <use style="stroke:#ffffff;stroke-width:0.75;" x="347.479123" xlink:href="#mb7cfe766fb" y="57.925348"/>
     <use style="stroke:#ffffff;stroke-width:0.75;" x="357.685397" xlink:href="#mb7cfe766fb" y="70.049902"/>
     <use style="stroke:#ffffff;stroke-width:0.75;" x="367.891671" xlink:href="#mb7cfe766fb" y="87.11481"/>
     <use style="stroke:#ffffff;stroke-width:0.75;" x="378.097945" xlink:href="#mb7cfe766fb" y="72.510466"/>
     <use style="stroke:#ffffff;stroke-width:0.75;" x="388.304219" xlink:href="#mb7cfe766fb" y="54.799983"/>
     <use style="stroke:#ffffff;stroke-width:0.75;" x="398.510493" xlink:href="#mb7cfe766fb" y="77.958138"/>
     <use style="stroke:#ffffff;stroke-width:0.75;" x="408.716767" xlink:href="#mb7cfe766fb" y="65.68172"/>
     <use style="stroke:#ffffff;stroke-width:0.75;" x="418.923041" xlink:href="#mb7cfe766fb" y="53.589386"/>
     <use style="stroke:#ffffff;stroke-width:0.75;" x="429.129315" xlink:href="#mb7cfe766fb" y="56.235821"/>
     <use style="stroke:#ffffff;stroke-width:0.75;" x="439.335589" xlink:href="#mb7cfe766fb" y="46.612987"/>
     <use style="stroke:#ffffff;stroke-width:0.75;" x="449.541863" xlink:href="#mb7cfe766fb" y="47.468905"/>
     <use style="stroke:#ffffff;stroke-width:0.75;" x="459.748137" xlink:href="#mb7cfe766fb" y="47.294371"/>
     <use style="stroke:#ffffff;stroke-width:0.75;" x="469.954411" xlink:href="#mb7cfe766fb" y="31.311367"/>
     <use style="stroke:#ffffff;stroke-width:0.75;" x="480.160685" xlink:href="#mb7cfe766fb" y="31.997589"/>
     <use style="stroke:#ffffff;stroke-width:0.75;" x="490.366959" xlink:href="#mb7cfe766fb" y="21.492727"/>
     <use style="stroke:#ffffff;stroke-width:0.75;" x="500.573233" xlink:href="#mb7cfe766fb" y="102.326064"/>
     <use style="stroke:#ffffff;stroke-width:0.75;" x="510.779507" xlink:href="#mb7cfe766fb" y="80.974847"/>
     <use style="stroke:#ffffff;stroke-width:0.75;" x="520.985781" xlink:href="#mb7cfe766fb" y="95.69979"/>
     <use style="stroke:#ffffff;stroke-width:0.75;" x="531.192055" xlink:href="#mb7cfe766fb" y="63.193823"/>
     <use style="stroke:#ffffff;stroke-width:0.75;" x="541.398329" xlink:href="#mb7cfe766fb" y="68.888914"/>
     <use style="stroke:#ffffff;stroke-width:0.75;" x="551.604603" xlink:href="#mb7cfe766fb" y="62.312684"/>
     <use style="stroke:#ffffff;stroke-width:0.75;" x="561.810877" xlink:href="#mb7cfe766fb" y="45.39619"/>
     <use style="stroke:#ffffff;stroke-width:0.75;" x="572.017151" xlink:href="#mb7cfe766fb" y="22.501474"/>
     <use style="stroke:#ffffff;stroke-width:0.75;" x="582.223425" xlink:href="#mb7cfe766fb" y="23.046736"/>
     <use style="stroke:#ffffff;stroke-width:0.75;" x="592.429699" xlink:href="#mb7cfe766fb" y="40.682699"/>
     <use style="stroke:#ffffff;stroke-width:0.75;" x="602.635973" xlink:href="#mb7cfe766fb" y="75.363709"/>
     <use style="stroke:#ffffff;stroke-width:0.75;" x="612.842247" xlink:href="#mb7cfe766fb" y="100.819402"/>
     <use style="stroke:#ffffff;stroke-width:0.75;" x="623.048521" xlink:href="#mb7cfe766fb" y="107.838623"/>
     <use style="stroke:#ffffff;stroke-width:0.75;" x="633.254795" xlink:href="#mb7cfe766fb" y="131.391874"/>
     <use style="stroke:#ffffff;stroke-width:0.75;" x="643.461069" xlink:href="#mb7cfe766fb" y="118.201962"/>
     <use style="stroke:#ffffff;stroke-width:0.75;" x="653.667343" xlink:href="#mb7cfe766fb" y="120.163466"/>
     <use style="stroke:#ffffff;stroke-width:0.75;" x="663.873617" xlink:href="#mb7cfe766fb" y="135.071008"/>
     <use style="stroke:#ffffff;stroke-width:0.75;" x="674.079891" xlink:href="#mb7cfe766fb" y="161.105473"/>
     <use style="stroke:#ffffff;stroke-width:0.75;" x="684.286165" xlink:href="#mb7cfe766fb" y="199.057172"/>
     <use style="stroke:#ffffff;stroke-width:0.75;" x="694.492439" xlink:href="#mb7cfe766fb" y="168.316589"/>
     <use style="stroke:#ffffff;stroke-width:0.75;" x="704.698713" xlink:href="#mb7cfe766fb" y="125.386364"/>
     <use style="stroke:#ffffff;stroke-width:0.75;" x="714.904987" xlink:href="#mb7cfe766fb" y="136.854258"/>
     <use style="stroke:#ffffff;stroke-width:0.75;" x="725.111261" xlink:href="#mb7cfe766fb" y="154.925414"/>
     <use style="stroke:#ffffff;stroke-width:0.75;" x="735.317535" xlink:href="#mb7cfe766fb" y="149.784378"/>
     <use style="stroke:#ffffff;stroke-width:0.75;" x="745.523809" xlink:href="#mb7cfe766fb" y="165.653578"/>
     <use style="stroke:#ffffff;stroke-width:0.75;" x="755.730083" xlink:href="#mb7cfe766fb" y="195.764697"/>
     <use style="stroke:#ffffff;stroke-width:0.75;" x="765.936357" xlink:href="#mb7cfe766fb" y="217.81205"/>
     <use style="stroke:#ffffff;stroke-width:0.75;" x="776.142631" xlink:href="#mb7cfe766fb" y="214.560608"/>
     <use style="stroke:#ffffff;stroke-width:0.75;" x="786.348905" xlink:href="#mb7cfe766fb" y="170.268344"/>
     <use style="stroke:#ffffff;stroke-width:0.75;" x="796.555179" xlink:href="#mb7cfe766fb" y="208.879379"/>
     <use style="stroke:#ffffff;stroke-width:0.75;" x="806.761453" xlink:href="#mb7cfe766fb" y="210.061561"/>
     <use style="stroke:#ffffff;stroke-width:0.75;" x="816.967727" xlink:href="#mb7cfe766fb" y="235.347273"/>
    </g>
   </g>
   <g id="patch_3">
    <path d="M 56.09 246.04 
L 56.09 10.8 
" style="fill:none;stroke:#000000;stroke-linecap:square;stroke-linejoin:miter;stroke-width:0.8;"/>
   </g>
   <g id="patch_4">
    <path d="M 853.2 246.04 
L 853.2 10.8 
" style="fill:none;stroke:#000000;stroke-linecap:square;stroke-linejoin:miter;stroke-width:0.8;"/>
   </g>
   <g id="patch_5">
    <path d="M 56.09 246.04 
L 853.2 246.04 
" style="fill:none;stroke:#000000;stroke-linecap:square;stroke-linejoin:miter;stroke-width:0.8;"/>
   </g>
  </g>
 </g>
 <defs>
  <clipPath id="p9ba25e360b">
   <rect height="235.24" width="797.11" x="56.09" y="10.8"/>
  </clipPath>
 </defs>
</svg>
